G04*
G04 #@! TF.GenerationSoftware,Altium Limited,Altium Designer,23.1.1 (15)*
G04*
G04 Layer_Color=65535*
%FSLAX44Y44*%
%MOMM*%
G71*
G04*
G04 #@! TF.SameCoordinates,B54EA911-69F6-478F-8CB3-DEBD2400B795*
G04*
G04*
G04 #@! TF.FilePolarity,Positive*
G04*
G01*
G75*
%ADD10C,0.2000*%
%ADD11C,0.2500*%
%ADD12C,0.1524*%
%ADD13C,0.2540*%
D10*
X1097892Y772076D02*
G03*
X1097892Y772076I-1000J0D01*
G01*
X1241381Y882712D02*
Y910833D01*
X1259503Y882712D02*
Y910833D01*
X1193735Y977254D02*
Y980254D01*
X1163735Y977254D02*
Y980254D01*
X1193735D01*
X1163735Y977254D02*
X1193735D01*
X998292Y911157D02*
Y940282D01*
X1072042Y911157D02*
Y940282D01*
X1071567D02*
X1072042D01*
X1010567D02*
X1059767D01*
X998292D02*
X998767D01*
X1182931Y928520D02*
X1192931D01*
X1182931Y944520D02*
X1192931D01*
X1198059Y882230D02*
X1225559D01*
X1198059Y916230D02*
X1225559D01*
X1180424Y884723D02*
Y912844D01*
X1162303Y884723D02*
Y912844D01*
X1154601Y884723D02*
Y912844D01*
X1136479Y884723D02*
Y912844D01*
X1214370Y934724D02*
Y949448D01*
X1228094Y934724D02*
Y949448D01*
X1082021Y976102D02*
Y979102D01*
X1112021Y976102D02*
Y979102D01*
X1082021Y976102D02*
X1112021D01*
X1082021Y979102D02*
X1112021D01*
X1058682Y783287D02*
Y819787D01*
X1090182D01*
Y783287D02*
Y819787D01*
X1058682Y783287D02*
X1090182D01*
X1094796Y950309D02*
X1104796D01*
X1094796Y937609D02*
X1104796D01*
X1140290Y989920D02*
X1150290D01*
X1140290Y977220D02*
X1150290D01*
X1092280Y1004894D02*
X1102280D01*
X1092280Y1017594D02*
X1102280D01*
X1171782Y1006047D02*
X1181782D01*
X1171782Y1018747D02*
X1181782D01*
X1137290Y849770D02*
Y867270D01*
X1151790Y857770D02*
Y859270D01*
X1158932Y849770D02*
Y867270D01*
X1173432Y857770D02*
Y859270D01*
D11*
X1198485Y990754D02*
G03*
X1198485Y990754I-1250J0D01*
G01*
X993542Y907407D02*
G03*
X993542Y907407I-1250J0D01*
G01*
X1238100Y889730D02*
G03*
X1238100Y889730I-1250J0D01*
G01*
X1002280Y900398D02*
G03*
X1002280Y900398I-1250J0D01*
G01*
X1079771Y965602D02*
G03*
X1079771Y965602I-1250J0D01*
G01*
X1068182Y777787D02*
G03*
X1068182Y777787I-1250J0D01*
G01*
X1149790Y837270D02*
G03*
X1149790Y837270I-1250J0D01*
G01*
X1171432D02*
G03*
X1171432Y837270I-1250J0D01*
G01*
D12*
X1182877Y842364D02*
G03*
X1182877Y842364I-1270J0D01*
G01*
X1189375Y809598D02*
X1254907D01*
X1189375Y875130D02*
X1254907D01*
D13*
X1223204Y788588D02*
Y778592D01*
X1228202D01*
X1229868Y780258D01*
Y781924D01*
X1228202Y783590D01*
X1223204D01*
X1228202D01*
X1229868Y785256D01*
Y786922D01*
X1228202Y788588D01*
X1223204D01*
X1233200Y778592D02*
X1236533D01*
X1234866D01*
Y788588D01*
X1233200Y786922D01*
X1026608Y931844D02*
Y923514D01*
X1028274Y921848D01*
X1031606D01*
X1033272Y923514D01*
Y931844D01*
X1036604Y921848D02*
X1039937D01*
X1038270D01*
Y931844D01*
X1036604Y930178D01*
X1226484Y869391D02*
X1218154D01*
X1216488Y867725D01*
Y864392D01*
X1218154Y862726D01*
X1226484D01*
X1224818Y859394D02*
X1226484Y857728D01*
Y854395D01*
X1224818Y852729D01*
X1223152D01*
X1221486Y854395D01*
Y856062D01*
Y854395D01*
X1219820Y852729D01*
X1218154D01*
X1216488Y854395D01*
Y857728D01*
X1218154Y859394D01*
X1214638Y919768D02*
Y929765D01*
X1219637D01*
X1221303Y928099D01*
Y924767D01*
X1219637Y923101D01*
X1214638D01*
X1217971D02*
X1221303Y919768D01*
X1231300D02*
X1224635D01*
X1231300Y926433D01*
Y928099D01*
X1229633Y929765D01*
X1226301D01*
X1224635Y928099D01*
X1208696Y911929D02*
Y901933D01*
X1203698D01*
X1202032Y903599D01*
Y906931D01*
X1203698Y908597D01*
X1208696D01*
X1205364D02*
X1202032Y911929D01*
X1198699D02*
X1195367D01*
X1197033D01*
Y901933D01*
X1198699Y903599D01*
X1216742Y830773D02*
X1226738D01*
Y837438D01*
Y840770D02*
Y844102D01*
Y842436D01*
X1216742D01*
X1218408Y840770D01*
X1098154Y905540D02*
X1096488Y907206D01*
X1093156D01*
X1091489Y905540D01*
Y898876D01*
X1093156Y897210D01*
X1096488D01*
X1098154Y898876D01*
X1101486Y907206D02*
X1108151D01*
Y905540D01*
X1101486Y898876D01*
Y897210D01*
X1168004Y932972D02*
X1166338Y934638D01*
X1163006D01*
X1161339Y932972D01*
Y926308D01*
X1163006Y924642D01*
X1166338D01*
X1168004Y926308D01*
X1178001Y934638D02*
X1174668Y932972D01*
X1171336Y929640D01*
Y926308D01*
X1173002Y924642D01*
X1176335D01*
X1178001Y926308D01*
Y927974D01*
X1176335Y929640D01*
X1171336D01*
X1257668Y923174D02*
X1256002Y924840D01*
X1252670D01*
X1251004Y923174D01*
Y916509D01*
X1252670Y914843D01*
X1256002D01*
X1257668Y916509D01*
X1261001Y923174D02*
X1262667Y924840D01*
X1265999D01*
X1267665Y923174D01*
Y921508D01*
X1265999Y919842D01*
X1267665Y918175D01*
Y916509D01*
X1265999Y914843D01*
X1262667D01*
X1261001Y916509D01*
Y918175D01*
X1262667Y919842D01*
X1261001Y921508D01*
Y923174D01*
X1262667Y919842D02*
X1265999D01*
X1121410Y741598D02*
X1118078D01*
X1119744D01*
Y733268D01*
X1118078Y731602D01*
X1116412D01*
X1114745Y733268D01*
X1124742Y731602D02*
X1128074D01*
X1126408D01*
Y741598D01*
X1124742Y739932D01*
X1124376Y958545D02*
X1116046D01*
X1114380Y956879D01*
Y953546D01*
X1116046Y951880D01*
X1124376D01*
Y941883D02*
Y948548D01*
X1119378D01*
X1121044Y945216D01*
Y943549D01*
X1119378Y941883D01*
X1116046D01*
X1114380Y943549D01*
Y946882D01*
X1116046Y948548D01*
X1143636Y970648D02*
Y962317D01*
X1145302Y960651D01*
X1148634D01*
X1150300Y962317D01*
Y970648D01*
X1160297D02*
X1156965Y968982D01*
X1153633Y965650D01*
Y962317D01*
X1155299Y960651D01*
X1158631D01*
X1160297Y962317D01*
Y963983D01*
X1158631Y965650D01*
X1153633D01*
X1092465Y929416D02*
X1090798Y931082D01*
X1087466D01*
X1085800Y929416D01*
Y922752D01*
X1087466Y921086D01*
X1090798D01*
X1092465Y922752D01*
X1095797Y921086D02*
X1099129D01*
X1097463D01*
Y931082D01*
X1095797Y929416D01*
X1110792Y921086D02*
X1104128D01*
X1110792Y927750D01*
Y929416D01*
X1109126Y931082D01*
X1105794D01*
X1104128Y929416D01*
X1136406Y933480D02*
X1134740Y935146D01*
X1131408D01*
X1129742Y933480D01*
Y926816D01*
X1131408Y925150D01*
X1134740D01*
X1136406Y926816D01*
X1139739Y925150D02*
X1143071D01*
X1141405D01*
Y935146D01*
X1139739Y933480D01*
X1148070D02*
X1149736Y935146D01*
X1153068D01*
X1154734Y933480D01*
Y931814D01*
X1153068Y930148D01*
X1151402D01*
X1153068D01*
X1154734Y928482D01*
Y926816D01*
X1153068Y925150D01*
X1149736D01*
X1148070Y926816D01*
X1118626Y1016538D02*
X1116960Y1018204D01*
X1113628D01*
X1111962Y1016538D01*
Y1009874D01*
X1113628Y1008208D01*
X1116960D01*
X1118626Y1009874D01*
X1121959Y1008208D02*
X1125291D01*
X1123625D01*
Y1018204D01*
X1121959Y1016538D01*
X1136954Y1018204D02*
X1130290D01*
Y1013206D01*
X1133622Y1014872D01*
X1135288D01*
X1136954Y1013206D01*
Y1009874D01*
X1135288Y1008208D01*
X1131956D01*
X1130290Y1009874D01*
X1152876Y1002040D02*
X1151210Y1000374D01*
Y997042D01*
X1152876Y995376D01*
X1159540D01*
X1161206Y997042D01*
Y1000374D01*
X1159540Y1002040D01*
X1161206Y1005373D02*
Y1008705D01*
Y1007039D01*
X1151210D01*
X1152876Y1005373D01*
X1151210Y1020368D02*
X1152876Y1017036D01*
X1156208Y1013704D01*
X1159540D01*
X1161206Y1015370D01*
Y1018702D01*
X1159540Y1020368D01*
X1157874D01*
X1156208Y1018702D01*
Y1013704D01*
X1097108Y796341D02*
X1105438D01*
X1107104Y798008D01*
Y801340D01*
X1105438Y803006D01*
X1097108D01*
X1107104Y811337D02*
X1097108D01*
X1102106Y806338D01*
Y813003D01*
X1157275Y777068D02*
Y787064D01*
X1162274D01*
X1163940Y785398D01*
Y782066D01*
X1162274Y780400D01*
X1157275D01*
X1160608D02*
X1163940Y777068D01*
X1173937Y787064D02*
X1167272D01*
Y782066D01*
X1170604Y783732D01*
X1172271D01*
X1173937Y782066D01*
Y778734D01*
X1172271Y777068D01*
X1168938D01*
X1167272Y778734D01*
X1152695Y794186D02*
X1142698D01*
Y799184D01*
X1144364Y800850D01*
X1147696D01*
X1149362Y799184D01*
Y794186D01*
Y797518D02*
X1152695Y800850D01*
Y809181D02*
X1142698D01*
X1147696Y804183D01*
Y810847D01*
X1106685Y848683D02*
Y838687D01*
X1111684D01*
X1113350Y840353D01*
Y847017D01*
X1111684Y848683D01*
X1106685D01*
X1116682Y838687D02*
X1120014D01*
X1118348D01*
Y848683D01*
X1116682Y847017D01*
X1125013D02*
X1126679Y848683D01*
X1130011D01*
X1131677Y847017D01*
Y845351D01*
X1130011Y843685D01*
X1128345D01*
X1130011D01*
X1131677Y842019D01*
Y840353D01*
X1130011Y838687D01*
X1126679D01*
X1125013Y840353D01*
X1106374Y867328D02*
Y857332D01*
X1111372D01*
X1113038Y858998D01*
Y865662D01*
X1111372Y867328D01*
X1106374D01*
X1116371Y857332D02*
X1119703D01*
X1118037D01*
Y867328D01*
X1116371Y865662D01*
X1131366Y857332D02*
X1124702D01*
X1131366Y863996D01*
Y865662D01*
X1129700Y867328D01*
X1126368D01*
X1124702Y865662D01*
M02*
