M48
;Layer_Color=9474304
;FILE_FORMAT=4:4
METRIC,LZ
;TYPE=PLATED
T1F00S00C0.3556
T2F00S00C0.4000
T3F00S00C1.0000
T4F00S00C1.1000
T5F00S00C2.3000
%
T01
X01244751Y00737513
X01250188Y00769874
X01251133Y00791847
X0121031Y0079248
X01147318Y00742442
X0113665Y0074295
X01073222Y00778706
X01060264Y00780112
X01058926Y00789686
X0105904Y00840837
X01075198Y00840994
X01073658Y00831596
X01012533Y00821362
X01001184Y00824655
X00995934Y0084074
X00994811Y00859748
X01011909Y00860413
X01012262Y00846748
X01011345Y00883345
X0101227Y00901791
X0101931Y00901577
X0103974Y00883022
X01177795Y00887453
X0117787Y00893898
X01179115Y00867996
X01185856Y00914994
X01169943Y00914635
X01158218Y00914515
X01135671Y00803961
X0123317Y0080772
X0124333Y0082169
X01247648Y0087884
T02
X01075758Y00768717
X01087628Y00767588
X01089899Y00777884
X01124497Y00774443
X01130808Y00784352
X01083778Y00804347
X01054246Y00811506
X01057402Y00821436
X01058098Y00860714
X01058207Y00871254
X01030667Y00891907
X01116515Y00879261
X01134505Y00880407
X0111887Y0092583
X01123188Y0096774
X0113665Y00956056
X01158282Y00942262
X01168654Y00972058
X01188235Y00978754
X01180782Y01002599
X01133659Y00998631
X01087281Y01006292
X0120142Y00957072
X0124587Y0090678
T03
X01230884Y0075184
X0118872Y0077851
X01175474Y00803838
T04
X01025654Y00818942
X01043366Y00819229
T05
X0103251Y0078613
X0125095Y00937514
M30
