G04*
G04 #@! TF.GenerationSoftware,Altium Limited,Altium Designer,23.1.1 (15)*
G04*
G04 Layer_Physical_Order=4*
G04 Layer_Color=16711680*
%FSLAX44Y44*%
%MOMM*%
G71*
G04*
G04 #@! TF.SameCoordinates,B54EA911-69F6-478F-8CB3-DEBD2400B795*
G04*
G04*
G04 #@! TF.FilePolarity,Positive*
G04*
G01*
G75*
%ADD10C,0.2000*%
%ADD13C,0.2540*%
%ADD33R,0.5200X0.5200*%
%ADD42C,0.6604*%
%ADD43C,0.1700*%
%ADD45C,0.7000*%
%ADD46C,0.5000*%
%ADD47C,0.2032*%
%ADD48C,0.1778*%
%ADD49C,0.3000*%
%ADD51C,0.4000*%
%ADD52C,1.0000*%
%ADD57C,0.7620*%
%ADD58C,2.0000*%
%ADD59C,1.5000*%
%ADD60C,0.8000*%
%ADD61C,0.6096*%
%ADD62C,1.0000*%
%ADD64C,0.1700*%
G04:AMPARAMS|DCode=65|XSize=0.1925mm|YSize=0.8937mm|CornerRadius=0.0962mm|HoleSize=0mm|Usage=FLASHONLY|Rotation=180.000|XOffset=0mm|YOffset=0mm|HoleType=Round|Shape=RoundedRectangle|*
%AMROUNDEDRECTD65*
21,1,0.1925,0.7012,0,0,180.0*
21,1,0.0000,0.8937,0,0,180.0*
1,1,0.1925,0.0000,0.3506*
1,1,0.1925,0.0000,0.3506*
1,1,0.1925,0.0000,-0.3506*
1,1,0.1925,0.0000,-0.3506*
%
%ADD65ROUNDEDRECTD65*%
G04:AMPARAMS|DCode=66|XSize=0.8937mm|YSize=0.1925mm|CornerRadius=0.0962mm|HoleSize=0mm|Usage=FLASHONLY|Rotation=180.000|XOffset=0mm|YOffset=0mm|HoleType=Round|Shape=RoundedRectangle|*
%AMROUNDEDRECTD66*
21,1,0.8937,0.0000,0,0,180.0*
21,1,0.7012,0.1925,0,0,180.0*
1,1,0.1925,-0.3506,0.0000*
1,1,0.1925,0.3506,0.0000*
1,1,0.1925,0.3506,0.0000*
1,1,0.1925,-0.3506,0.0000*
%
%ADD66ROUNDEDRECTD66*%
%ADD67R,0.8937X0.1925*%
%ADD68R,2.7000X2.7000*%
%ADD69R,1.4500X0.6500*%
%ADD70R,0.2700X0.7000*%
%ADD71R,1.8000X1.3000*%
%ADD72R,1.8000X1.0000*%
%ADD73R,1.0000X0.7500*%
G04:AMPARAMS|DCode=74|XSize=1.5mm|YSize=1mm|CornerRadius=0mm|HoleSize=0mm|Usage=FLASHONLY|Rotation=55.000|XOffset=0mm|YOffset=0mm|HoleType=Round|Shape=Rectangle|*
%AMROTATEDRECTD74*
4,1,4,-0.0206,-0.9012,-0.8398,-0.3276,0.0206,0.9012,0.8398,0.3276,-0.0206,-0.9012,0.0*
%
%ADD74ROTATEDRECTD74*%

%ADD75R,1.1581X1.0121*%
%ADD76P,1.6971X4X165.0*%
%ADD77R,1.9000X0.4000*%
%ADD78R,1.6000X2.4000*%
%ADD79R,0.5000X0.4000*%
G36*
X1260930Y920553D02*
Y760329D01*
Y758286D01*
X1260396Y754235D01*
X1259339Y750289D01*
X1257775Y746514D01*
X1255732Y742975D01*
X1253245Y739734D01*
X1252441Y738930D01*
X1250593Y739695D01*
Y739933D01*
X1247493Y743034D01*
X1256130Y763885D01*
X1255060D01*
X1254461Y765885D01*
X1256030Y767454D01*
Y772294D01*
X1252608Y775716D01*
X1247768D01*
X1244346Y772294D01*
Y767454D01*
X1245915Y765885D01*
X1245316Y763885D01*
X1244102D01*
X1241550Y757724D01*
X1239589Y757334D01*
X1235043Y761880D01*
X1226725D01*
X1220844Y755999D01*
Y747681D01*
X1219420Y746291D01*
X1200404D01*
Y772460D01*
X1201260Y773316D01*
Y783704D01*
X1200404Y784560D01*
Y841593D01*
X1202333Y846249D01*
X1200404D01*
Y889007D01*
X1208074Y893435D01*
X1200404Y906720D01*
Y908490D01*
X1202879Y914464D01*
X1207452Y919037D01*
X1213427Y921512D01*
X1216660D01*
Y921766D01*
X1258000D01*
X1260930Y920553D01*
D02*
G37*
%LPC*%
G36*
X1248993Y914320D02*
X1247140D01*
Y908050D01*
X1253410D01*
Y909903D01*
X1248993Y914320D01*
D02*
G37*
G36*
X1244600D02*
X1242747D01*
X1238330Y909903D01*
Y908050D01*
X1244600D01*
Y914320D01*
D02*
G37*
G36*
X1253410Y905510D02*
X1238330D01*
Y903657D01*
X1241102Y900885D01*
X1241247Y900534D01*
X1241599Y900388D01*
X1242747Y899240D01*
X1244370D01*
X1245870Y898619D01*
X1247370Y899240D01*
X1248993D01*
X1250141Y900388D01*
X1250493Y900534D01*
X1250639Y900885D01*
X1253410Y903657D01*
Y905510D01*
D02*
G37*
G36*
X1250068Y884682D02*
X1245228D01*
X1241806Y881260D01*
Y876420D01*
X1245228Y872998D01*
X1250068D01*
X1253490Y876420D01*
Y881260D01*
X1250068Y884682D01*
D02*
G37*
G36*
X1245750Y827532D02*
X1240910D01*
X1237488Y824110D01*
Y819270D01*
X1240910Y815848D01*
X1245750D01*
X1249172Y819270D01*
Y824110D01*
X1245750Y827532D01*
D02*
G37*
G36*
X1235590Y813562D02*
X1230750D01*
X1227328Y810140D01*
Y805300D01*
X1230750Y801878D01*
X1235590D01*
X1239012Y805300D01*
Y810140D01*
X1235590Y813562D01*
D02*
G37*
G36*
X1212730Y798322D02*
X1211580D01*
Y793750D01*
X1216152D01*
Y794900D01*
X1212730Y798322D01*
D02*
G37*
G36*
X1209040D02*
X1207890D01*
X1204468Y794900D01*
Y793750D01*
X1209040D01*
Y798322D01*
D02*
G37*
G36*
X1253553Y797689D02*
X1252403D01*
Y793117D01*
X1256975D01*
Y794267D01*
X1253553Y797689D01*
D02*
G37*
G36*
X1249863D02*
X1248713D01*
X1245291Y794267D01*
Y793117D01*
X1249863D01*
Y797689D01*
D02*
G37*
G36*
X1216152Y791210D02*
X1211580D01*
Y786638D01*
X1212730D01*
X1216152Y790060D01*
Y791210D01*
D02*
G37*
G36*
X1209040D02*
X1204468D01*
Y790060D01*
X1207890Y786638D01*
X1209040D01*
Y791210D01*
D02*
G37*
G36*
X1256975Y790577D02*
X1252403D01*
Y786005D01*
X1253553D01*
X1256975Y789427D01*
Y790577D01*
D02*
G37*
G36*
X1249863D02*
X1245291D01*
Y789427D01*
X1248713Y786005D01*
X1249863D01*
Y790577D01*
D02*
G37*
%LPD*%
D10*
X1082040Y858515D02*
G03*
X1082323Y852162I71024J-24D01*
G01*
X1082382Y851511D02*
G03*
X1082377Y851583I-1996J-121D01*
G01*
X1082383Y851509D02*
G03*
X1083345Y844929I36331J1955D01*
G01*
X1083361Y844859D02*
G03*
X1083345Y844929I-1961J-391D01*
G01*
X1083361Y844859D02*
G03*
X1102833Y808279I69704J13633D01*
G01*
X1082332Y852049D02*
G03*
X1082334Y852032I1993J173D01*
G01*
X1085850Y853464D02*
G03*
X1118714Y820601I32864J0D01*
G01*
X1054914Y768232D02*
G03*
X1054378Y768839I-8503J-6978D01*
G01*
X1064969Y746241D02*
G03*
X1064806Y747332I-10947J-1078D01*
G01*
X1065314Y742438D02*
G03*
X1065264Y743247I-10997J-270D01*
G01*
X1064224Y750260D02*
G03*
X1063961Y751307I-10789J-2146D01*
G01*
X1051052Y792829D02*
G03*
X1051097Y792419I2000J10D01*
G01*
X1051097Y786362D02*
G03*
X1051097Y792419I-13710J3028D01*
G01*
X1061573Y757982D02*
G03*
X1061111Y758958I-10163J-4209D01*
G01*
X1063088Y754186D02*
G03*
X1062724Y755203I-10526J-3193D01*
G01*
X1084454Y730078D02*
G03*
X1084569Y730074I126J1996D01*
G01*
X1068541Y737421D02*
G03*
X1084436Y730079I17946J17975D01*
G01*
X1226791Y730074D02*
G03*
X1244751Y737513I0J25400D01*
G01*
X1054113Y769138D02*
G03*
X1054259Y768964I1602J1197D01*
G01*
X1051052Y778637D02*
G03*
X1054102Y769152I16269J0D01*
G01*
X1065340Y741367D02*
G03*
X1066137Y739825I1999J57D01*
G01*
X1059693Y761612D02*
G03*
X1059138Y762538I-9701J-5185D01*
G01*
X1057466Y765040D02*
G03*
X1056823Y765907I-9146J-6111D01*
G01*
X1051097Y786362D02*
G03*
X1051052Y785950I1955J-421D01*
G01*
Y796289D02*
G03*
X1048357Y802795I-9201J0D01*
G01*
D02*
G03*
X1036467Y807720I-11890J-11890D01*
G01*
X1008062Y814459D02*
G03*
X1024349Y807720I16287J16311D01*
G01*
X1001184Y822210D02*
G03*
X1001800Y820722I2108J0D01*
G01*
X994811Y859748D02*
G03*
X995393Y860331I0J582D01*
G01*
X1030667Y891907D02*
G03*
X1030986Y892677I-769J769D01*
G01*
X1150371Y914444D02*
G03*
X1157556Y897097I24531J0D01*
G01*
X1131062Y912114D02*
G03*
X1126490Y901076I11038J-11038D01*
G01*
X1131062Y912114D02*
G03*
X1138486Y930037I-17923J17923D01*
G01*
X1136410Y901872D02*
G03*
X1142486Y916542I-14670J14670D01*
G01*
X1121143Y910323D02*
G03*
X1116293Y898613I11710J-11710D01*
G01*
X1128522Y917702D02*
G03*
X1134486Y932100I-14398J14398D01*
G01*
X1118870Y925830D02*
G03*
X1130486Y937446I0J11616D01*
G01*
X1163610Y967014D02*
G03*
X1168654Y972058I0J5044D01*
G01*
X1164401Y953432D02*
G03*
X1162820Y955014I-1582J0D01*
G01*
X1102928Y912569D02*
G03*
X1103123Y912953I-1674J1095D01*
G01*
X1103124Y912953D02*
G03*
X1103739Y915272I-12205J4480D01*
G01*
X1102301Y911802D02*
G03*
X1102928Y912569I-3471J3471D01*
G01*
X1103645Y924230D02*
G03*
X1103604Y924452I-1984J-255D01*
G01*
X1103297Y925449D02*
G03*
X1103122Y925807I-1876J-693D01*
G01*
X1102758Y926518D02*
G03*
X1103122Y925807I5084J2150D01*
G01*
X1103604Y924452D02*
G03*
X1103297Y925449I-9971J-2529D01*
G01*
X1102236Y927852D02*
G03*
X1102745Y926551I46290J17343D01*
G01*
X1103920Y921903D02*
G03*
X1103919Y922055I-10287J19D01*
G01*
X1103739Y915272D02*
G03*
X1103920Y917433I-12821J2161D01*
G01*
X1103919Y922055D02*
G03*
X1103901Y922293I-2000J-33D01*
G01*
X1101056Y931408D02*
G03*
X1102236Y927852I47470J13787D01*
G01*
X1099094Y945214D02*
G03*
X1101056Y931408I49432J-19D01*
G01*
X1123788Y993047D02*
G03*
X1119886Y994664I-3902J-3902D01*
G01*
X1126486Y986764D02*
G03*
X1123950Y992886I-8658J0D01*
G01*
X1119886Y994664D02*
G03*
X1108825Y991488I0J-20849D01*
G01*
X1103576Y987045D02*
G03*
X1099094Y974598I15040J-12447D01*
G01*
X1089224Y898724D02*
G03*
X1082040Y881380I17344J-17344D01*
G01*
X1108789Y991466D02*
G03*
X1108825Y991488I-1016J1723D01*
G01*
X1108789Y991466D02*
G03*
X1103576Y987045I9827J-16868D01*
G01*
X1118616Y990600D02*
G03*
X1102614Y974598I0J-16002D01*
G01*
X1102614Y945195D02*
G03*
X1105994Y927904I45912J-0D01*
G01*
X1106443Y927072D02*
G03*
X1106288Y927379I-1856J-746D01*
G01*
X1105994Y927904D02*
G03*
X1106142Y927616I1848J764D01*
G01*
X1107440Y921922D02*
G03*
X1106443Y927072I-13807J-0D01*
G01*
X1102601Y905751D02*
G03*
X1107440Y917433I-11683J11683D01*
G01*
X1122486Y986730D02*
G03*
X1118616Y990600I-3870J0D01*
G01*
X1112019Y848197D02*
G03*
X1126490Y862668I0J14471D01*
G01*
X1131748Y900000D02*
G03*
X1134680Y902933I0J2932D01*
G01*
X1188969Y828289D02*
G03*
X1196408Y846249I-17960J17960D01*
G01*
X1170760Y820601D02*
G03*
X1188720Y828040I0J25400D01*
G01*
X1093289Y896440D02*
G03*
X1085850Y878479I17960J-17960D01*
G01*
X1122680Y970280D02*
G03*
X1125943Y975510I-9657J9657D01*
G01*
X1082323Y852162D02*
X1082332Y852049D01*
X1082334Y852032D02*
X1082377Y851583D01*
X1082382Y851511D02*
X1082383Y851509D01*
X1102833Y808279D02*
X1102834Y808279D01*
X1103411Y807701D01*
X1082040Y858515D02*
X1082040Y858525D01*
Y881380D01*
X1103411Y807701D02*
X1107160Y803952D01*
X1118714Y820601D02*
X1170760D01*
X1085850Y853464D02*
Y878479D01*
X1051052Y792829D02*
Y796289D01*
X1084569Y730074D02*
X1226791D01*
X1054259Y768964D02*
X1054378Y768839D01*
X1063088Y754186D02*
X1063961Y751307D01*
X1054914Y768232D02*
X1055817Y767133D01*
X1065314Y742438D02*
X1065340Y741367D01*
X1084436Y730079D02*
X1084454Y730078D01*
X1064224Y750260D02*
X1064806Y747332D01*
X1059693Y761612D02*
X1061111Y758958D01*
X1061573Y757982D02*
X1062724Y755203D01*
X1064969Y746241D02*
X1065264Y743247D01*
X1054102Y769152D02*
X1054113Y769138D01*
X1051052Y778637D02*
Y785950D01*
X1066137Y739825D02*
X1068541Y737421D01*
X1057466Y765040D02*
X1059138Y762538D01*
X1055817Y767133D02*
X1056823Y765907D01*
X1051052Y785950D02*
Y785950D01*
X1024349Y807720D02*
X1036467D01*
X1001800Y820722D02*
X1008062Y814459D01*
X1001184Y822210D02*
Y824655D01*
X1030986Y892677D02*
Y905002D01*
X1150371Y914444D02*
Y951014D01*
X1126490Y862668D02*
Y901076D01*
X1138486Y930037D02*
Y943129D01*
X1142486Y916542D02*
Y943129D01*
X1121143Y910323D02*
X1128522Y917702D01*
X1134486Y932100D02*
Y943129D01*
X1130486Y937446D02*
Y943129D01*
X1164401Y950252D02*
Y953432D01*
X1150371Y955014D02*
X1162820D01*
X1150371Y967014D02*
X1163610D01*
X1150371Y959015D02*
X1163878D01*
X1103123Y912953D02*
X1103124Y912953D01*
X1089224Y898724D02*
X1102301Y911802D01*
X1103604Y924452D02*
X1103604Y924452D01*
X1102745Y926551D02*
X1102758Y926518D01*
X1103122Y925807D02*
X1103122Y925807D01*
X1103920Y921903D02*
X1103920Y917433D01*
X1103645Y924230D02*
X1103901Y922293D01*
X1099094Y945214D02*
X1099094Y974598D01*
X1123789Y993047D02*
X1123950Y992886D01*
X1126486Y982899D02*
Y986764D01*
X1099094Y974598D02*
Y974598D01*
X1106443Y927072D02*
X1106443D01*
X1107440Y917433D02*
Y921922D01*
X1106142Y927616D02*
X1106288Y927379D01*
X1102614Y945205D02*
Y974598D01*
X1102614Y945195D02*
X1102614Y945205D01*
X1122486Y982899D02*
Y986730D01*
X995393Y860331D02*
Y868100D01*
X1188720Y828040D02*
X1188969Y828289D01*
X1093289Y896440D02*
X1102601Y905751D01*
X1196408Y846249D02*
Y896561D01*
D13*
X1198816Y963359D02*
G03*
X1201420Y957072I8891J0D01*
G01*
X1184954Y950252D02*
G03*
X1201420Y957072I0J23286D01*
G01*
X1081024Y793242D02*
G03*
X1083778Y799891I-6649J6649D01*
G01*
X1076094Y791200D02*
G03*
X1081024Y793242I0J6972D01*
G01*
X1130486Y963015D02*
X1150371D01*
X1172402Y950252D02*
X1184954D01*
X1172400Y960882D02*
X1172402Y960881D01*
Y950252D02*
Y960881D01*
X1198816Y963359D02*
Y978916D01*
X1075586Y791200D02*
X1076094D01*
X1069086D02*
X1075586D01*
X1083778Y799891D02*
Y804347D01*
D33*
X1164401Y950252D02*
D03*
X1172402D02*
D03*
X1190816Y978916D02*
D03*
X1198816D02*
D03*
X1013270Y892810D02*
D03*
X1021270D02*
D03*
X1164400Y960882D02*
D03*
X1172400D02*
D03*
D42*
X1073658Y831596D02*
D03*
X1075198Y840994D02*
D03*
X1251133Y791847D02*
D03*
X1058926Y789686D02*
D03*
X1210310Y792480D02*
D03*
X1250188Y769874D02*
D03*
X1244751Y737513D02*
D03*
X1060264Y780112D02*
D03*
X1073222Y778706D02*
D03*
X1147318Y742442D02*
D03*
X1247648Y878840D02*
D03*
X1083778Y804347D02*
D03*
X1054246Y811506D02*
D03*
X1012262Y846748D02*
D03*
X1012533Y821362D02*
D03*
X995934Y840740D02*
D03*
X1201420Y957072D02*
D03*
X1030667Y891907D02*
D03*
X1135671Y803961D02*
D03*
X1177795Y887453D02*
D03*
X1136650Y742950D02*
D03*
X1179115Y867996D02*
D03*
X1011909Y860413D02*
D03*
X1233170Y807720D02*
D03*
X1243330Y821690D02*
D03*
X994811Y859748D02*
D03*
X1158218Y914515D02*
D03*
X1169943Y914635D02*
D03*
X1185856Y914994D02*
D03*
X1177870Y893898D02*
D03*
X1059040Y840837D02*
D03*
X1039740Y883022D02*
D03*
X1012270Y901791D02*
D03*
X1019310Y901577D02*
D03*
X1011345Y883345D02*
D03*
D43*
X1054246Y811506D02*
G03*
X1060296Y809000I6051J6051D01*
G01*
X1132441Y782719D02*
G03*
X1132439Y782721I-8941J-8937D01*
G01*
X1087628Y767588D02*
G03*
X1096826Y763778I9198J9198D01*
G01*
X1136142Y773782D02*
G03*
X1132441Y782719I-12642J0D01*
G01*
X1060779Y814863D02*
G03*
X1062832Y826449I-3377J6573D01*
G01*
X1053174Y836890D02*
G03*
X1046364Y838454I-6810J-14046D01*
G01*
X1053429Y836633D02*
G03*
X1053382Y836682I-1249J-1153D01*
G01*
X1012533Y830323D02*
G03*
X1007808Y841732I-16135J0D01*
G01*
X1007808Y841732D02*
G03*
X1007669Y841881I-1310J-1084D01*
G01*
X1012190Y853440D02*
G03*
X1010625Y853237I0J-6132D01*
G01*
X1010587Y853227D02*
G03*
X1009224Y852743I0J-2163D01*
G01*
X1008997Y852590D02*
G03*
X1007669Y841881I3264J-5842D01*
G01*
X1008997Y852590D02*
G03*
X1009224Y852743I-837J1480D01*
G01*
X1014222Y840740D02*
G03*
X1019741Y838454I5519J5519D01*
G01*
X1012190Y845646D02*
G03*
X1014222Y840740I6938J0D01*
G01*
X1021105Y850411D02*
G03*
X1012262Y846748I0J-12507D01*
G01*
X1055562Y850411D02*
G03*
X1065275Y852899I2536J10302D01*
G01*
X1066125Y853556D02*
G03*
X1066574Y854071I-1031J1352D01*
G01*
X1065405Y853007D02*
G03*
X1065275Y852899I1020J-1360D01*
G01*
X1088898Y968502D02*
G03*
X1088952Y968917I-1646J425D01*
G01*
X1065597Y871177D02*
G03*
X1065536Y872200I-7390J77D01*
G01*
X1065524Y872397D02*
G03*
X1065536Y872200I1700J9D01*
G01*
X1092693Y936724D02*
G03*
X1092692Y936733I-1695J-134D01*
G01*
X1092461Y939483D02*
G03*
X1092458Y939522I-1695J-129D01*
G01*
X1089469Y928939D02*
G03*
X1092693Y936724I-7785J7785D01*
G01*
X1067355Y855434D02*
G03*
X1069521Y868377I-16575J9427D01*
G01*
X1092172Y945214D02*
G03*
X1092450Y939599I56354J-19D01*
G01*
X1069340Y868814D02*
G03*
X1069521Y868377I618J0D01*
G01*
X1054339Y864839D02*
G03*
X1056699Y862112I20335J15220D01*
G01*
X1054339Y864839D02*
G03*
X1053962Y865205I-1358J-1023D01*
G01*
X1050819Y871086D02*
G03*
X1053962Y865205I7388J167D01*
G01*
X1050819Y871086D02*
G03*
X1050726Y871594I-1699J-49D01*
G01*
X1049274Y880059D02*
G03*
X1050726Y871594I25400J0D01*
G01*
X1142020Y1009835D02*
G03*
X1142931Y1009464I1185J1611D01*
G01*
X1058098Y853324D02*
G03*
X1065488Y860637I0J7390D01*
G01*
X1096966Y999673D02*
G03*
X1097467Y999975I-769J1846D01*
G01*
X1150371Y991504D02*
G03*
X1142932Y1009464I-25400J0D01*
G01*
X1101814Y1003040D02*
G03*
X1097467Y999975I16802J-28442D01*
G01*
X1058755Y886484D02*
G03*
X1058633Y887257I-1998J79D01*
G01*
X1127934Y763778D02*
G03*
X1132840Y765810I0J6938D01*
G01*
D02*
G03*
X1136142Y773782I-7972J7972D01*
G01*
X1158494Y972566D02*
G03*
X1159764Y975632I-3066J3066D01*
G01*
X1154748Y971014D02*
G03*
X1158494Y972566I0J5297D01*
G01*
X1056713Y910100D02*
G03*
X1049274Y892139I17960J-17960D01*
G01*
X1076842Y930229D02*
G03*
X1078523Y932152I-13290J13311D01*
G01*
X1078756Y932575D02*
G03*
X1078756Y932576I-1591J600D01*
G01*
X1078523Y932152D02*
G03*
X1078756Y932575I-1358J1023D01*
G01*
X1082218Y941861D02*
G03*
X1082323Y942336I-1590J602D01*
G01*
X1082323D02*
G03*
X1082362Y943540I-18771J1204D01*
G01*
X1082352Y969261D02*
G03*
X1082352Y967743I6546J-759D01*
G01*
X1082362Y967567D02*
G03*
X1082352Y967743I-1700J-9D01*
G01*
Y969261D02*
G03*
X1082362Y969437I-1690J185D01*
G01*
X1114391Y1011414D02*
G03*
X1096431Y1003975I0J-25400D01*
G01*
X1095424Y1002500D02*
G03*
X1094678Y1001939I1542J-2827D01*
G01*
X1089196Y995784D02*
G03*
X1089205Y995797I-1385J985D01*
G01*
X1092539Y999800D02*
G03*
X1089205Y995797I20235J-20239D01*
G01*
X1089196Y995784D02*
G03*
X1082362Y974579I29420J-21186D01*
G01*
X1095424Y1002500D02*
G03*
X1095666Y1002664I-825J1486D01*
G01*
X1095812Y1002782D02*
G03*
X1095666Y1002664I22804J-28184D01*
G01*
X1095812Y1002782D02*
G03*
X1096431Y1003975I-1077J1315D01*
G01*
X1119911Y1011414D02*
G03*
X1124363Y1013258I0J6297D01*
G01*
X1130576Y1016000D02*
G03*
X1124650Y1013545I0J-8380D01*
G01*
X1147954Y1010791D02*
G03*
X1135380Y1016000I-12574J-12574D01*
G01*
X1159764Y988461D02*
G03*
X1152325Y1006422I-25400J0D01*
G01*
X1057670Y892592D02*
G03*
X1058633Y887257I15262J0D01*
G01*
X1066095Y914928D02*
G03*
X1061457Y908853I20345J-20342D01*
G01*
X1057674Y895059D02*
G03*
X1057670Y894668I19259J-391D01*
G01*
X1061457Y908853D02*
G03*
X1057674Y895059I24983J-14268D01*
G01*
X1079129Y927962D02*
G03*
X1085225Y939591I-15577J15578D01*
G01*
X1085582Y967753D02*
G03*
X1085563Y968018I-2000J-10D01*
G01*
X1085563Y968986D02*
G03*
X1085582Y969251I-1981J275D01*
G01*
X1094805Y997512D02*
G03*
X1091840Y993945I17969J-17952D01*
G01*
X1121309Y1008123D02*
G03*
X1119886Y1008176I-1423J-18978D01*
G01*
D02*
G03*
X1101888Y1003086I0J-34361D01*
G01*
X1085225Y939591D02*
G03*
X1085582Y943540I-21673J3949D01*
G01*
X1085563Y968986D02*
G03*
X1085563Y968018I3335J-484D01*
G01*
X1091827Y993927D02*
G03*
X1085582Y974588I26789J-19329D01*
G01*
X1091827Y993927D02*
G03*
X1091840Y993945I-1629J1160D01*
G01*
X1121309Y1008123D02*
G03*
X1121823Y1008154I136J1995D01*
G01*
X1123139Y1008416D02*
G03*
X1123433Y1008500I-402J1959D01*
G01*
X1123540Y1008539D02*
G03*
X1124219Y1008943I-663J1887D01*
G01*
X1124471Y1009168D02*
G03*
X1124495Y1009189I-1324J1499D01*
G01*
X1125089Y1009676D02*
G03*
X1124495Y1009189I3877J-5329D01*
G01*
X1125089Y1009676D02*
G03*
X1125113Y1009695I-1188J1609D01*
G01*
X1123540Y1008539D02*
G03*
X1123433Y1008500I1092J-3188D01*
G01*
X1142020Y1009835D02*
G03*
X1125113Y1009695I-8361J-11204D01*
G01*
X1124471Y1009168D02*
G03*
X1124219Y1008943I9187J-10537D01*
G01*
X1064260Y892592D02*
G03*
X1066800Y886460I8672J0D01*
G01*
X1071700Y911170D02*
G03*
X1064260Y893210I17960J-17960D01*
G01*
X1061040Y892592D02*
G03*
X1063724Y885066I11892J0D01*
G01*
X1061043Y894981D02*
G03*
X1061040Y894668I15890J-312D01*
G01*
X1068480Y912546D02*
G03*
X1061043Y894981I17960J-17960D01*
G01*
X1081512Y925579D02*
G03*
X1088952Y943540I-17960J17960D01*
G01*
X1103554Y1000154D02*
G03*
X1103570Y1000163I-871J1460D01*
G01*
X1119886Y1004806D02*
G03*
X1103570Y1000163I0J-30991D01*
G01*
X1103554Y1000154D02*
G03*
X1088952Y974598I15062J-25556D01*
G01*
X1121239Y1004747D02*
G03*
X1119886Y1004806I-1353J-15602D01*
G01*
X1121239Y1004747D02*
G03*
X1121366Y1004742I137J1694D01*
G01*
X1122144D02*
G03*
X1124050Y1005031I0J6427D01*
G01*
D02*
G03*
X1124631Y1005350I-512J1621D01*
G01*
X1124631Y1005350D02*
G03*
X1125408Y1005639I-186J1690D01*
G01*
X1142728Y993125D02*
G03*
X1142486Y992259I1458J-875D01*
G01*
X1126138Y1006146D02*
G03*
X1126326Y1006299I-979J1390D01*
G01*
X1126719Y1006657D02*
G03*
X1126326Y1006299I6939J-8026D01*
G01*
X1126719Y1006657D02*
G03*
X1126758Y1006692I-1119J1280D01*
G01*
X1127098Y1006971D02*
G03*
X1127136Y1006999I-998J1377D01*
G01*
X1142728Y993125D02*
G03*
X1127136Y1006999I-9070J5506D01*
G01*
X1127098Y1006971D02*
G03*
X1126758Y1006692I1867J-2623D01*
G01*
X1100047Y993425D02*
G03*
X1092172Y974598I18569J-18827D01*
G01*
X1121077Y1001529D02*
G03*
X1119886Y1001586I-1191J-12384D01*
G01*
X1121077Y1001529D02*
G03*
X1121221Y1001522I153J1693D01*
G01*
X1119886Y1001586D02*
G03*
X1105236Y997408I0J-27771D01*
G01*
X1122144Y1001522D02*
G03*
X1128366Y1003797I0J9647D01*
G01*
X1128875Y1004263D02*
G03*
X1128966Y1004348I-1109J1288D01*
G01*
Y1004348D02*
G03*
X1129066Y1004420I-947J1412D01*
G01*
X1138794Y992969D02*
G03*
X1138486Y990178I12502J-2792D01*
G01*
X1092629Y937486D02*
G03*
X1092628Y937494I-1694J-142D01*
G01*
X1105219Y997397D02*
G03*
X1100047Y993425I13397J-22799D01*
G01*
X1128366Y1003797D02*
G03*
X1128454Y1003876I-1103J1294D01*
G01*
X1128875Y1004263D02*
G03*
X1128454Y1003876I4784J-5633D01*
G01*
X1105219Y997397D02*
G03*
X1105236Y997408I-870J1460D01*
G01*
X1139175Y993713D02*
G03*
X1129066Y1004420I-5517J4917D01*
G01*
X1139175Y993713D02*
G03*
X1138794Y992969I1276J-1124D01*
G01*
X1055929Y853649D02*
G03*
X1055449Y853721I-489J-1628D01*
G01*
X1055929Y853649D02*
G03*
X1058098Y853324I2169J7064D01*
G01*
X1065258Y883271D02*
G03*
X1064528Y884178I-4590J-2943D01*
G01*
X1065524Y882359D02*
G03*
X1065258Y883271I-1700J-2D01*
G01*
X1063724Y885066D02*
G03*
X1064528Y884178I9208J7526D01*
G01*
X1069340Y880328D02*
G03*
X1066800Y886460I-8672J0D01*
G01*
X1142486Y982899D02*
Y992259D01*
X1054246Y811506D02*
X1060779Y814863D01*
X1060296Y809000D02*
X1062586D01*
X1089899Y777884D02*
X1095093Y774446D01*
X1117097Y774446D02*
X1124497Y774443D01*
X1095093Y774446D02*
X1117097D01*
X1130808Y784352D02*
X1132439Y782721D01*
X1132441Y782719D01*
X1057402Y821436D02*
X1057693Y821727D01*
X1053174Y836890D02*
X1053382Y836682D01*
X1053429Y836633D02*
X1062832Y826449D01*
X1012533Y821362D02*
Y830323D01*
X1012190Y853440D02*
X1014681Y853721D01*
X1010587Y853227D02*
X1010625Y853237D01*
X1019741Y838454D02*
X1046364D01*
X1012190Y845646D02*
Y846676D01*
X1012861Y846006D01*
X1012190Y846676D02*
X1012262Y846748D01*
X1021105Y850411D02*
X1055562D01*
X1055562D01*
X1065275Y852899D02*
X1065275D01*
X1065405Y853007D02*
X1066125Y853556D01*
X1055449Y853721D02*
X1055449D01*
X1065524Y872397D02*
Y882359D01*
X1058098Y853324D02*
Y853324D01*
X1082218Y921689D02*
X1082218Y921689D01*
X1092461Y939483D02*
X1092628Y937494D01*
X1067354Y855433D02*
X1067355Y855434D01*
X1092172Y945214D02*
X1092172Y974598D01*
X1092629Y937486D02*
X1092692Y936733D01*
X1092450Y939599D02*
X1092458Y939522D01*
X1069340Y868814D02*
Y880328D01*
X1056699Y862112D02*
X1058098Y860714D01*
X1101814Y1003040D02*
X1101888Y1003086D01*
X1058207Y871254D02*
X1058755Y886484D01*
X1142931Y1009464D02*
X1142932D01*
X1085582Y967753D02*
Y967753D01*
X1065488Y860637D02*
X1065597Y871177D01*
X1096826Y763778D02*
X1127934D01*
X1082362Y967567D02*
Y967567D01*
X1159764Y975632D02*
Y988461D01*
X1150371Y971014D02*
X1154748D01*
X1078756Y932575D02*
X1078756Y932576D01*
X1049274Y880059D02*
Y892139D01*
X1056713Y910100D02*
X1076842Y930229D01*
X1078756Y932576D02*
X1082218Y941861D01*
X1082323Y942336D02*
X1082323D01*
X1082362Y943540D02*
Y967567D01*
Y969437D02*
X1082362Y974579D01*
X1082362Y969437D02*
Y969437D01*
X1094678Y1001939D02*
X1094678Y1001939D01*
X1092539Y999800D02*
X1094678Y1001939D01*
X1114391Y1011414D02*
X1119911D01*
X1124363Y1013258D02*
X1124650Y1013545D01*
X1130576Y1016000D02*
X1135380D01*
X1147954Y1010791D02*
X1152325Y1006422D01*
X1057670Y892592D02*
Y894668D01*
X1057674Y895059D02*
X1057674D01*
X1066095Y914928D02*
X1079129Y927962D01*
X1085582Y943540D02*
Y967753D01*
Y969251D02*
X1085582Y974588D01*
X1085582Y969251D02*
Y969251D01*
X1094805Y997512D02*
X1096966Y999673D01*
X1150371Y975014D02*
Y991504D01*
X1121823Y1008154D02*
X1123139Y1008416D01*
X1064260Y892592D02*
Y893210D01*
X1071700Y911170D02*
X1082218Y921689D01*
X1061040Y892592D02*
Y894668D01*
X1068480Y912546D02*
X1081512Y925579D01*
X1088952Y974598D02*
Y974598D01*
X1088952Y968917D02*
X1088952Y974598D01*
X1088952Y943540D02*
Y968917D01*
X1121366Y1004742D02*
X1122144D01*
X1124631Y1005350D02*
X1124631Y1005350D01*
X1142486Y992259D02*
Y992259D01*
X1125408Y1005639D02*
X1126138Y1006146D01*
X1092172Y974598D02*
Y974598D01*
X1121221Y1001522D02*
X1122144D01*
X1128966Y1004348D02*
Y1004348D01*
X1138486Y982899D02*
Y990178D01*
X1082218Y921689D02*
X1089469Y928939D01*
X1014681Y853721D02*
X1055449D01*
X1066574Y854071D02*
X1067354Y855433D01*
D45*
X1245870Y905156D02*
Y906780D01*
D46*
X1016497Y871338D02*
X1017227D01*
X1013936Y873898D02*
Y874008D01*
X1010610Y877334D02*
Y882176D01*
X1011345Y882911D02*
Y883345D01*
X1013936Y873898D02*
X1016497Y871338D01*
X1010610Y877334D02*
X1013936Y874008D01*
X1010610Y882176D02*
X1011345Y882911D01*
Y883779D01*
X1013170Y892710D02*
X1013270Y892810D01*
X1010185Y889781D02*
X1013114Y892710D01*
X1010185Y884939D02*
Y889781D01*
X1013114Y892710D02*
X1013170D01*
X1010185Y884939D02*
X1011345Y883779D01*
D47*
X1221486Y742442D02*
G03*
X1230884Y751840I0J9398D01*
G01*
X1242748Y745925D02*
G03*
X1250188Y763885I-17960J17960D01*
G01*
X1220871Y734568D02*
G03*
X1238831Y742008I0J25400D01*
G01*
X1072896Y740918D02*
G03*
X1088226Y734568I15330J15330D01*
G01*
X1069340Y749503D02*
G03*
X1072896Y740918I12141J0D01*
G01*
X1069340Y756271D02*
G03*
X1066546Y763016I-9539J0D01*
G01*
X1060264Y778183D02*
G03*
X1066546Y763016I21449J0D01*
G01*
X1094102Y918513D02*
G03*
X1097026Y925576I-7068J7063D01*
G01*
X1094099Y918510D02*
G03*
X1094102Y918513I-7066J7066D01*
G01*
X1095833Y939795D02*
G03*
X1095830Y939830I-2025J-162D01*
G01*
X1095558Y945214D02*
G03*
X1095825Y939886I52968J-19D01*
G01*
X1126298Y995539D02*
G03*
X1119886Y998200I-6412J-6394D01*
G01*
X1101701Y990269D02*
G03*
X1095558Y974598I16915J-15671D01*
G01*
X1129659Y989717D02*
G03*
X1126438Y995398I-11831J-2953D01*
G01*
X1119886Y998200D02*
G03*
X1106994Y994514I0J-24385D01*
G01*
X1130486Y983816D02*
G03*
X1129669Y989677I-21448J0D01*
G01*
X1097026Y925576D02*
G03*
X1097025Y925587I-2025J-170D01*
G01*
X1106963Y994494D02*
G03*
X1101701Y990269I11653J-19897D01*
G01*
X1129659Y989717D02*
G03*
X1129669Y989677I1969J504D01*
G01*
X1106963Y994494D02*
G03*
X1106994Y994514I-1035J1749D01*
G01*
X1238831Y742008D02*
X1242748Y745925D01*
X1088226Y734568D02*
X1220871D01*
X1250188Y763885D02*
Y769874D01*
X1147318Y742442D02*
X1221486D01*
X1069340Y749503D02*
Y756271D01*
X1060264Y778183D02*
Y780112D01*
X1094099Y918510D02*
X1094102Y918513D01*
X1089815Y914226D02*
X1094099Y918510D01*
X1095825Y939886D02*
X1095830Y939830D01*
X1095558Y974598D02*
Y974598D01*
X1095558Y945214D02*
X1095558Y974598D01*
X1126298Y995539D02*
X1126438Y995398D01*
X1130486Y982899D02*
Y983816D01*
X1095833Y939795D02*
X1097025Y925587D01*
D48*
X1130486Y963015D02*
G03*
X1134486Y972671I-9657J9657D01*
G01*
Y982899D01*
D49*
X1082096Y834096D02*
G03*
X1086358Y824113I70968J24396D01*
G01*
X1075198Y840994D02*
X1081611Y834581D01*
X1086358Y819772D02*
Y824113D01*
X1075586Y809000D02*
X1086358Y819772D01*
X1081611Y834581D02*
X1082096Y834096D01*
X1163301Y949152D02*
X1164401Y950252D01*
X1163301Y947282D02*
Y949152D01*
X1158282Y942262D02*
X1163301Y947282D01*
X1158282Y942262D02*
Y942262D01*
D51*
X1021270Y896938D02*
G03*
X1021261Y897123I-1960J0D01*
G01*
X1012270Y901791D02*
G03*
X995393Y884914I0J-16877D01*
G01*
X1030268Y871694D02*
G03*
X1039740Y881166I0J9472D01*
G01*
X1019310Y901577D02*
G03*
X1019096Y901791I-214J0D01*
G01*
X1075198Y840994D02*
Y872719D01*
X1074041Y873876D02*
X1075198Y872719D01*
X1019310Y899699D02*
Y901577D01*
X1021270Y892810D02*
Y896938D01*
X1019310Y899699D02*
X1021261Y897123D01*
X1012270Y901791D02*
X1019096D01*
X995393Y876099D02*
Y884914D01*
X1074041Y873876D02*
Y892313D01*
X1075475Y893747D01*
X1039740Y881166D02*
Y883022D01*
D52*
X1164590Y876063D02*
G03*
X1160781Y879872I-3808J0D01*
G01*
X1158039Y855492D02*
G03*
X1164590Y865268I-4020J9777D01*
G01*
X1136410Y879872D02*
X1160781D01*
X1164590Y865268D02*
Y876063D01*
X1158039Y855492D02*
X1158039D01*
X1158019D02*
X1158039D01*
X1154019Y854697D02*
X1158019Y855492D01*
D57*
X1030986Y905002D02*
D03*
X1032510Y786130D02*
D03*
X1250950Y937514D02*
D03*
D58*
X1175474Y803838D02*
D03*
X1188720Y778510D02*
D03*
D59*
X1230884Y751840D02*
D03*
X1025654Y818942D02*
D03*
X1043366Y819229D02*
D03*
D60*
X1089899Y777884D02*
D03*
X1087628Y767588D02*
D03*
X1124497Y774443D02*
D03*
X1130808Y784352D02*
D03*
X1057402Y821436D02*
D03*
X1075758Y768717D02*
D03*
X1058207Y871254D02*
D03*
X1158282Y942262D02*
D03*
X1168654Y972058D02*
D03*
X1188235Y978754D02*
D03*
X1180782Y1002599D02*
D03*
X1136650Y956056D02*
D03*
X1123188Y967740D02*
D03*
X1087281Y1006292D02*
D03*
X1133659Y998631D02*
D03*
X1118870Y925830D02*
D03*
X1058098Y860714D02*
D03*
X1134505Y880407D02*
D03*
X1116515Y879261D02*
D03*
D61*
X1001184Y824655D02*
D03*
D62*
X1245870Y906780D02*
D03*
D64*
X1117097Y774446D02*
D03*
D65*
X1142486Y982899D02*
D03*
X1138486D02*
D03*
X1134486D02*
D03*
X1130486D02*
D03*
X1126486D02*
D03*
X1122486D02*
D03*
X1118486D02*
D03*
Y943129D02*
D03*
X1122486D02*
D03*
X1126486D02*
D03*
X1130486D02*
D03*
X1134486D02*
D03*
X1138486D02*
D03*
X1142486D02*
D03*
D66*
X1110601Y975014D02*
D03*
Y971014D02*
D03*
Y967014D02*
D03*
Y963015D02*
D03*
Y959015D02*
D03*
Y955014D02*
D03*
Y951014D02*
D03*
X1150371D02*
D03*
Y955014D02*
D03*
Y959015D02*
D03*
Y963015D02*
D03*
Y967014D02*
D03*
Y971014D02*
D03*
D67*
Y975014D02*
D03*
D68*
X1130486Y963015D02*
D03*
D69*
X1069086Y800100D02*
D03*
D70*
X1062586Y791200D02*
D03*
X1069086D02*
D03*
X1075586D02*
D03*
Y809000D02*
D03*
X1069086D02*
D03*
X1062586D02*
D03*
D71*
X1154019Y854697D02*
D03*
D72*
X1112019Y861197D02*
D03*
Y848197D02*
D03*
D73*
X1116293Y876613D02*
D03*
Y898613D02*
D03*
X1136410Y901872D02*
D03*
Y879872D02*
D03*
D74*
X1089815Y914226D02*
D03*
X1075475Y893747D02*
D03*
D75*
X1033922Y872236D02*
D03*
X1017382D02*
D03*
D76*
X1185908Y914748D02*
D03*
X1196408Y896561D02*
D03*
D77*
X1157556Y897097D02*
D03*
X1157556Y883097D02*
D03*
D78*
X1107160Y803952D02*
D03*
X1135660D02*
D03*
D79*
X995393Y868100D02*
D03*
Y876099D02*
D03*
M02*
