G04*
G04 #@! TF.GenerationSoftware,Altium Limited,Altium Designer,23.1.1 (15)*
G04*
G04 Layer_Color=16711935*
%FSLAX44Y44*%
%MOMM*%
G71*
G04*
G04 #@! TF.SameCoordinates,B54EA911-69F6-478F-8CB3-DEBD2400B795*
G04*
G04*
G04 #@! TF.FilePolarity,Positive*
G04*
G01*
G75*
%ADD12C,0.1524*%
%ADD43C,0.1700*%
%ADD86C,0.1000*%
D12*
X1069340Y1010920D02*
Y1011174D01*
X1059180Y949960D02*
X1061720D01*
D43*
X1051814Y720598D02*
G03*
X1055493Y719074I3679J3679D01*
G01*
X1049274Y726730D02*
G03*
X1051814Y720598I8672J0D01*
G01*
X1049274Y741379D02*
G03*
X1042416Y757936I-23415J0D01*
G01*
D02*
G03*
X1034138Y761365I-8278J-8278D01*
G01*
X1016475Y769399D02*
G03*
X1031307Y761365I20929J20929D01*
G01*
X1009650Y785876D02*
G03*
X1016475Y769399I23302J0D01*
G01*
X1009650Y785876D02*
G03*
X1000670Y807556I-30661J0D01*
G01*
X984504Y835914D02*
G03*
X993125Y815101I29434J0D01*
G01*
X992124Y949960D02*
G03*
X984504Y942340I0J-7620D01*
G01*
X1229761Y719074D02*
G03*
X1271016Y760329I0J41255D01*
G01*
Y946658D02*
G03*
X1254760Y962914I-16256J0D01*
G01*
X1216660Y968502D02*
G03*
X1230151Y962914I13491J13491D01*
G01*
X1209802Y985059D02*
G03*
X1216660Y968502I23415J0D01*
G01*
X1209802Y1000395D02*
G03*
X1203796Y1014894I-20505J0D01*
G01*
D02*
G03*
X1182116Y1023874I-21680J-21680D01*
G01*
X1082040D02*
G03*
X1069340Y1011174I0J-12700D01*
G01*
X1061720Y949960D02*
G03*
X1069340Y957580I0J7620D01*
G01*
X1055493Y719074D02*
X1062990D01*
X1049274Y726730D02*
Y741379D01*
X1031307Y761365D02*
X1034138D01*
X993125Y815101D02*
X1000670Y807556D01*
X984504Y835914D02*
Y942340D01*
X992124Y949960D02*
X996732D01*
X1230151Y962914D02*
X1254760D01*
X1209802Y985059D02*
Y1000395D01*
X1167634Y1023874D02*
X1182116D01*
X1271016Y760329D02*
Y946658D01*
X1062990Y719074D02*
X1229761D01*
X1082040Y1023874D02*
X1167634D01*
X1069340Y957580D02*
Y1010920D01*
X996732Y949960D02*
X1059180D01*
D86*
X1050828Y786231D02*
G03*
X1050828Y786231I-17500J0D01*
G01*
X1267956Y937649D02*
G03*
X1267956Y937649I-17500J0D01*
G01*
M02*
