G04*
G04 #@! TF.GenerationSoftware,Altium Limited,Altium Designer,23.1.1 (15)*
G04*
G04 Layer_Color=32896*
%FSLAX44Y44*%
%MOMM*%
G71*
G04*
G04 #@! TF.SameCoordinates,B54EA911-69F6-478F-8CB3-DEBD2400B795*
G04*
G04*
G04 #@! TF.FilePolarity,Positive*
G04*
G01*
G75*
%ADD10C,0.2000*%
%ADD11C,0.2500*%
%ADD13C,0.2540*%
%ADD51C,0.4000*%
%ADD85C,0.1270*%
G36*
X1231942Y885298D02*
X1231619D01*
Y884975D01*
X1231296D01*
Y884652D01*
X1230973D01*
Y884329D01*
X1230650D01*
Y884975D01*
X1230973D01*
Y885298D01*
X1231296D01*
Y885621D01*
X1231942D01*
Y885298D01*
D02*
G37*
G36*
X1236788Y886268D02*
X1238080D01*
Y885945D01*
X1239049D01*
Y885621D01*
X1239695D01*
Y885298D01*
X1240341D01*
Y884975D01*
X1240664D01*
Y884652D01*
X1241310D01*
Y884329D01*
X1241956D01*
Y884006D01*
X1242280D01*
Y883683D01*
X1242602D01*
Y883360D01*
X1243249D01*
Y883037D01*
X1243572D01*
Y882714D01*
X1243895D01*
Y882391D01*
X1244541D01*
Y882068D01*
X1244864D01*
Y881745D01*
X1245510D01*
Y881422D01*
X1245833D01*
Y881099D01*
X1246156D01*
Y880776D01*
X1246802D01*
Y880453D01*
X1247125D01*
Y880130D01*
X1247771D01*
Y879807D01*
X1248094D01*
Y879484D01*
X1248740D01*
Y879161D01*
X1249063D01*
Y878838D01*
X1249710D01*
Y878514D01*
X1250033D01*
Y878191D01*
X1250679D01*
Y877868D01*
X1251325D01*
Y877545D01*
X1251648D01*
Y877222D01*
X1252294D01*
Y876899D01*
X1252940D01*
Y876576D01*
X1253586D01*
Y876253D01*
X1254232D01*
Y875930D01*
X1254878D01*
Y875607D01*
X1257463D01*
Y874638D01*
X1257140D01*
Y873992D01*
X1256817D01*
Y873669D01*
X1256494D01*
Y873346D01*
X1256171D01*
Y873023D01*
X1255847D01*
Y872700D01*
X1255201D01*
Y872377D01*
X1254555D01*
Y872054D01*
X1252617D01*
Y871730D01*
X1251648D01*
Y871407D01*
X1251002D01*
Y871084D01*
X1250033D01*
Y870761D01*
X1249063D01*
Y871084D01*
X1248094D01*
Y870761D01*
X1247125D01*
Y870438D01*
X1246479D01*
Y870115D01*
X1244218D01*
Y869792D01*
X1240664D01*
Y869469D01*
X1238726D01*
Y869146D01*
X1238403D01*
Y868500D01*
X1238080D01*
Y867854D01*
X1237757D01*
Y867531D01*
X1237434D01*
Y867208D01*
X1237111D01*
Y866885D01*
X1236788D01*
Y866562D01*
X1236465D01*
Y866239D01*
X1236142D01*
Y865916D01*
X1235818D01*
Y865593D01*
X1235495D01*
Y862362D01*
X1235172D01*
Y861716D01*
X1234849D01*
Y860747D01*
X1234526D01*
Y860424D01*
X1234203D01*
Y860101D01*
X1233880D01*
Y859455D01*
X1233557D01*
Y859132D01*
X1233234D01*
Y858809D01*
X1232911D01*
Y858485D01*
X1232588D01*
Y858162D01*
X1232265D01*
Y857839D01*
X1231942D01*
Y857516D01*
X1231619D01*
Y856870D01*
X1231942D01*
Y856547D01*
X1232265D01*
Y856224D01*
X1232588D01*
Y855901D01*
X1232911D01*
Y855255D01*
X1233234D01*
Y854932D01*
X1233557D01*
Y854286D01*
X1233880D01*
Y853640D01*
X1234203D01*
Y851378D01*
X1234526D01*
Y850732D01*
X1234203D01*
Y848148D01*
X1233880D01*
Y847502D01*
X1233557D01*
Y846856D01*
X1233234D01*
Y846533D01*
X1232911D01*
Y845887D01*
X1232588D01*
Y845564D01*
X1232265D01*
Y845240D01*
X1231942D01*
Y844917D01*
X1231619D01*
Y844594D01*
X1231296D01*
Y844271D01*
X1230650D01*
Y843948D01*
X1230973D01*
Y843625D01*
X1231296D01*
Y842979D01*
X1231942D01*
Y842333D01*
X1232265D01*
Y842010D01*
X1232588D01*
Y841687D01*
X1232911D01*
Y840395D01*
X1233234D01*
Y836841D01*
X1232911D01*
Y835872D01*
X1232588D01*
Y835226D01*
X1232265D01*
Y834580D01*
X1231942D01*
Y834257D01*
X1231619D01*
Y833934D01*
X1231296D01*
Y833611D01*
X1230973D01*
Y833288D01*
X1230650D01*
Y832965D01*
X1230327D01*
Y832642D01*
X1230004D01*
Y832319D01*
X1229681D01*
Y831673D01*
X1230004D01*
Y831349D01*
X1230327D01*
Y831026D01*
X1230650D01*
Y830057D01*
X1230973D01*
Y829411D01*
X1231296D01*
Y826827D01*
X1230973D01*
Y825858D01*
X1230650D01*
Y825211D01*
X1230327D01*
Y824565D01*
X1230004D01*
Y824242D01*
X1229681D01*
Y823919D01*
X1229358D01*
Y823596D01*
X1229035D01*
Y822950D01*
X1228711D01*
Y822304D01*
X1229035D01*
Y821981D01*
X1229358D01*
Y821335D01*
X1229681D01*
Y820366D01*
X1230004D01*
Y818751D01*
X1229681D01*
Y817458D01*
X1229358D01*
Y816812D01*
X1229035D01*
Y816166D01*
X1228711D01*
Y815843D01*
X1228388D01*
Y815520D01*
X1227742D01*
Y815197D01*
X1226773D01*
Y814874D01*
X1225804D01*
Y811643D01*
X1225481D01*
Y809705D01*
X1224512D01*
Y810351D01*
X1224189D01*
Y814551D01*
X1223866D01*
Y814874D01*
X1222897D01*
Y815197D01*
X1222251D01*
Y815520D01*
X1221927D01*
Y815843D01*
X1221604D01*
Y816166D01*
X1221281D01*
Y816489D01*
X1220958D01*
Y817135D01*
X1220635D01*
Y818427D01*
X1220312D01*
Y821012D01*
X1220635D01*
Y821658D01*
X1220958D01*
Y822304D01*
X1221281D01*
Y822950D01*
X1220958D01*
Y823596D01*
X1220635D01*
Y823919D01*
X1220312D01*
Y824242D01*
X1219989D01*
Y824565D01*
X1219666D01*
Y825535D01*
X1219343D01*
Y826504D01*
X1219020D01*
Y829411D01*
X1219343D01*
Y830057D01*
X1219666D01*
Y830703D01*
X1219989D01*
Y831673D01*
X1219666D01*
Y832319D01*
X1219343D01*
Y832642D01*
X1219020D01*
Y832965D01*
X1218697D01*
Y833611D01*
X1218374D01*
Y833934D01*
X1218051D01*
Y834257D01*
X1217728D01*
Y834903D01*
X1217405D01*
Y835872D01*
X1217082D01*
Y840395D01*
X1217405D01*
Y841041D01*
X1217728D01*
Y841687D01*
X1218051D01*
Y842010D01*
X1218374D01*
Y842656D01*
X1218697D01*
Y842979D01*
X1219020D01*
Y843302D01*
X1219343D01*
Y843948D01*
X1219020D01*
Y844271D01*
X1218697D01*
Y844917D01*
X1218374D01*
Y845240D01*
X1218051D01*
Y845564D01*
X1217728D01*
Y846210D01*
X1217405D01*
Y846856D01*
X1217082D01*
Y847502D01*
X1216759D01*
Y850409D01*
X1216436D01*
Y852671D01*
X1216759D01*
Y854286D01*
X1217082D01*
Y854932D01*
X1217405D01*
Y855255D01*
X1217728D01*
Y855901D01*
X1218051D01*
Y856224D01*
X1218374D01*
Y856547D01*
X1218697D01*
Y857193D01*
X1218374D01*
Y857516D01*
X1218051D01*
Y857839D01*
X1217728D01*
Y858162D01*
X1217405D01*
Y858485D01*
X1217082D01*
Y858809D01*
X1216759D01*
Y859132D01*
X1216436D01*
Y859455D01*
X1216113D01*
Y860101D01*
X1215789D01*
Y860424D01*
X1215467D01*
Y861070D01*
X1215143D01*
Y862039D01*
X1214820D01*
Y865269D01*
X1215143D01*
Y866239D01*
X1214820D01*
Y866562D01*
X1214497D01*
Y866885D01*
X1213851D01*
Y867208D01*
X1213528D01*
Y867854D01*
X1213205D01*
Y868500D01*
X1212882D01*
Y869146D01*
X1212559D01*
Y869792D01*
X1212236D01*
Y870438D01*
X1211267D01*
Y870115D01*
X1210298D01*
Y869792D01*
X1209329D01*
Y870115D01*
X1208359D01*
Y870438D01*
X1207067D01*
Y870761D01*
X1204160D01*
Y871084D01*
X1203514D01*
Y871407D01*
X1202221D01*
Y871730D01*
X1200606D01*
Y872054D01*
X1199960D01*
Y872377D01*
X1199314D01*
Y872700D01*
X1198668D01*
Y873023D01*
X1196730D01*
Y873346D01*
X1195760D01*
Y873669D01*
X1195114D01*
Y873992D01*
X1194468D01*
Y874315D01*
X1194145D01*
Y874638D01*
X1193822D01*
Y874961D01*
X1193176D01*
Y875607D01*
X1194468D01*
Y875930D01*
X1195437D01*
Y876253D01*
X1196084D01*
Y876576D01*
X1196730D01*
Y876899D01*
X1197376D01*
Y877222D01*
X1198022D01*
Y877545D01*
X1198668D01*
Y877868D01*
X1199314D01*
Y878191D01*
X1199960D01*
Y878514D01*
X1200283D01*
Y878838D01*
X1200929D01*
Y879161D01*
X1201252D01*
Y879484D01*
X1201898D01*
Y879807D01*
X1202544D01*
Y880130D01*
X1202868D01*
Y880453D01*
X1203514D01*
Y880776D01*
X1203837D01*
Y881099D01*
X1204160D01*
Y881422D01*
X1204806D01*
Y881745D01*
X1205129D01*
Y882068D01*
X1205775D01*
Y882391D01*
X1206098D01*
Y882714D01*
X1206744D01*
Y883037D01*
X1207067D01*
Y883360D01*
X1207713D01*
Y883683D01*
X1208036D01*
Y884006D01*
X1208682D01*
Y884329D01*
X1209006D01*
Y884652D01*
X1209652D01*
Y884975D01*
X1209975D01*
Y885298D01*
X1210621D01*
Y885621D01*
X1210944D01*
Y885945D01*
X1211913D01*
Y886268D01*
X1212559D01*
Y886591D01*
X1217405D01*
Y886268D01*
X1218051D01*
Y885945D01*
X1218697D01*
Y885621D01*
X1219020D01*
Y885298D01*
X1219343D01*
Y884975D01*
X1219666D01*
Y884652D01*
X1219989D01*
Y884329D01*
X1220312D01*
Y883683D01*
X1220635D01*
Y883037D01*
X1220958D01*
Y880130D01*
X1220635D01*
Y879484D01*
X1220312D01*
Y878838D01*
X1219989D01*
Y878514D01*
X1219666D01*
Y878191D01*
X1219343D01*
Y877222D01*
X1219666D01*
Y876899D01*
X1219989D01*
Y876576D01*
X1220312D01*
Y876253D01*
X1221927D01*
Y876576D01*
X1222573D01*
Y877222D01*
X1222897D01*
Y879807D01*
X1222573D01*
Y881099D01*
X1222251D01*
Y881745D01*
X1221927D01*
Y884652D01*
X1222251D01*
Y885298D01*
X1222573D01*
Y885621D01*
X1222897D01*
Y885945D01*
X1223543D01*
Y886268D01*
X1223866D01*
Y886591D01*
X1226773D01*
Y886268D01*
X1227419D01*
Y885945D01*
X1227742D01*
Y885621D01*
X1228065D01*
Y884975D01*
X1228388D01*
Y884006D01*
X1228711D01*
Y883037D01*
X1228388D01*
Y881745D01*
X1228065D01*
Y881099D01*
X1227742D01*
Y876576D01*
X1230650D01*
Y876899D01*
X1231296D01*
Y877545D01*
X1230973D01*
Y878191D01*
X1230650D01*
Y878514D01*
X1230327D01*
Y879161D01*
X1230004D01*
Y880130D01*
X1229681D01*
Y883037D01*
X1230004D01*
Y883683D01*
X1230327D01*
Y884329D01*
X1230650D01*
Y883360D01*
X1230327D01*
Y880776D01*
X1230650D01*
Y880130D01*
X1230973D01*
Y879484D01*
X1231296D01*
Y879161D01*
X1231619D01*
Y878838D01*
X1231942D01*
Y878514D01*
X1232265D01*
Y878191D01*
X1232588D01*
Y877868D01*
X1232265D01*
Y877222D01*
X1231942D01*
Y876899D01*
X1231619D01*
Y876576D01*
X1231296D01*
Y876253D01*
X1230973D01*
Y875930D01*
X1230327D01*
Y875607D01*
X1228388D01*
Y875930D01*
X1227419D01*
Y871730D01*
X1227742D01*
Y871407D01*
X1228388D01*
Y871084D01*
X1230973D01*
Y871407D01*
X1232265D01*
Y871730D01*
X1232588D01*
Y872054D01*
X1233234D01*
Y872377D01*
X1233557D01*
Y872700D01*
X1233880D01*
Y873023D01*
X1234203D01*
Y873669D01*
X1234526D01*
Y874315D01*
X1234849D01*
Y875607D01*
X1234526D01*
Y875930D01*
X1237757D01*
Y876253D01*
X1238403D01*
Y876576D01*
X1239049D01*
Y876899D01*
X1239372D01*
Y877222D01*
X1239695D01*
Y877545D01*
X1240018D01*
Y878191D01*
X1240341D01*
Y878838D01*
X1240664D01*
Y879807D01*
X1240987D01*
Y881099D01*
X1240664D01*
Y881422D01*
X1241310D01*
Y880776D01*
X1241633D01*
Y880453D01*
X1241956D01*
Y879807D01*
X1242280D01*
Y879484D01*
X1242602D01*
Y879161D01*
X1243249D01*
Y878838D01*
X1243572D01*
Y878514D01*
X1243895D01*
Y878191D01*
X1244218D01*
Y877868D01*
X1244541D01*
Y877545D01*
X1245187D01*
Y877222D01*
X1245510D01*
Y876899D01*
X1245833D01*
Y876576D01*
X1246479D01*
Y876253D01*
X1246802D01*
Y875930D01*
X1247448D01*
Y875607D01*
X1247771D01*
Y875284D01*
X1248417D01*
Y874961D01*
X1249063D01*
Y874638D01*
X1249710D01*
Y874315D01*
X1250356D01*
Y873992D01*
X1251325D01*
Y873669D01*
X1252940D01*
Y873346D01*
X1254878D01*
Y873669D01*
X1255525D01*
Y873992D01*
X1255847D01*
Y874315D01*
X1256171D01*
Y874961D01*
X1255525D01*
Y875284D01*
X1254555D01*
Y875607D01*
X1253586D01*
Y875930D01*
X1252940D01*
Y876253D01*
X1252617D01*
Y876576D01*
X1251971D01*
Y876899D01*
X1251325D01*
Y877222D01*
X1250679D01*
Y877545D01*
X1250033D01*
Y877868D01*
X1249710D01*
Y878191D01*
X1249063D01*
Y878514D01*
X1248417D01*
Y878838D01*
X1248094D01*
Y879161D01*
X1247448D01*
Y879484D01*
X1247125D01*
Y879807D01*
X1246802D01*
Y880130D01*
X1246156D01*
Y880453D01*
X1245833D01*
Y880776D01*
X1245187D01*
Y881099D01*
X1244864D01*
Y881422D01*
X1244218D01*
Y881745D01*
X1243895D01*
Y882068D01*
X1243572D01*
Y882391D01*
X1242926D01*
Y882714D01*
X1242602D01*
Y883037D01*
X1241956D01*
Y883360D01*
X1241633D01*
Y883683D01*
X1240987D01*
Y884006D01*
X1240664D01*
Y884329D01*
X1240018D01*
Y884652D01*
X1239372D01*
Y884975D01*
X1238726D01*
Y885298D01*
X1238080D01*
Y885621D01*
X1237111D01*
Y885945D01*
X1236142D01*
Y886268D01*
X1233557D01*
Y885945D01*
X1232588D01*
Y885621D01*
X1231942D01*
Y885945D01*
X1232265D01*
Y886268D01*
X1233234D01*
Y886591D01*
X1236788D01*
Y886268D01*
D02*
G37*
G36*
X1031750Y924495D02*
Y924437D01*
X1031736Y924349D01*
Y924232D01*
X1031721Y924086D01*
Y923910D01*
X1031706Y923720D01*
Y923515D01*
Y923486D01*
Y923427D01*
Y923310D01*
Y923179D01*
X1031692Y923032D01*
Y922857D01*
Y922520D01*
Y918731D01*
Y918716D01*
Y918687D01*
Y918643D01*
X1031706Y918599D01*
X1031736Y918453D01*
X1031780Y918321D01*
X1031794Y918292D01*
X1031853Y918234D01*
X1031941Y918146D01*
X1032072Y918073D01*
X1032087D01*
X1032102Y918058D01*
X1032145Y918043D01*
X1032204Y918014D01*
X1032277Y917999D01*
X1032380Y917970D01*
X1032497Y917941D01*
X1032628Y917912D01*
X1032643D01*
X1032687Y917897D01*
X1032760D01*
X1032848Y917882D01*
X1033038Y917868D01*
X1033140Y917853D01*
X1033214D01*
Y917370D01*
X1027903D01*
Y917853D01*
X1028049D01*
X1028137Y917868D01*
X1028239D01*
X1028371Y917882D01*
X1028517Y917897D01*
X1028532D01*
X1028590Y917912D01*
X1028663Y917926D01*
X1028751Y917941D01*
X1028941Y917970D01*
X1029015Y917999D01*
X1029088Y918014D01*
X1029102D01*
X1029117Y918029D01*
X1029205Y918058D01*
X1029293Y918131D01*
X1029395Y918234D01*
Y918248D01*
X1029410Y918263D01*
X1029454Y918351D01*
X1029497Y918482D01*
X1029512Y918658D01*
Y922769D01*
X1027873D01*
Y923383D01*
X1028429D01*
X1028561Y923398D01*
X1028707Y923413D01*
X1028868Y923427D01*
X1029190Y923501D01*
X1029205D01*
X1029263Y923515D01*
X1029336Y923544D01*
X1029424Y923588D01*
X1029658Y923676D01*
X1029878Y923793D01*
X1029892Y923808D01*
X1029922Y923822D01*
X1029980Y923866D01*
X1030039Y923910D01*
X1030185Y924027D01*
X1030331Y924159D01*
X1030346Y924174D01*
X1030361Y924188D01*
X1030434Y924276D01*
X1030521Y924393D01*
X1030609Y924510D01*
X1031750D01*
Y924495D01*
D02*
G37*
G36*
X1021714Y926485D02*
X1021933Y926470D01*
X1022182Y926456D01*
X1022460Y926412D01*
X1022767Y926368D01*
X1023089Y926295D01*
X1023104D01*
X1023133Y926280D01*
X1023177Y926266D01*
X1023235Y926251D01*
X1023323Y926236D01*
X1023411Y926207D01*
X1023645Y926119D01*
X1023894Y926017D01*
X1024186Y925900D01*
X1024494Y925739D01*
X1024801Y925549D01*
X1024816D01*
X1024845Y925519D01*
X1024889Y925490D01*
X1024933Y925446D01*
X1025094Y925329D01*
X1025284Y925168D01*
X1025503Y924949D01*
X1025723Y924700D01*
X1025942Y924408D01*
X1026147Y924086D01*
Y924071D01*
X1026176Y924042D01*
X1026191Y923998D01*
X1026235Y923925D01*
X1026264Y923837D01*
X1026308Y923735D01*
X1026367Y923603D01*
X1026410Y923471D01*
X1026454Y923310D01*
X1026513Y923149D01*
X1026586Y922769D01*
X1026644Y922330D01*
X1026674Y921862D01*
Y921847D01*
Y921818D01*
Y921745D01*
Y921672D01*
X1026659Y921569D01*
X1026644Y921452D01*
X1026615Y921174D01*
X1026557Y920867D01*
X1026484Y920516D01*
X1026367Y920179D01*
X1026206Y919843D01*
Y919828D01*
X1026191Y919799D01*
X1026162Y919755D01*
X1026118Y919697D01*
X1026015Y919550D01*
X1025884Y919345D01*
X1025708Y919126D01*
X1025503Y918892D01*
X1025269Y918658D01*
X1024991Y918438D01*
X1024977D01*
X1024962Y918409D01*
X1024918Y918380D01*
X1024859Y918351D01*
X1024786Y918307D01*
X1024699Y918248D01*
X1024479Y918131D01*
X1024216Y917999D01*
X1023923Y917868D01*
X1023587Y917751D01*
X1023235Y917634D01*
X1023221D01*
X1023192Y917619D01*
X1023133Y917605D01*
X1023060Y917590D01*
X1022972Y917575D01*
X1022870Y917546D01*
X1022753Y917531D01*
X1022606Y917502D01*
X1022299Y917458D01*
X1021948Y917414D01*
X1021568Y917385D01*
X1021173Y917370D01*
X1016579D01*
Y917868D01*
X1016725D01*
X1016886Y917882D01*
X1017091Y917897D01*
X1017135D01*
X1017193Y917912D01*
X1017252D01*
X1017398Y917941D01*
X1017457Y917956D01*
X1017500Y917970D01*
X1017515D01*
X1017544Y917985D01*
X1017632Y918043D01*
X1017735Y918131D01*
X1017822Y918234D01*
Y918248D01*
X1017837Y918263D01*
X1017881Y918351D01*
X1017910Y918468D01*
X1017925Y918629D01*
Y925110D01*
Y925125D01*
Y925154D01*
X1017910Y925241D01*
X1017895Y925373D01*
X1017837Y925505D01*
Y925519D01*
X1017822Y925534D01*
X1017764Y925607D01*
X1017661Y925710D01*
X1017588Y925754D01*
X1017500Y925798D01*
X1017486D01*
X1017457Y925812D01*
X1017413Y925827D01*
X1017354Y925856D01*
X1017193Y925900D01*
X1016988Y925944D01*
X1016974D01*
X1016945Y925958D01*
X1016901D01*
X1016842Y925973D01*
X1016710Y925988D01*
X1016579Y926002D01*
Y926500D01*
X1021553D01*
X1021714Y926485D01*
D02*
G37*
G36*
X1012658D02*
X1012804D01*
X1012980Y926470D01*
X1013170Y926456D01*
X1013375Y926427D01*
X1013799Y926368D01*
X1014238Y926266D01*
X1014662Y926119D01*
X1014852Y926032D01*
X1015028Y925929D01*
X1015042D01*
X1015072Y925900D01*
X1015116Y925871D01*
X1015160Y925827D01*
X1015306Y925695D01*
X1015467Y925505D01*
X1015628Y925271D01*
X1015774Y924978D01*
X1015818Y924803D01*
X1015862Y924627D01*
X1015891Y924422D01*
X1015906Y924217D01*
Y924203D01*
Y924188D01*
Y924144D01*
Y924086D01*
X1015891Y923939D01*
X1015862Y923764D01*
X1015833Y923559D01*
X1015774Y923325D01*
X1015686Y923105D01*
X1015584Y922886D01*
X1015569Y922857D01*
X1015525Y922798D01*
X1015452Y922696D01*
X1015350Y922564D01*
X1015233Y922418D01*
X1015072Y922272D01*
X1014911Y922125D01*
X1014706Y921979D01*
X1014677Y921964D01*
X1014604Y921920D01*
X1014487Y921862D01*
X1014326Y921774D01*
X1014121Y921686D01*
X1013901Y921599D01*
X1013653Y921525D01*
X1013375Y921452D01*
X1013345D01*
X1013301Y921438D01*
X1013243Y921423D01*
X1013097Y921408D01*
X1012892Y921379D01*
X1012643Y921350D01*
X1012350Y921335D01*
X1012043Y921306D01*
X1010961D01*
Y918731D01*
Y918716D01*
Y918687D01*
Y918643D01*
X1010975Y918599D01*
X1011004Y918453D01*
X1011048Y918321D01*
X1011063Y918292D01*
X1011122Y918219D01*
X1011224Y918131D01*
X1011297Y918087D01*
X1011385Y918043D01*
X1011414D01*
X1011487Y918014D01*
X1011531Y917999D01*
X1011604Y917985D01*
X1011692Y917956D01*
X1011795Y917941D01*
X1011809D01*
X1011853Y917926D01*
X1011897D01*
X1011970Y917912D01*
X1012146Y917882D01*
X1012307Y917868D01*
Y917370D01*
X1007332D01*
Y917868D01*
X1007405D01*
X1007464Y917882D01*
X1007610Y917897D01*
X1007815Y917912D01*
X1007830D01*
X1007874Y917926D01*
X1007917D01*
X1007991Y917941D01*
X1008137Y917970D01*
X1008195Y917985D01*
X1008254Y917999D01*
X1008269D01*
X1008298Y918014D01*
X1008386Y918073D01*
X1008503Y918146D01*
X1008547Y918190D01*
X1008590Y918248D01*
X1008605Y918278D01*
X1008634Y918351D01*
X1008664Y918482D01*
X1008678Y918672D01*
Y925110D01*
Y925125D01*
Y925154D01*
Y925198D01*
X1008664Y925241D01*
X1008649Y925373D01*
X1008590Y925505D01*
Y925519D01*
X1008576Y925534D01*
X1008517Y925607D01*
X1008474Y925651D01*
X1008415Y925695D01*
X1008342Y925739D01*
X1008254Y925783D01*
X1008239D01*
X1008225Y925798D01*
X1008181Y925812D01*
X1008122Y925827D01*
X1007976Y925871D01*
X1007771Y925915D01*
X1007757D01*
X1007727Y925929D01*
X1007669D01*
X1007610Y925944D01*
X1007464Y925973D01*
X1007332Y926002D01*
Y926500D01*
X1012541D01*
X1012658Y926485D01*
D02*
G37*
G36*
X1040631Y922535D02*
X1035671D01*
X1035393Y920414D01*
X1035408Y920428D01*
X1035452Y920443D01*
X1035540Y920487D01*
X1035642Y920545D01*
X1035759Y920604D01*
X1035920Y920677D01*
X1036096Y920750D01*
X1036286Y920823D01*
X1036315Y920838D01*
X1036388Y920852D01*
X1036491Y920882D01*
X1036652Y920926D01*
X1036842Y920969D01*
X1037061Y920999D01*
X1037310Y921013D01*
X1037573Y921028D01*
X1037778D01*
X1037924Y921013D01*
X1038100Y920999D01*
X1038290Y920969D01*
X1038700Y920896D01*
X1038729D01*
X1038802Y920867D01*
X1038905Y920838D01*
X1039051Y920794D01*
X1039212Y920721D01*
X1039388Y920648D01*
X1039592Y920545D01*
X1039782Y920428D01*
X1039797Y920414D01*
X1039870Y920370D01*
X1039958Y920296D01*
X1040061Y920194D01*
X1040192Y920077D01*
X1040324Y919916D01*
X1040455Y919755D01*
X1040587Y919550D01*
X1040602Y919521D01*
X1040646Y919448D01*
X1040690Y919331D01*
X1040763Y919184D01*
X1040821Y918980D01*
X1040865Y918760D01*
X1040909Y918497D01*
X1040924Y918204D01*
Y918190D01*
Y918146D01*
Y918073D01*
X1040909Y917970D01*
X1040894Y917853D01*
X1040865Y917707D01*
X1040836Y917561D01*
X1040792Y917385D01*
X1040733Y917209D01*
X1040660Y917034D01*
X1040573Y916829D01*
X1040455Y916639D01*
X1040339Y916449D01*
X1040192Y916258D01*
X1040017Y916083D01*
X1039826Y915907D01*
X1039812Y915893D01*
X1039782Y915863D01*
X1039709Y915820D01*
X1039622Y915761D01*
X1039519Y915703D01*
X1039388Y915615D01*
X1039241Y915542D01*
X1039066Y915454D01*
X1038875Y915366D01*
X1038656Y915293D01*
X1038422Y915205D01*
X1038173Y915147D01*
X1037910Y915088D01*
X1037632Y915044D01*
X1037325Y915015D01*
X1037017Y915000D01*
X1036886D01*
X1036798Y915015D01*
X1036681D01*
X1036549Y915030D01*
X1036403Y915044D01*
X1036257Y915073D01*
X1035906Y915147D01*
X1035540Y915234D01*
X1035174Y915381D01*
X1034823Y915571D01*
X1034808D01*
X1034779Y915600D01*
X1034735Y915629D01*
X1034691Y915673D01*
X1034545Y915790D01*
X1034384Y915951D01*
X1034223Y916156D01*
X1034077Y916376D01*
X1034033Y916507D01*
X1033989Y916639D01*
X1033960Y916770D01*
X1033945Y916917D01*
Y916932D01*
Y916990D01*
X1033960Y917078D01*
X1033974Y917180D01*
X1034018Y917297D01*
X1034062Y917429D01*
X1034135Y917561D01*
X1034223Y917678D01*
X1034238Y917692D01*
X1034281Y917721D01*
X1034340Y917780D01*
X1034428Y917839D01*
X1034545Y917897D01*
X1034677Y917956D01*
X1034837Y917985D01*
X1035013Y917999D01*
X1035101D01*
X1035189Y917985D01*
X1035306Y917970D01*
X1035437Y917926D01*
X1035569Y917882D01*
X1035701Y917809D01*
X1035832Y917721D01*
X1035847Y917707D01*
X1035891Y917678D01*
X1035935Y917605D01*
X1036008Y917531D01*
X1036066Y917414D01*
X1036110Y917297D01*
X1036154Y917151D01*
X1036169Y916990D01*
Y916975D01*
Y916932D01*
Y916873D01*
X1036154Y916785D01*
X1036140Y916683D01*
X1036125Y916566D01*
X1036052Y916288D01*
Y916273D01*
X1036037Y916229D01*
X1036022Y916156D01*
X1035993Y916068D01*
X1035935Y915878D01*
X1035906Y915790D01*
X1035876Y915703D01*
X1035906Y915688D01*
X1035979Y915673D01*
X1036081Y915644D01*
X1036227Y915615D01*
X1036271D01*
X1036359Y915600D01*
X1036491Y915585D01*
X1036681D01*
X1036754Y915600D01*
X1036856Y915615D01*
X1036959Y915629D01*
X1037076Y915659D01*
X1037208Y915703D01*
X1037339Y915761D01*
X1037354Y915776D01*
X1037398Y915790D01*
X1037471Y915834D01*
X1037544Y915878D01*
X1037646Y915951D01*
X1037734Y916039D01*
X1037837Y916127D01*
X1037939Y916244D01*
X1037954Y916258D01*
X1037983Y916302D01*
X1038042Y916376D01*
X1038100Y916478D01*
X1038173Y916610D01*
X1038246Y916756D01*
X1038319Y916917D01*
X1038378Y917092D01*
X1038393Y917122D01*
X1038407Y917180D01*
X1038437Y917283D01*
X1038466Y917414D01*
X1038495Y917575D01*
X1038510Y917765D01*
X1038539Y917970D01*
Y918204D01*
Y918219D01*
Y918248D01*
Y918292D01*
Y918351D01*
X1038510Y918526D01*
X1038480Y918731D01*
X1038422Y918965D01*
X1038334Y919214D01*
X1038202Y919463D01*
X1038042Y919697D01*
X1038027Y919726D01*
X1037954Y919784D01*
X1037851Y919887D01*
X1037705Y919989D01*
X1037529Y920092D01*
X1037310Y920194D01*
X1037076Y920253D01*
X1036798Y920282D01*
X1036695D01*
X1036593Y920267D01*
X1036447Y920253D01*
X1036286Y920223D01*
X1036125Y920179D01*
X1035949Y920121D01*
X1035788Y920033D01*
X1035774Y920018D01*
X1035715Y919989D01*
X1035642Y919931D01*
X1035540Y919857D01*
X1035437Y919770D01*
X1035306Y919667D01*
X1035174Y919536D01*
X1035057Y919404D01*
X1034574Y919565D01*
X1035203Y924305D01*
X1040631D01*
Y922535D01*
D02*
G37*
%LPC*%
G36*
X1225804Y885945D02*
X1224189D01*
Y885621D01*
X1223543D01*
Y885298D01*
X1223220D01*
Y884975D01*
X1222897D01*
Y884652D01*
X1222573D01*
Y882068D01*
X1222897D01*
Y881745D01*
X1223220D01*
Y881422D01*
X1223543D01*
Y881099D01*
X1223866D01*
Y880776D01*
X1224512D01*
Y880453D01*
X1225804D01*
Y880776D01*
X1226773D01*
Y881099D01*
X1227096D01*
Y881422D01*
X1227419D01*
Y882068D01*
X1227742D01*
Y883037D01*
X1228065D01*
Y883683D01*
X1227742D01*
Y884652D01*
X1227419D01*
Y884975D01*
X1227096D01*
Y885298D01*
X1226773D01*
Y885621D01*
X1225804D01*
Y885945D01*
D02*
G37*
G36*
X1209006Y879484D02*
X1208682D01*
Y879161D01*
X1208359D01*
Y878838D01*
X1208036D01*
Y878514D01*
X1207390D01*
Y878191D01*
X1207067D01*
Y877868D01*
X1206744D01*
Y877545D01*
X1206098D01*
Y877222D01*
X1205775D01*
Y876899D01*
X1205452D01*
Y876576D01*
X1204806D01*
Y876253D01*
X1204483D01*
Y875930D01*
X1204160D01*
Y875607D01*
X1203514D01*
Y875284D01*
X1203191D01*
Y874961D01*
X1202544D01*
Y874638D01*
X1201898D01*
Y874315D01*
X1201252D01*
Y873992D01*
X1200929D01*
Y873669D01*
X1199960D01*
Y873346D01*
X1199637D01*
Y873023D01*
X1199960D01*
Y872700D01*
X1203191D01*
Y873023D01*
X1203837D01*
Y873346D01*
X1204483D01*
Y873669D01*
X1205129D01*
Y873992D01*
X1205452D01*
Y874315D01*
X1206098D01*
Y874638D01*
X1206421D01*
Y874961D01*
X1207067D01*
Y875284D01*
X1207390D01*
Y875607D01*
X1208036D01*
Y875930D01*
X1208359D01*
Y876253D01*
X1209006D01*
Y876576D01*
X1209329D01*
Y876899D01*
X1209652D01*
Y877222D01*
X1209975D01*
Y877545D01*
X1209652D01*
Y878514D01*
X1209329D01*
Y879161D01*
X1209006D01*
Y879484D01*
D02*
G37*
G36*
X1242280Y878514D02*
X1241310D01*
Y876899D01*
X1241633D01*
Y876253D01*
X1241956D01*
Y875930D01*
X1242280D01*
Y875607D01*
X1242602D01*
Y875284D01*
X1243249D01*
Y874961D01*
X1243572D01*
Y874638D01*
X1243895D01*
Y874315D01*
X1244218D01*
Y873992D01*
X1244864D01*
Y873669D01*
X1245187D01*
Y873346D01*
X1245833D01*
Y873023D01*
X1246479D01*
Y872700D01*
X1247125D01*
Y872377D01*
X1247771D01*
Y872054D01*
X1249387D01*
Y871730D01*
X1249710D01*
Y872054D01*
X1250356D01*
Y872700D01*
X1250033D01*
Y873023D01*
X1249710D01*
Y873346D01*
X1249063D01*
Y873669D01*
X1248417D01*
Y873992D01*
X1248094D01*
Y874315D01*
X1247448D01*
Y874638D01*
X1247125D01*
Y874961D01*
X1246479D01*
Y875284D01*
X1246156D01*
Y875607D01*
X1245510D01*
Y875930D01*
X1245187D01*
Y876253D01*
X1244864D01*
Y876576D01*
X1244218D01*
Y876899D01*
X1243895D01*
Y877222D01*
X1243572D01*
Y877545D01*
X1243249D01*
Y877868D01*
X1242926D01*
Y878191D01*
X1242280D01*
Y878514D01*
D02*
G37*
G36*
X1210944Y876576D02*
X1209975D01*
Y876253D01*
X1209329D01*
Y875930D01*
X1209006D01*
Y875607D01*
X1208682D01*
Y875284D01*
X1208359D01*
Y874961D01*
X1208036D01*
Y874638D01*
X1207713D01*
Y874315D01*
X1207067D01*
Y873992D01*
X1206744D01*
Y873669D01*
X1206421D01*
Y873346D01*
X1205775D01*
Y873023D01*
X1205452D01*
Y872700D01*
X1204806D01*
Y872377D01*
X1204160D01*
Y872054D01*
X1203837D01*
Y871407D01*
X1206421D01*
Y871730D01*
X1207390D01*
Y872054D01*
X1207713D01*
Y872377D01*
X1208359D01*
Y872700D01*
X1208682D01*
Y873023D01*
X1209329D01*
Y873346D01*
X1209652D01*
Y873669D01*
X1210298D01*
Y873992D01*
X1210621D01*
Y874315D01*
X1210944D01*
Y874638D01*
X1211267D01*
Y874961D01*
X1211913D01*
Y875607D01*
X1211590D01*
Y875930D01*
X1211267D01*
Y876253D01*
X1210944D01*
Y876576D01*
D02*
G37*
G36*
X1240664Y876253D02*
X1240018D01*
Y875930D01*
X1239695D01*
Y875607D01*
X1239372D01*
Y875284D01*
X1239049D01*
Y874638D01*
X1239372D01*
Y874315D01*
X1239695D01*
Y873992D01*
X1240018D01*
Y873669D01*
X1240341D01*
Y873346D01*
X1240664D01*
Y873023D01*
X1240987D01*
Y872700D01*
X1241633D01*
Y872377D01*
X1241956D01*
Y872054D01*
X1242602D01*
Y871730D01*
X1243249D01*
Y871407D01*
X1244218D01*
Y871084D01*
X1246479D01*
Y871730D01*
X1246156D01*
Y872054D01*
X1245510D01*
Y872377D01*
X1244864D01*
Y872700D01*
X1244541D01*
Y873023D01*
X1244218D01*
Y873346D01*
X1243572D01*
Y873669D01*
X1243249D01*
Y873992D01*
X1242926D01*
Y874315D01*
X1242280D01*
Y874638D01*
X1241956D01*
Y874961D01*
X1241633D01*
Y875284D01*
X1241310D01*
Y875607D01*
X1240987D01*
Y875930D01*
X1240664D01*
Y876253D01*
D02*
G37*
G36*
X1217082Y885945D02*
X1212882D01*
Y885621D01*
X1212236D01*
Y885298D01*
X1211590D01*
Y884975D01*
X1210944D01*
Y884652D01*
X1210298D01*
Y884329D01*
X1209652D01*
Y884006D01*
X1209006D01*
Y883683D01*
X1208682D01*
Y883360D01*
X1208359D01*
Y883037D01*
X1207713D01*
Y882714D01*
X1207390D01*
Y882391D01*
X1206744D01*
Y882068D01*
X1206421D01*
Y881745D01*
X1205775D01*
Y881422D01*
X1205452D01*
Y881099D01*
X1204806D01*
Y880776D01*
X1204483D01*
Y880453D01*
X1204160D01*
Y880130D01*
X1203514D01*
Y879807D01*
X1203191D01*
Y879484D01*
X1202544D01*
Y879161D01*
X1201898D01*
Y878838D01*
X1201575D01*
Y878514D01*
X1200929D01*
Y878191D01*
X1200606D01*
Y877868D01*
X1199960D01*
Y877545D01*
X1199314D01*
Y877222D01*
X1198668D01*
Y876899D01*
X1198022D01*
Y876576D01*
X1197699D01*
Y876253D01*
X1196730D01*
Y875930D01*
X1196084D01*
Y875607D01*
X1195437D01*
Y875284D01*
X1194791D01*
Y874961D01*
X1194468D01*
Y874638D01*
X1194791D01*
Y874315D01*
X1195760D01*
Y873992D01*
X1198345D01*
Y874315D01*
X1199314D01*
Y874638D01*
X1199960D01*
Y874961D01*
X1200606D01*
Y875284D01*
X1201252D01*
Y875607D01*
X1201898D01*
Y875930D01*
X1202544D01*
Y876253D01*
X1202868D01*
Y876576D01*
X1203514D01*
Y876899D01*
X1203837D01*
Y877222D01*
X1204483D01*
Y877545D01*
X1205129D01*
Y877868D01*
X1205452D01*
Y878191D01*
X1206098D01*
Y878514D01*
X1206421D01*
Y878838D01*
X1207067D01*
Y879161D01*
X1207390D01*
Y879484D01*
X1207713D01*
Y879807D01*
X1208359D01*
Y880130D01*
X1208682D01*
Y880453D01*
X1209006D01*
Y880776D01*
X1209329D01*
Y881099D01*
X1209652D01*
Y881745D01*
X1209975D01*
Y881422D01*
X1210298D01*
Y879161D01*
X1210621D01*
Y878514D01*
X1210944D01*
Y877868D01*
X1211267D01*
Y877545D01*
X1211590D01*
Y877222D01*
X1211913D01*
Y876899D01*
X1212236D01*
Y876576D01*
X1212882D01*
Y876253D01*
X1213205D01*
Y875930D01*
X1214820D01*
Y875607D01*
X1216113D01*
Y875284D01*
X1215789D01*
Y873669D01*
X1216113D01*
Y873023D01*
X1216436D01*
Y872700D01*
X1216759D01*
Y872377D01*
X1217082D01*
Y872054D01*
X1217405D01*
Y871730D01*
X1217728D01*
Y871407D01*
X1218374D01*
Y871084D01*
X1219343D01*
Y870761D01*
X1221927D01*
Y871084D01*
X1222573D01*
Y871730D01*
X1222897D01*
Y875607D01*
Y875930D01*
X1222251D01*
Y875607D01*
X1219989D01*
Y875930D01*
X1219666D01*
Y876253D01*
X1219343D01*
Y876576D01*
X1219020D01*
Y876899D01*
X1218697D01*
Y877222D01*
X1218374D01*
Y877868D01*
X1218051D01*
Y878514D01*
X1218374D01*
Y878838D01*
X1218697D01*
Y879161D01*
X1219020D01*
Y879484D01*
X1219343D01*
Y879807D01*
X1219666D01*
Y880453D01*
X1219989D01*
Y881099D01*
X1220312D01*
Y883360D01*
X1219989D01*
Y884006D01*
X1219666D01*
Y884329D01*
X1219343D01*
Y884652D01*
X1219020D01*
Y884975D01*
X1218697D01*
Y885298D01*
X1218051D01*
Y885621D01*
X1217082D01*
Y885945D01*
D02*
G37*
G36*
X1213528Y875284D02*
X1212559D01*
Y874961D01*
X1212236D01*
Y874638D01*
X1211913D01*
Y874315D01*
X1211590D01*
Y873992D01*
X1211267D01*
Y873669D01*
X1210944D01*
Y873346D01*
X1210621D01*
Y873023D01*
X1210298D01*
Y872700D01*
X1209975D01*
Y872377D01*
X1209652D01*
Y872054D01*
X1209329D01*
Y871730D01*
X1208682D01*
Y871407D01*
X1208359D01*
Y871084D01*
X1208682D01*
Y870761D01*
X1209975D01*
Y871084D01*
X1210944D01*
Y871407D01*
X1211590D01*
Y871730D01*
X1212236D01*
Y872054D01*
X1212559D01*
Y872377D01*
X1212882D01*
Y872700D01*
X1213205D01*
Y873023D01*
X1213528D01*
Y873346D01*
X1213851D01*
Y873669D01*
X1214174D01*
Y873992D01*
X1214497D01*
Y874315D01*
Y874638D01*
Y874961D01*
X1213528D01*
Y875284D01*
D02*
G37*
G36*
X1238080Y874961D02*
X1236142D01*
Y873346D01*
X1236465D01*
Y873023D01*
X1236788D01*
Y872700D01*
X1237111D01*
Y872377D01*
X1237434D01*
Y872054D01*
X1237757D01*
Y871730D01*
X1238080D01*
Y871407D01*
X1238726D01*
Y871084D01*
X1239049D01*
Y870761D01*
X1240018D01*
Y870438D01*
X1241310D01*
Y870761D01*
X1241633D01*
Y871084D01*
X1241310D01*
Y871407D01*
X1240664D01*
Y871730D01*
X1240341D01*
Y872054D01*
X1240018D01*
Y872377D01*
X1239695D01*
Y873023D01*
X1239372D01*
Y873346D01*
X1239049D01*
Y873669D01*
X1238726D01*
Y873992D01*
X1238403D01*
Y874638D01*
X1238080D01*
Y874961D01*
D02*
G37*
G36*
X1235818Y872377D02*
X1234849D01*
Y872054D01*
X1234526D01*
Y871730D01*
X1234203D01*
Y871407D01*
X1233880D01*
Y871084D01*
X1233557D01*
Y870761D01*
X1232911D01*
Y870438D01*
X1232265D01*
Y870115D01*
X1230973D01*
Y869792D01*
X1228065D01*
Y870115D01*
X1227742D01*
Y869792D01*
X1227419D01*
Y868823D01*
X1227742D01*
Y868500D01*
X1228388D01*
Y868823D01*
X1231942D01*
Y868500D01*
X1232588D01*
Y868177D01*
X1233234D01*
Y867854D01*
X1233880D01*
Y867531D01*
X1234203D01*
Y867208D01*
X1234849D01*
Y866885D01*
X1235172D01*
Y867208D01*
X1235495D01*
Y867531D01*
X1236142D01*
Y867854D01*
X1236465D01*
Y868177D01*
X1236788D01*
Y868823D01*
X1237111D01*
Y869146D01*
X1237434D01*
Y869469D01*
X1237757D01*
Y870438D01*
X1237434D01*
Y870761D01*
X1237111D01*
Y871084D01*
X1236788D01*
Y871407D01*
X1236465D01*
Y871730D01*
X1236142D01*
Y872054D01*
X1235818D01*
Y872377D01*
D02*
G37*
G36*
X1215143Y873023D02*
X1214497D01*
Y872700D01*
X1214174D01*
Y872377D01*
X1213851D01*
Y872054D01*
X1213528D01*
Y871730D01*
X1213205D01*
Y871084D01*
X1212882D01*
Y870115D01*
X1213205D01*
Y869792D01*
X1213528D01*
Y869146D01*
X1213851D01*
Y868823D01*
X1214174D01*
Y868500D01*
X1214497D01*
Y868177D01*
X1214820D01*
Y867854D01*
X1215143D01*
Y867531D01*
X1215789D01*
Y867208D01*
X1216436D01*
Y867531D01*
X1216759D01*
Y867854D01*
X1217082D01*
Y868177D01*
X1217728D01*
Y868500D01*
X1218374D01*
Y868823D01*
X1221604D01*
Y868500D01*
X1222897D01*
Y869792D01*
X1219020D01*
Y870115D01*
X1218051D01*
Y870438D01*
X1217728D01*
Y870761D01*
X1217082D01*
Y871084D01*
X1216759D01*
Y871407D01*
X1216436D01*
Y871730D01*
X1216113D01*
Y872054D01*
X1215789D01*
Y872377D01*
X1215467D01*
Y872700D01*
X1215143D01*
Y873023D01*
D02*
G37*
G36*
X1220958Y868500D02*
X1219666D01*
Y868177D01*
X1218374D01*
Y867854D01*
X1217728D01*
Y867531D01*
X1217082D01*
Y867208D01*
X1216759D01*
Y866885D01*
X1216436D01*
Y866562D01*
X1216113D01*
Y866239D01*
X1215789D01*
Y865593D01*
X1215467D01*
Y864300D01*
X1215143D01*
Y863331D01*
X1215467D01*
Y862039D01*
X1215789D01*
Y861393D01*
X1216113D01*
Y861070D01*
X1216436D01*
Y860747D01*
X1216759D01*
Y860101D01*
X1217082D01*
Y859778D01*
X1217728D01*
Y859455D01*
X1218051D01*
Y859132D01*
X1218374D01*
Y858809D01*
X1219020D01*
Y858485D01*
X1219666D01*
Y858162D01*
X1219989D01*
Y857839D01*
X1220635D01*
Y857516D01*
X1221281D01*
Y857193D01*
X1221927D01*
Y856870D01*
X1222573D01*
Y856547D01*
X1223543D01*
Y856224D01*
X1224189D01*
Y855901D01*
X1224835D01*
Y855578D01*
X1225481D01*
Y855255D01*
X1226127D01*
Y854932D01*
X1226773D01*
Y854609D01*
X1227096D01*
Y854286D01*
X1227742D01*
Y853963D01*
X1228065D01*
Y853640D01*
X1228388D01*
Y852994D01*
X1228711D01*
Y852671D01*
X1229035D01*
Y850409D01*
X1228711D01*
Y850086D01*
Y849763D01*
X1228388D01*
Y849117D01*
X1228065D01*
Y848794D01*
X1227742D01*
Y848471D01*
X1227419D01*
Y847825D01*
X1227096D01*
Y847502D01*
X1226773D01*
Y846533D01*
X1227419D01*
Y846210D01*
X1227742D01*
Y845887D01*
X1228388D01*
Y845564D01*
X1229681D01*
Y845887D01*
X1230327D01*
Y846210D01*
X1230650D01*
Y846533D01*
X1230973D01*
Y846856D01*
X1231296D01*
Y847179D01*
X1231619D01*
Y847502D01*
X1231942D01*
Y847825D01*
X1232265D01*
Y848471D01*
X1232588D01*
Y849117D01*
X1232911D01*
Y850086D01*
X1233234D01*
Y853317D01*
X1232911D01*
Y854286D01*
X1232588D01*
Y854932D01*
X1232265D01*
Y855255D01*
X1231942D01*
Y855578D01*
X1231619D01*
Y855901D01*
X1231296D01*
Y856547D01*
X1230650D01*
Y857193D01*
X1230004D01*
Y857516D01*
X1229358D01*
Y857839D01*
X1228711D01*
Y858162D01*
X1228065D01*
Y858485D01*
X1227419D01*
Y858809D01*
X1226773D01*
Y859132D01*
X1225804D01*
Y859455D01*
X1224835D01*
Y859778D01*
X1223866D01*
Y860101D01*
X1222897D01*
Y860424D01*
X1222251D01*
Y860747D01*
X1221281D01*
Y861070D01*
X1220635D01*
Y861393D01*
X1219989D01*
Y861716D01*
X1219666D01*
Y862039D01*
X1219020D01*
Y862362D01*
X1218697D01*
Y862685D01*
X1218374D01*
Y863008D01*
X1218051D01*
Y863654D01*
X1217728D01*
Y864947D01*
X1217405D01*
Y866239D01*
X1218051D01*
Y865916D01*
X1218374D01*
Y865593D01*
X1219020D01*
Y865269D01*
X1220312D01*
Y865593D01*
X1221281D01*
Y865916D01*
X1221927D01*
Y866239D01*
X1222251D01*
Y866562D01*
X1222573D01*
Y867854D01*
X1221927D01*
Y868177D01*
X1220958D01*
Y868500D01*
D02*
G37*
G36*
X1222897Y865593D02*
X1222251D01*
Y865269D01*
X1221927D01*
Y864947D01*
X1221281D01*
Y864623D01*
X1220635D01*
Y864300D01*
X1219989D01*
Y863977D01*
X1220312D01*
Y863654D01*
X1220958D01*
Y863331D01*
X1221604D01*
Y863008D01*
X1222251D01*
Y862685D01*
X1222897D01*
Y864300D01*
X1223220D01*
Y865269D01*
X1222897D01*
Y865593D01*
D02*
G37*
G36*
X1219989Y863654D02*
X1219343D01*
Y863331D01*
X1219666D01*
Y863008D01*
X1219989D01*
Y862685D01*
X1220312D01*
Y862362D01*
X1220635D01*
Y862039D01*
X1220958D01*
Y861716D01*
X1221604D01*
Y861393D01*
X1222573D01*
Y861070D01*
X1222897D01*
Y861393D01*
X1223220D01*
Y861716D01*
X1222897D01*
Y862039D01*
X1222573D01*
Y862362D01*
X1221927D01*
Y862685D01*
X1221281D01*
Y863008D01*
X1220635D01*
Y863331D01*
X1219989D01*
Y863654D01*
D02*
G37*
G36*
X1227742Y865916D02*
X1227419D01*
Y863008D01*
X1228065D01*
Y863331D01*
X1229035D01*
Y863008D01*
X1228388D01*
Y862685D01*
X1227742D01*
Y862362D01*
X1227419D01*
Y862039D01*
X1227096D01*
Y861070D01*
X1227419D01*
Y860747D01*
X1227742D01*
Y861070D01*
X1228388D01*
Y861393D01*
X1229035D01*
Y861716D01*
X1229681D01*
Y862039D01*
X1230004D01*
Y862362D01*
X1230327D01*
Y862685D01*
X1230650D01*
Y863008D01*
X1230973D01*
Y863331D01*
Y863654D01*
X1230650D01*
Y863977D01*
X1230327D01*
Y864300D01*
X1229681D01*
Y864623D01*
X1229035D01*
Y864947D01*
X1228388D01*
Y865269D01*
X1228065D01*
Y865593D01*
X1227742D01*
Y865916D01*
D02*
G37*
G36*
X1226450Y879807D02*
X1223543D01*
Y861070D01*
X1223866D01*
Y860747D01*
X1224189D01*
Y860424D01*
X1225158D01*
Y860101D01*
X1226127D01*
Y866239D01*
X1226450D01*
Y870115D01*
Y870438D01*
Y874315D01*
X1226773D01*
Y879484D01*
X1226450D01*
Y879807D01*
D02*
G37*
G36*
X1231619Y868500D02*
X1228711D01*
Y868177D01*
X1228065D01*
Y867854D01*
X1227742D01*
Y867531D01*
X1227419D01*
Y867208D01*
X1227742D01*
Y866562D01*
X1228065D01*
Y866239D01*
X1228388D01*
Y865916D01*
X1229035D01*
Y865593D01*
X1231619D01*
Y865916D01*
X1231942D01*
Y866239D01*
X1232588D01*
Y866562D01*
X1232911D01*
Y865269D01*
X1232588D01*
Y864300D01*
X1232265D01*
Y863654D01*
X1231942D01*
Y863331D01*
X1231619D01*
Y863008D01*
X1231296D01*
Y862685D01*
X1230973D01*
Y862362D01*
X1230650D01*
Y862039D01*
X1230327D01*
Y861716D01*
X1230004D01*
Y861393D01*
X1229358D01*
Y861070D01*
X1229035D01*
Y860747D01*
X1228388D01*
Y860424D01*
X1227742D01*
Y860101D01*
X1227096D01*
Y859778D01*
X1227419D01*
Y859455D01*
X1227742D01*
Y859132D01*
X1228065D01*
Y858809D01*
X1228711D01*
Y858485D01*
X1229358D01*
Y858162D01*
X1230650D01*
Y858485D01*
X1230973D01*
Y858809D01*
X1231619D01*
Y859132D01*
X1231942D01*
Y859455D01*
X1232265D01*
Y859778D01*
X1232588D01*
Y860101D01*
X1232911D01*
Y860424D01*
X1233234D01*
Y860747D01*
X1233557D01*
Y861393D01*
X1233880D01*
Y861716D01*
X1234203D01*
Y862362D01*
X1234526D01*
Y863654D01*
X1234849D01*
Y865916D01*
X1234526D01*
Y866239D01*
X1234203D01*
Y866885D01*
X1233880D01*
Y867208D01*
X1233234D01*
Y867531D01*
X1232911D01*
Y867854D01*
X1232588D01*
Y868177D01*
X1231619D01*
Y868500D01*
D02*
G37*
G36*
X1223220Y852994D02*
X1222573D01*
Y852671D01*
X1222251D01*
Y852025D01*
X1221927D01*
Y851378D01*
Y851055D01*
Y850732D01*
X1222251D01*
Y849763D01*
X1222573D01*
Y849117D01*
X1223220D01*
Y852994D01*
D02*
G37*
G36*
X1227419Y852347D02*
X1227096D01*
Y852025D01*
X1226773D01*
Y851055D01*
Y850732D01*
Y849117D01*
X1227096D01*
Y848794D01*
X1227419D01*
Y849117D01*
X1227742D01*
Y849763D01*
X1228065D01*
Y851701D01*
X1227742D01*
Y852025D01*
X1227419D01*
Y852347D01*
D02*
G37*
G36*
X1224835Y854286D02*
X1223866D01*
Y853317D01*
Y852994D01*
Y849763D01*
X1224189D01*
Y847825D01*
X1224835D01*
Y847502D01*
X1225481D01*
Y847825D01*
X1225804D01*
Y852025D01*
X1226127D01*
Y852671D01*
X1225804D01*
Y853640D01*
X1225481D01*
Y853963D01*
X1224835D01*
Y854286D01*
D02*
G37*
G36*
X1223543Y839103D02*
X1223220D01*
Y837487D01*
X1223543D01*
Y838133D01*
X1223866D01*
Y838780D01*
X1223543D01*
Y839103D01*
D02*
G37*
G36*
X1227096Y838456D02*
X1226450D01*
Y836841D01*
X1226773D01*
Y837164D01*
X1227096D01*
Y837487D01*
Y838456D01*
D02*
G37*
G36*
X1224835Y840718D02*
X1224189D01*
Y836195D01*
X1224512D01*
Y835549D01*
X1225158D01*
Y835226D01*
X1225481D01*
Y840072D01*
X1225158D01*
Y840395D01*
X1224835D01*
Y840718D01*
D02*
G37*
G36*
X1219666Y856870D02*
X1219343D01*
Y856547D01*
X1219020D01*
Y856224D01*
X1218697D01*
Y855901D01*
X1218374D01*
Y855578D01*
X1218051D01*
Y854932D01*
X1217728D01*
Y854286D01*
X1217405D01*
Y853640D01*
X1217082D01*
Y849440D01*
X1217405D01*
Y848471D01*
X1217728D01*
Y847825D01*
X1218051D01*
Y847179D01*
X1218374D01*
Y846856D01*
X1218697D01*
Y846533D01*
X1219020D01*
Y845887D01*
X1219343D01*
Y845564D01*
X1219666D01*
Y845240D01*
X1220312D01*
Y844917D01*
X1220635D01*
Y844594D01*
X1220958D01*
Y844271D01*
X1221604D01*
Y843948D01*
X1221927D01*
Y843625D01*
X1222573D01*
Y843302D01*
X1223220D01*
Y842979D01*
X1223543D01*
Y842656D01*
X1224189D01*
Y842333D01*
X1224835D01*
Y842010D01*
X1225158D01*
Y841687D01*
X1225804D01*
Y841364D01*
X1226127D01*
Y841041D01*
X1226450D01*
Y840718D01*
X1227096D01*
Y840395D01*
X1227419D01*
Y840072D01*
X1227742D01*
Y838780D01*
X1228065D01*
Y838133D01*
X1227742D01*
Y836841D01*
X1227419D01*
Y836195D01*
X1227096D01*
Y835872D01*
X1226773D01*
Y835549D01*
X1226450D01*
Y834580D01*
X1226773D01*
Y834257D01*
X1227096D01*
Y833934D01*
X1227742D01*
Y833611D01*
X1228065D01*
Y833288D01*
X1229358D01*
Y833611D01*
X1229681D01*
Y833934D01*
X1230327D01*
Y834257D01*
X1230650D01*
Y834580D01*
X1230973D01*
Y835226D01*
X1231296D01*
Y835549D01*
X1231619D01*
Y836518D01*
X1231942D01*
Y837487D01*
X1232265D01*
Y840395D01*
X1231942D01*
Y841041D01*
X1231619D01*
Y841687D01*
X1231296D01*
Y842333D01*
X1230973D01*
Y842979D01*
X1230650D01*
Y843302D01*
X1230327D01*
Y843625D01*
X1230004D01*
Y843948D01*
X1229358D01*
Y844271D01*
X1229035D01*
Y844594D01*
X1228388D01*
Y844917D01*
X1228065D01*
Y845240D01*
X1227419D01*
Y845564D01*
X1227096D01*
Y845887D01*
X1226450D01*
Y846210D01*
X1226127D01*
Y846533D01*
X1225481D01*
Y846856D01*
X1224835D01*
Y847179D01*
X1224189D01*
Y847502D01*
X1223543D01*
Y847825D01*
X1223220D01*
Y848148D01*
X1222573D01*
Y848471D01*
X1222251D01*
Y848794D01*
X1221927D01*
Y849117D01*
X1221604D01*
Y849763D01*
X1221281D01*
Y850732D01*
X1220958D01*
Y853317D01*
X1221281D01*
Y853963D01*
X1221604D01*
Y854286D01*
X1221927D01*
Y855578D01*
X1221281D01*
Y855901D01*
X1220958D01*
Y856224D01*
X1220312D01*
Y856547D01*
X1219666D01*
Y856870D01*
D02*
G37*
G36*
X1223866Y828442D02*
X1223543D01*
Y827150D01*
X1223866D01*
Y828119D01*
Y828442D01*
D02*
G37*
G36*
X1224835Y828765D02*
X1224512D01*
Y826181D01*
Y825858D01*
Y825535D01*
X1224835D01*
Y825211D01*
X1225158D01*
Y825535D01*
X1225481D01*
Y827473D01*
X1225158D01*
Y828442D01*
X1224835D01*
Y828765D01*
D02*
G37*
G36*
X1220312Y843302D02*
X1219666D01*
Y842979D01*
X1219343D01*
Y842656D01*
X1219020D01*
Y842010D01*
X1218697D01*
Y841364D01*
X1218374D01*
Y840395D01*
X1218051D01*
Y837164D01*
X1218374D01*
Y836195D01*
X1218697D01*
Y835226D01*
X1219020D01*
Y834903D01*
X1219343D01*
Y834257D01*
X1219666D01*
Y833934D01*
X1219989D01*
Y833611D01*
X1220312D01*
Y833288D01*
X1220635D01*
Y832965D01*
X1220958D01*
Y832642D01*
X1221281D01*
Y832319D01*
X1221927D01*
Y831995D01*
X1222251D01*
Y831673D01*
X1222897D01*
Y831349D01*
X1223543D01*
Y831026D01*
X1224189D01*
Y830703D01*
X1224835D01*
Y830380D01*
X1225158D01*
Y830057D01*
X1225481D01*
Y829734D01*
X1225804D01*
Y829411D01*
X1226127D01*
Y829088D01*
X1226450D01*
Y828442D01*
X1226773D01*
Y827473D01*
X1226450D01*
Y826181D01*
X1226127D01*
Y824888D01*
X1226450D01*
Y823919D01*
X1227742D01*
Y824242D01*
X1228065D01*
Y824565D01*
X1228388D01*
Y824888D01*
X1228711D01*
Y825211D01*
X1229035D01*
Y825535D01*
X1229358D01*
Y825858D01*
X1229681D01*
Y826504D01*
X1230004D01*
Y827473D01*
X1230327D01*
Y829088D01*
X1230004D01*
Y830057D01*
X1229681D01*
Y831026D01*
X1229358D01*
Y831349D01*
X1229035D01*
Y831673D01*
X1228711D01*
Y831995D01*
X1228388D01*
Y832319D01*
X1228065D01*
Y832642D01*
X1227742D01*
Y832965D01*
X1227419D01*
Y833288D01*
X1227096D01*
Y833611D01*
X1226450D01*
Y833934D01*
X1226127D01*
Y834257D01*
X1225481D01*
Y834580D01*
X1225158D01*
Y834903D01*
X1224512D01*
Y835226D01*
X1224189D01*
Y835549D01*
X1223866D01*
Y835872D01*
X1223220D01*
Y836518D01*
X1222573D01*
Y837164D01*
X1222251D01*
Y837810D01*
X1221927D01*
Y839426D01*
X1222251D01*
Y840395D01*
X1222573D01*
Y841041D01*
X1222897D01*
Y841364D01*
X1222573D01*
Y841687D01*
X1222251D01*
Y842010D01*
X1221927D01*
Y842333D01*
X1221281D01*
Y842656D01*
X1220958D01*
Y842979D01*
X1220312D01*
Y843302D01*
D02*
G37*
G36*
X1222573Y822304D02*
X1221927D01*
Y821981D01*
X1221281D01*
Y821335D01*
X1220958D01*
Y820689D01*
X1220635D01*
Y819720D01*
X1220958D01*
Y818104D01*
X1221281D01*
Y817135D01*
X1221604D01*
Y816812D01*
X1221927D01*
Y816489D01*
X1222251D01*
Y817135D01*
X1221927D01*
Y819397D01*
X1222251D01*
Y820366D01*
X1222573D01*
Y820689D01*
X1222897D01*
Y821335D01*
X1223220D01*
Y821658D01*
X1222897D01*
Y821981D01*
X1222573D01*
Y822304D01*
D02*
G37*
G36*
X1221604Y830703D02*
X1220312D01*
Y830380D01*
X1219989D01*
Y829734D01*
X1219666D01*
Y826827D01*
X1219989D01*
Y826181D01*
X1220312D01*
Y825535D01*
X1220635D01*
Y825211D01*
X1220958D01*
Y824888D01*
X1221281D01*
Y824565D01*
X1221604D01*
Y824242D01*
X1221927D01*
Y823919D01*
X1222251D01*
Y823596D01*
X1222897D01*
Y823273D01*
X1223220D01*
Y822950D01*
X1223866D01*
Y822627D01*
X1224512D01*
Y822304D01*
X1225158D01*
Y821981D01*
X1225804D01*
Y821658D01*
X1226127D01*
Y821335D01*
X1226450D01*
Y821012D01*
X1226773D01*
Y820689D01*
X1227096D01*
Y820366D01*
X1227419D01*
Y819397D01*
X1227742D01*
Y817781D01*
X1227419D01*
Y816166D01*
X1227742D01*
Y816489D01*
X1228065D01*
Y817135D01*
X1228388D01*
Y817458D01*
X1228711D01*
Y818104D01*
X1229035D01*
Y821012D01*
X1228711D01*
Y821335D01*
X1228388D01*
Y821981D01*
X1228065D01*
Y822304D01*
X1227742D01*
Y822627D01*
X1227419D01*
Y822950D01*
X1227096D01*
Y823273D01*
X1226773D01*
Y823596D01*
X1226127D01*
Y823919D01*
X1225804D01*
Y824242D01*
X1225481D01*
Y824565D01*
X1225158D01*
Y824888D01*
X1224512D01*
Y825211D01*
X1224189D01*
Y825535D01*
X1223866D01*
Y825858D01*
X1223543D01*
Y826504D01*
X1223220D01*
Y827150D01*
X1222897D01*
Y828119D01*
Y828442D01*
Y830057D01*
X1222251D01*
Y830380D01*
X1221604D01*
Y830703D01*
D02*
G37*
G36*
X1226450Y819720D02*
X1226127D01*
Y819397D01*
X1225804D01*
Y819073D01*
Y816166D01*
X1226127D01*
Y815843D01*
X1226450D01*
Y816166D01*
X1226773D01*
Y819397D01*
X1226450D01*
Y819720D01*
D02*
G37*
G36*
X1223866Y820043D02*
X1223220D01*
Y819397D01*
X1222897D01*
Y817135D01*
X1223220D01*
Y816166D01*
X1223543D01*
Y815843D01*
Y815520D01*
X1223866D01*
Y816489D01*
X1224189D01*
Y818751D01*
X1223866D01*
Y820043D01*
D02*
G37*
G36*
X1224835Y820366D02*
X1224512D01*
Y816489D01*
Y816166D01*
Y814874D01*
X1224835D01*
Y810997D01*
X1225158D01*
Y819720D01*
X1224835D01*
Y820366D01*
D02*
G37*
%LPD*%
G36*
X1226773Y884652D02*
X1227096D01*
Y884006D01*
X1227419D01*
Y883360D01*
X1227096D01*
Y883037D01*
Y882714D01*
Y882391D01*
X1226773D01*
Y882068D01*
X1226450D01*
Y881745D01*
X1225804D01*
Y881422D01*
X1225158D01*
Y882068D01*
X1225804D01*
Y882391D01*
X1226127D01*
Y883037D01*
X1226450D01*
Y884329D01*
X1226127D01*
Y884975D01*
X1226773D01*
Y884652D01*
D02*
G37*
G36*
X1220312Y867531D02*
Y867208D01*
X1219020D01*
Y867531D01*
X1219666D01*
Y867854D01*
X1220312D01*
Y867531D01*
D02*
G37*
G36*
X1229358Y863331D02*
X1229035D01*
Y863654D01*
X1229358D01*
Y863331D01*
D02*
G37*
G36*
X1230973Y867531D02*
X1229681D01*
Y867854D01*
X1230973D01*
Y867531D01*
D02*
G37*
%LPC*%
G36*
X1021143Y925915D02*
X1020822D01*
X1020617Y925900D01*
X1020456D01*
X1020324Y925885D01*
X1020207D01*
Y918951D01*
Y918936D01*
Y918907D01*
Y918863D01*
X1020222Y918819D01*
X1020236Y918672D01*
X1020266Y918541D01*
Y918526D01*
X1020280Y918512D01*
X1020310Y918438D01*
X1020383Y918336D01*
X1020470Y918234D01*
X1020500Y918219D01*
X1020573Y918160D01*
X1020690Y918087D01*
X1020836Y918029D01*
X1020851D01*
X1020880Y918014D01*
X1020924Y917999D01*
X1020983D01*
X1021070Y917985D01*
X1021158Y917970D01*
X1021392Y917956D01*
X1021509D01*
X1021656Y917970D01*
X1021816Y917985D01*
X1022021Y918014D01*
X1022226Y918073D01*
X1022431Y918131D01*
X1022636Y918219D01*
X1022665Y918234D01*
X1022723Y918263D01*
X1022826Y918336D01*
X1022943Y918424D01*
X1023075Y918526D01*
X1023221Y918658D01*
X1023353Y918819D01*
X1023484Y919009D01*
X1023499Y919038D01*
X1023543Y919097D01*
X1023601Y919214D01*
X1023660Y919360D01*
X1023748Y919536D01*
X1023821Y919741D01*
X1023894Y919975D01*
X1023952Y920223D01*
Y920238D01*
Y920253D01*
X1023967Y920296D01*
X1023982Y920355D01*
X1023996Y920501D01*
X1024026Y920706D01*
X1024055Y920940D01*
X1024070Y921218D01*
X1024099Y921540D01*
Y921877D01*
Y921891D01*
Y921920D01*
Y921964D01*
Y922038D01*
Y922111D01*
X1024084Y922198D01*
X1024070Y922418D01*
X1024055Y922681D01*
X1024011Y922959D01*
X1023967Y923252D01*
X1023894Y923530D01*
Y923544D01*
X1023879Y923559D01*
Y923603D01*
X1023865Y923661D01*
X1023821Y923793D01*
X1023748Y923969D01*
X1023674Y924174D01*
X1023587Y924378D01*
X1023470Y924598D01*
X1023338Y924803D01*
X1023323Y924832D01*
X1023265Y924890D01*
X1023192Y924978D01*
X1023075Y925110D01*
X1022943Y925241D01*
X1022782Y925373D01*
X1022606Y925505D01*
X1022402Y925622D01*
X1022372Y925637D01*
X1022299Y925666D01*
X1022182Y925710D01*
X1022036Y925768D01*
X1021846Y925827D01*
X1021641Y925871D01*
X1021407Y925900D01*
X1021143Y925915D01*
D02*
G37*
G36*
X1011677D02*
X1010961D01*
Y921906D01*
X1011326D01*
X1011400Y921920D01*
X1011487D01*
X1011590Y921935D01*
X1011824Y921964D01*
X1012087Y922023D01*
X1012350Y922111D01*
X1012599Y922228D01*
X1012833Y922389D01*
X1012863Y922418D01*
X1012921Y922476D01*
X1013009Y922593D01*
X1013111Y922754D01*
X1013214Y922959D01*
X1013301Y923223D01*
X1013360Y923530D01*
X1013389Y923881D01*
Y923895D01*
Y923925D01*
Y923983D01*
Y924056D01*
X1013375Y924130D01*
Y924232D01*
X1013331Y924452D01*
X1013287Y924700D01*
X1013214Y924949D01*
X1013111Y925198D01*
X1012965Y925403D01*
X1012950Y925432D01*
X1012892Y925490D01*
X1012775Y925563D01*
X1012628Y925666D01*
X1012424Y925754D01*
X1012175Y925841D01*
X1012014Y925871D01*
X1011853Y925900D01*
X1011677Y925915D01*
D02*
G37*
%LPD*%
D10*
X1160519Y866697D02*
G03*
X1160519Y866697I-1500J0D01*
G01*
X1150486Y979015D02*
Y983015D01*
X1146486D02*
X1150486D01*
Y943014D02*
Y947014D01*
X1146486Y943014D02*
X1150486D01*
X1110486Y979015D02*
Y983015D01*
X1114486D01*
X1110486Y943014D02*
Y947014D01*
Y943014D02*
X1114486D01*
X1081586Y789850D02*
Y810350D01*
X1056586Y789850D02*
Y810350D01*
X1163401Y943902D02*
X1173401D01*
X1163401Y956602D02*
X1173401D01*
X1189816Y972566D02*
X1199816D01*
X1189816Y985266D02*
X1199816D01*
X1012270Y886460D02*
X1022270D01*
X1012270Y899160D02*
X1022270D01*
X1163400Y954532D02*
X1173400D01*
X1163400Y967232D02*
X1173400D01*
X1011591Y863175D02*
X1039713D01*
X1011591Y881297D02*
X1039713D01*
X1177715Y909440D02*
X1187715Y892119D01*
X1194602Y919190D02*
X1204602Y901869D01*
X1147056Y888847D02*
Y891347D01*
X1168056Y888847D02*
Y891347D01*
X1104410Y788952D02*
X1138410D01*
X1104410Y818952D02*
X1138410D01*
X1001893Y867100D02*
Y877099D01*
X988893Y867100D02*
Y877099D01*
D11*
X1153112Y985367D02*
G03*
X1153803Y986485I1250J0D01*
G01*
X1063736Y818350D02*
G03*
X1063736Y818350I-1250J0D01*
G01*
X1203658Y886169D02*
G03*
X1203658Y886169I-1250J0D01*
G01*
X1158806Y874347D02*
G03*
X1158806Y874347I-1250J0D01*
G01*
X1095660Y803952D02*
G03*
X1095660Y803952I-1250J0D01*
G01*
D13*
X1114247Y1005250D02*
Y996920D01*
X1112580Y995254D01*
X1109248D01*
X1107582Y996920D01*
Y1005250D01*
X1097585Y995254D02*
X1104250D01*
X1097585Y1001918D01*
Y1003584D01*
X1099251Y1005250D01*
X1102584D01*
X1104250Y1003584D01*
X1035261Y813896D02*
X1043592D01*
X1045258Y812230D01*
Y808897D01*
X1043592Y807231D01*
X1035261D01*
Y803899D02*
Y797234D01*
X1036927D01*
X1043592Y803899D01*
X1045258D01*
X1074247Y917808D02*
X1066058Y923542D01*
X1068925Y927636D01*
X1071245Y928045D01*
X1076705Y924223D01*
X1077114Y921902D01*
X1074247Y917808D01*
X1082439Y932412D02*
X1082848Y930091D01*
X1080937Y927362D01*
X1078616Y926952D01*
X1077251Y927908D01*
X1076842Y930229D01*
X1078753Y932958D01*
X1078344Y935278D01*
X1076979Y936234D01*
X1074659Y935825D01*
X1072748Y933095D01*
X1073157Y930775D01*
X1077526Y939920D02*
X1079437Y942649D01*
X1078482Y941284D01*
X1086670Y935550D01*
X1084350Y935141D01*
X992714Y911555D02*
X1002710D01*
Y906556D01*
X1001044Y904890D01*
X994380D01*
X992714Y906556D01*
Y911555D01*
Y894893D02*
X994380Y898226D01*
X997712Y901558D01*
X1001044D01*
X1002710Y899892D01*
Y896559D01*
X1001044Y894893D01*
X999378D01*
X997712Y896559D01*
Y901558D01*
X1030590Y849854D02*
X1028924Y848188D01*
X1025592D01*
X1023925Y849854D01*
Y856518D01*
X1025592Y858184D01*
X1028924D01*
X1030590Y856518D01*
X1040587Y848188D02*
X1033922D01*
Y853186D01*
X1037254Y851520D01*
X1038921D01*
X1040587Y853186D01*
Y856518D01*
X1038921Y858184D01*
X1035588D01*
X1033922Y856518D01*
X1026018Y831566D02*
X1024352Y829900D01*
X1021020D01*
X1019353Y831566D01*
Y838230D01*
X1021020Y839896D01*
X1024352D01*
X1026018Y838230D01*
X1029350Y831566D02*
X1031016Y829900D01*
X1034349D01*
X1036015Y831566D01*
Y833232D01*
X1034349Y834898D01*
X1032682D01*
X1034349D01*
X1036015Y836564D01*
Y838230D01*
X1034349Y839896D01*
X1031016D01*
X1029350Y838230D01*
X1219566Y912733D02*
X1210909Y907734D01*
X1208409Y912063D01*
X1209019Y914339D01*
X1214791Y917671D01*
X1217067Y917061D01*
X1219566Y912733D01*
X1203411Y920720D02*
X1212068Y925719D01*
X1210239Y918891D01*
X1206907Y924662D01*
X1132909Y927954D02*
X1142906D01*
Y922956D01*
X1141239Y921290D01*
X1134575D01*
X1132909Y922956D01*
Y927954D01*
X1134575Y917958D02*
X1132909Y916291D01*
Y912959D01*
X1134575Y911293D01*
X1136241D01*
X1137907Y912959D01*
Y914625D01*
Y912959D01*
X1139573Y911293D01*
X1141239D01*
X1142906Y912959D01*
Y916291D01*
X1141239Y917958D01*
X1092536Y894029D02*
X1102532D01*
Y889030D01*
X1100866Y887364D01*
X1094202D01*
X1092536Y889030D01*
Y894029D01*
X1102532Y877367D02*
Y884032D01*
X1095868Y877367D01*
X1094202D01*
X1092536Y879033D01*
Y882366D01*
X1094202Y884032D01*
X1126326Y828341D02*
Y838337D01*
X1131325D01*
X1132991Y836671D01*
Y830007D01*
X1131325Y828341D01*
X1126326D01*
X1136323Y838337D02*
X1139655D01*
X1137989D01*
Y828341D01*
X1136323Y830007D01*
X1168996Y927279D02*
X1167330Y925613D01*
X1163998D01*
X1162331Y927279D01*
Y933944D01*
X1163998Y935610D01*
X1167330D01*
X1168996Y933944D01*
X1172328D02*
X1173994Y935610D01*
X1177327D01*
X1178993Y933944D01*
Y927279D01*
X1177327Y925613D01*
X1173994D01*
X1172328Y927279D01*
Y928945D01*
X1173994Y930611D01*
X1178993D01*
X1191413Y939262D02*
X1189747Y937596D01*
X1186414D01*
X1184748Y939262D01*
Y945926D01*
X1186414Y947592D01*
X1189747D01*
X1191413Y945926D01*
X1194745Y947592D02*
X1198077D01*
X1196411D01*
Y937596D01*
X1194745Y939262D01*
X1203076Y947592D02*
X1206408D01*
X1204742D01*
Y937596D01*
X1203076Y939262D01*
X1149178Y813257D02*
X1159174D01*
Y808258D01*
X1157508Y806592D01*
X1150844D01*
X1149178Y808258D01*
Y813257D01*
X1157508Y803260D02*
X1159174Y801594D01*
Y798261D01*
X1157508Y796595D01*
X1150844D01*
X1149178Y798261D01*
Y801594D01*
X1150844Y803260D01*
X1152510D01*
X1154176Y801594D01*
Y796595D01*
X1173002Y988934D02*
X1174668Y987268D01*
Y983935D01*
X1173002Y982269D01*
X1166338D01*
X1164672Y983935D01*
Y987268D01*
X1166338Y988934D01*
X1164672Y997264D02*
X1174668D01*
X1169670Y992266D01*
Y998931D01*
X1050574Y902208D02*
X1052240Y900542D01*
Y897210D01*
X1050574Y895544D01*
X1043910D01*
X1042244Y897210D01*
Y900542D01*
X1043910Y902208D01*
X1042244Y905540D02*
Y908873D01*
Y907206D01*
X1052240D01*
X1050574Y905540D01*
D51*
X1092889Y927333D02*
X1101080Y921597D01*
D85*
X1124019Y844197D02*
X1146519D01*
X1124019Y865197D02*
X1146519D01*
M02*
