G04*
G04 #@! TF.GenerationSoftware,Altium Limited,Altium Designer,23.1.1 (15)*
G04*
G04 Layer_Physical_Order=1*
G04 Layer_Color=255*
%FSLAX44Y44*%
%MOMM*%
G71*
G04*
G04 #@! TF.SameCoordinates,B54EA911-69F6-478F-8CB3-DEBD2400B795*
G04*
G04*
G04 #@! TF.FilePolarity,Positive*
G04*
G01*
G75*
%ADD10C,0.2000*%
%ADD11C,0.2500*%
%ADD13C,0.2540*%
%ADD14R,2.2400X3.1200*%
%ADD15R,0.3000X1.6000*%
%ADD16R,1.0121X1.1581*%
%ADD17R,0.6000X0.6000*%
%ADD18R,0.2500X0.3500*%
%ADD19R,0.7000X1.3000*%
%ADD20R,1.2000X0.6500*%
%ADD21R,1.0000X0.6500*%
%ADD22R,0.4300X0.4300*%
%ADD23R,0.3500X0.3500*%
%ADD24R,0.3500X0.2500*%
%ADD25R,0.3000X0.3000*%
%ADD26R,1.2500X1.8000*%
%ADD27R,1.7018X5.6896*%
G04:AMPARAMS|DCode=28|XSize=1.6571mm|YSize=0.5658mm|CornerRadius=0.2829mm|HoleSize=0mm|Usage=FLASHONLY|Rotation=180.000|XOffset=0mm|YOffset=0mm|HoleType=Round|Shape=RoundedRectangle|*
%AMROUNDEDRECTD28*
21,1,1.6571,0.0000,0,0,180.0*
21,1,1.0913,0.5658,0,0,180.0*
1,1,0.5658,-0.5457,0.0000*
1,1,0.5658,0.5457,0.0000*
1,1,0.5658,0.5457,0.0000*
1,1,0.5658,-0.5457,0.0000*
%
%ADD28ROUNDEDRECTD28*%
%ADD29R,1.6571X0.5658*%
%ADD30R,0.5725X0.6153*%
%ADD31R,0.2540X0.5750*%
%ADD32R,0.5750X0.2540*%
%ADD33R,0.5200X0.5200*%
%ADD34R,1.1000X1.1000*%
%ADD35R,0.5000X0.5500*%
%ADD42C,0.6604*%
%ADD43C,0.1700*%
%ADD44C,0.1520*%
%ADD45C,0.7000*%
%ADD46C,0.5000*%
%ADD47C,0.2032*%
%ADD48C,0.1778*%
%ADD49C,0.3000*%
%ADD50C,0.7500*%
%ADD51C,0.4000*%
%ADD52C,1.0000*%
%ADD53C,2.0000*%
%ADD54C,0.2000*%
%ADD55C,0.5080*%
%ADD56C,0.6000*%
%ADD57C,0.7620*%
%ADD58C,2.0000*%
%ADD59C,1.5000*%
%ADD60C,0.8000*%
%ADD61C,0.6096*%
%ADD62C,1.0000*%
G36*
X1008469Y907260D02*
Y901580D01*
X1022574D01*
Y907383D01*
X1008469Y907260D01*
D02*
G37*
G36*
X1142125Y902462D02*
X1141186D01*
X1139343Y902829D01*
X1137607Y903548D01*
X1136044Y904592D01*
X1135380Y905256D01*
X1135380Y905256D01*
Y917702D01*
Y918712D01*
X1136153Y920580D01*
X1137582Y922009D01*
X1139449Y922782D01*
X1140460D01*
D01*
X1159002D01*
X1160241Y922904D01*
X1162530Y923852D01*
X1164282Y925604D01*
X1165230Y927893D01*
X1165352Y929132D01*
D01*
Y942340D01*
Y943552D01*
X1166280Y945793D01*
X1167995Y947508D01*
X1170235Y948436D01*
X1171448D01*
D01*
X1181100D01*
X1182363D01*
X1184697Y947469D01*
X1186483Y945683D01*
X1187450Y943349D01*
Y942086D01*
D01*
Y925576D01*
X1187538Y924684D01*
X1188221Y923036D01*
X1189482Y921775D01*
X1191130Y921092D01*
X1192022Y921004D01*
D01*
X1204214D01*
X1205174D01*
X1206948Y920269D01*
X1208305Y918912D01*
X1209040Y917138D01*
Y916178D01*
D01*
Y906780D01*
Y905921D01*
X1208383Y904334D01*
X1207168Y903119D01*
X1205581Y902462D01*
X1204722D01*
D01*
D01*
X1142125D01*
D02*
G37*
G36*
X1209040Y891540D02*
Y814070D01*
X1206500Y811530D01*
X1191260D01*
X1188720Y814070D01*
Y885190D01*
X1195070Y891540D01*
X1209040D01*
D02*
G37*
G36*
X1215994Y892611D02*
Y887361D01*
X1215994Y886748D01*
X1216233Y885547D01*
X1216701Y884415D01*
X1217382Y883397D01*
X1217815Y882964D01*
X1217815Y882964D01*
X1220656Y880123D01*
X1221263Y879516D01*
X1222691Y878562D01*
X1224277Y877905D01*
X1225961Y877570D01*
X1226820D01*
X1226820D01*
X1227038Y877570D01*
X1227888Y877528D01*
X1229555Y877197D01*
X1231126Y876546D01*
X1232539Y875601D01*
X1233170Y875030D01*
X1233170Y875030D01*
X1234283Y873916D01*
X1234752Y873399D01*
X1235527Y872240D01*
X1236060Y870952D01*
X1236332Y869585D01*
X1236366Y868888D01*
X1236366Y868888D01*
X1236659Y868595D01*
X1236941Y868313D01*
X1237604Y867870D01*
X1238340Y867566D01*
X1239121Y867410D01*
X1239520D01*
X1239520D01*
X1251281D01*
X1251504D01*
X1251942Y867497D01*
X1252354Y867668D01*
X1252726Y867916D01*
X1252884Y868074D01*
X1252884Y868074D01*
X1252884Y871329D01*
X1252884Y871749D01*
X1252720Y872573D01*
X1252398Y873350D01*
X1251931Y874049D01*
X1251634Y874346D01*
X1251634Y874346D01*
X1242275Y883704D01*
X1241911Y884106D01*
X1241310Y885006D01*
X1240895Y886007D01*
X1240684Y887069D01*
X1240658Y887610D01*
X1240658Y887610D01*
X1240505Y888363D01*
X1239923Y889782D01*
X1239083Y891067D01*
X1238017Y892169D01*
X1237389Y892610D01*
X1237389Y892611D01*
X1215994Y892611D01*
D02*
G37*
D10*
X1133659Y991202D02*
G03*
X1141290Y983570I7631J0D01*
G01*
X1216974Y950629D02*
G03*
X1201420Y957072I-15554J-15554D01*
G01*
X1008165Y853893D02*
G03*
X1007656Y853484I4025J-5533D01*
G01*
X1006809Y852495D02*
G03*
X1006680Y852372I1314J-1507D01*
G01*
X1005400Y851560D02*
G03*
X1006454Y852137I-388J1962D01*
G01*
X1004182Y851416D02*
G03*
X1005400Y851560I-375J8374D01*
G01*
X1066932Y784996D02*
G03*
X1073222Y778706I6290J0D01*
G01*
X999970Y864907D02*
G03*
X994811Y859748I0J-5159D01*
G01*
X1146892Y742868D02*
G03*
X1147318Y742442I426J0D01*
G01*
X1030472Y828887D02*
G03*
X1028961Y828185I10J-2000D01*
G01*
X1031917Y828887D02*
G03*
X1032480Y828951I0J2520D01*
G01*
X1043366Y819229D02*
G03*
X1044167Y820030I0J801D01*
G01*
X1028961Y828185D02*
G03*
X1025654Y819144I10706J-9041D01*
G01*
X1058207Y871254D02*
G03*
X1051801Y873907I-6406J-6406D01*
G01*
X1039101Y832404D02*
G03*
X1038937Y831612I1837J-792D01*
G01*
X1036417Y828887D02*
G03*
X1038937Y831407I0J2520D01*
G01*
X1033356Y828951D02*
G03*
X1033917Y828887I561J2457D01*
G01*
X1033356Y828951D02*
G03*
X1032480Y828951I-439J-1951D01*
G01*
X1224271Y931385D02*
G03*
X1222426Y935326I-5130J0D01*
G01*
X1147890Y868520D02*
G03*
X1135660Y856290I0J-12230D01*
G01*
X1057608Y861204D02*
G03*
X1048667Y864907I-8940J-8940D01*
G01*
X1008537Y839905D02*
G03*
X1007057Y839240I10J-2000D01*
G01*
X1005167Y838387D02*
G03*
X1007057Y839240I0J2520D01*
G01*
X999147Y885907D02*
G03*
X1001667Y883387I2520J0D01*
G01*
Y891427D02*
G03*
X999147Y888907I0J-2520D01*
G01*
X1007656Y853484D02*
G03*
X1007302Y853068I1331J-1492D01*
G01*
X1006809Y852495D02*
G03*
X1007302Y853068I-1641J1912D01*
G01*
X1074317Y840113D02*
X1075198Y840994D01*
X1071187Y840113D02*
X1074317D01*
X1069231Y838157D02*
X1071187Y840113D01*
X1067167Y838157D02*
X1069231D01*
X1066917Y837907D02*
X1067167Y838157D01*
X1066932Y784996D02*
Y789912D01*
X1207814Y736119D02*
X1250814D01*
X1008165Y853893D02*
X1008269Y853997D01*
X1008165Y853893D02*
X1008165Y853893D01*
X1006454Y852137D02*
X1006680Y852372D01*
X1008269Y853997D02*
X1008928Y854656D01*
X1004167Y851416D02*
X1004182D01*
X999970Y864907D02*
X1003417D01*
X1146892Y742868D02*
Y756476D01*
X1025654Y818942D02*
Y819144D01*
X1030472Y828887D02*
X1031917D01*
X1044167Y820030D02*
Y833157D01*
X1216975Y950629D02*
X1221232Y946372D01*
X1145000Y767647D02*
X1150721D01*
X1142392Y756976D02*
Y765040D01*
X1145000Y767647D01*
X1151892Y756476D02*
Y766476D01*
X1150721Y767647D02*
X1151892Y766476D01*
X1141892Y756476D02*
X1142392Y756976D01*
X1048667Y873907D02*
X1051801D01*
X1038937Y831407D02*
Y831612D01*
X1039101Y832404D02*
X1039417Y832407D01*
X1033917Y828887D02*
X1036417D01*
X1039417Y832407D02*
X1039667Y833157D01*
X1135660Y856290D02*
X1135671Y803961D01*
X1133659Y991202D02*
Y998631D01*
X1224271Y908723D02*
Y931385D01*
X1219141Y936516D02*
X1222426Y935724D01*
X1199293Y936516D02*
X1219141D01*
X1222426Y935326D02*
Y935724D01*
X1103796Y943959D02*
Y950668D01*
X1106521Y953393D01*
Y965602D01*
X1008167Y905157D02*
X1009257Y904067D01*
Y890933D02*
Y904067D01*
X1006211Y887887D02*
X1009257Y890933D01*
X1008167Y905157D02*
Y905657D01*
X1057608Y861204D02*
X1058098Y860714D01*
X1008928Y854656D02*
X1011909Y860413D01*
X1004167Y838387D02*
X1005167D01*
X1008537Y839905D02*
X1059027D01*
X1003417Y837907D02*
X1004167Y838387D01*
X1003897Y887887D02*
X1006211D01*
X1003417Y887407D02*
X1003897Y887887D01*
X1003636Y883126D02*
X1011126D01*
X1003417Y882907D02*
X1003636Y883126D01*
X1011126D02*
X1011345Y883345D01*
X999147Y885907D02*
Y888907D01*
X1001667Y883387D02*
X1002667D01*
X1001667Y891427D02*
X1002667D01*
Y883387D02*
X1003417Y882907D01*
X1002667Y891427D02*
X1003417Y891907D01*
X1003807Y851407D02*
X1004167Y851416D01*
X1003417Y851407D02*
X1003807D01*
D11*
X995934Y840740D02*
X996719Y839955D01*
X997045Y840740D02*
X998712Y842407D01*
X1003117Y833458D02*
X1003417Y833157D01*
X996719Y836653D02*
Y839955D01*
Y836653D02*
X999914Y833458D01*
X1003117D01*
X995934Y840740D02*
X997045D01*
X998712Y842407D02*
X1003417D01*
X1245870Y906780D02*
X1246221D01*
X1147890Y848520D02*
X1148080Y848330D01*
Y827980D02*
Y848330D01*
X1169532Y848520D02*
X1169670Y848382D01*
Y827980D02*
Y848382D01*
D13*
X1066917Y833157D02*
G03*
X1070686Y831596I3769J3769D01*
G01*
X1262126Y788108D02*
G03*
X1253099Y791847I-9027J-9027D01*
G01*
X1250516Y757917D02*
G03*
X1262126Y762726I-0J16419D01*
G01*
X1070686Y831596D02*
X1073658D01*
X1262126Y762726D02*
Y788108D01*
Y762726D02*
Y762726D01*
X1253099Y791847D02*
X1253099D01*
X1251133D02*
X1253099D01*
D14*
X1080422Y736676D02*
D03*
X1183362D02*
D03*
D15*
X1096892Y756476D02*
D03*
X1101892D02*
D03*
X1106892D02*
D03*
X1111892D02*
D03*
X1116892D02*
D03*
X1121892D02*
D03*
X1126892D02*
D03*
X1131892D02*
D03*
X1136892D02*
D03*
X1141892D02*
D03*
X1146892D02*
D03*
X1151892D02*
D03*
X1156892D02*
D03*
X1161892D02*
D03*
X1166892D02*
D03*
D16*
X1250442Y905042D02*
D03*
Y888503D02*
D03*
X1171364Y890514D02*
D03*
Y907054D02*
D03*
X1145540Y890514D02*
D03*
Y907054D02*
D03*
D17*
X1030667Y891907D02*
D03*
X1021667Y882907D02*
D03*
X1030667D02*
D03*
X1039667Y891907D02*
D03*
Y882907D02*
D03*
Y873907D02*
D03*
Y864907D02*
D03*
Y855907D02*
D03*
X1030667D02*
D03*
Y864907D02*
D03*
Y873907D02*
D03*
X1039667Y846907D02*
D03*
X1030667D02*
D03*
X1048667Y891907D02*
D03*
Y882907D02*
D03*
Y873907D02*
D03*
Y864907D02*
D03*
Y855907D02*
D03*
Y846907D02*
D03*
X1021667D02*
D03*
Y855907D02*
D03*
Y864907D02*
D03*
Y873907D02*
D03*
Y891907D02*
D03*
D18*
X1057667Y833157D02*
D03*
X1062167D02*
D03*
X1026167D02*
D03*
X1008167Y905657D02*
D03*
X1012667D02*
D03*
X1017167D02*
D03*
X1021667D02*
D03*
X1026167D02*
D03*
X1030667D02*
D03*
X1035167D02*
D03*
X1039667D02*
D03*
X1044167D02*
D03*
X1048667D02*
D03*
X1053167D02*
D03*
X1057667D02*
D03*
X1062167D02*
D03*
X1053167Y833157D02*
D03*
X1048667D02*
D03*
X1044167D02*
D03*
X1039667D02*
D03*
X1035167D02*
D03*
X1030667D02*
D03*
X1021667D02*
D03*
X1017167D02*
D03*
X1012667D02*
D03*
X1008167D02*
D03*
D19*
X1178735Y990754D02*
D03*
X1169235D02*
D03*
Y966754D02*
D03*
X1188235D02*
D03*
Y990754D02*
D03*
X1087521Y965602D02*
D03*
X1097021D02*
D03*
X1106521D02*
D03*
Y989602D02*
D03*
X1087521D02*
D03*
D20*
X1208133Y791847D02*
D03*
X1251133Y791847D02*
D03*
X1208431Y770049D02*
D03*
X1251431D02*
D03*
D21*
X1250814Y736119D02*
D03*
X1207814D02*
D03*
X1250516Y757917D02*
D03*
X1207516D02*
D03*
D22*
X1065667Y935257D02*
D03*
X1004667D02*
D03*
D23*
X1066917Y833157D02*
D03*
X1003417D02*
D03*
X1066917Y905657D02*
D03*
D24*
Y900907D02*
D03*
Y896407D02*
D03*
Y891907D02*
D03*
Y887407D02*
D03*
Y882907D02*
D03*
Y878407D02*
D03*
Y873907D02*
D03*
Y869407D02*
D03*
Y864907D02*
D03*
Y860407D02*
D03*
Y855907D02*
D03*
Y851407D02*
D03*
Y846907D02*
D03*
Y842407D02*
D03*
Y837907D02*
D03*
X1003417D02*
D03*
Y842407D02*
D03*
Y846907D02*
D03*
Y851407D02*
D03*
Y855907D02*
D03*
Y860407D02*
D03*
Y864907D02*
D03*
Y869407D02*
D03*
Y873907D02*
D03*
Y878407D02*
D03*
Y882907D02*
D03*
Y887407D02*
D03*
Y891907D02*
D03*
Y896407D02*
D03*
Y900907D02*
D03*
D25*
Y905657D02*
D03*
D26*
X1203181Y936520D02*
D03*
X1172681D02*
D03*
D27*
X1199641Y842364D02*
D03*
X1244641D02*
D03*
D28*
X1200053Y889730D02*
D03*
Y908730D02*
D03*
X1223564D02*
D03*
Y899230D02*
D03*
D29*
Y889730D02*
D03*
D30*
X1221232Y946372D02*
D03*
Y937800D02*
D03*
D31*
X1066932Y789912D02*
D03*
X1071932Y789912D02*
D03*
X1076932Y789912D02*
D03*
X1081932Y789912D02*
D03*
X1081932Y813162D02*
D03*
X1076932Y813163D02*
D03*
X1071932Y813162D02*
D03*
X1066932Y813162D02*
D03*
D32*
X1083557Y796537D02*
D03*
Y801537D02*
D03*
X1083557Y806537D02*
D03*
X1065307Y806537D02*
D03*
Y801537D02*
D03*
X1065307Y796537D02*
D03*
D33*
X1095796Y943959D02*
D03*
X1103796D02*
D03*
X1141290Y983570D02*
D03*
X1149290D02*
D03*
X1101280Y1011244D02*
D03*
X1093280D02*
D03*
X1180782Y1012397D02*
D03*
X1172782D02*
D03*
D34*
X1147890Y868520D02*
D03*
Y848520D02*
D03*
X1169532Y868520D02*
D03*
Y848520D02*
D03*
D35*
X1148080Y820480D02*
D03*
Y827980D02*
D03*
X1169670Y820480D02*
D03*
Y827980D02*
D03*
D42*
X1073658Y831596D02*
D03*
X1075198Y840994D02*
D03*
X1251133Y791847D02*
D03*
X1058926Y789686D02*
D03*
X1210310Y792480D02*
D03*
X1250188Y769874D02*
D03*
X1244751Y737513D02*
D03*
X1060264Y780112D02*
D03*
X1073222Y778706D02*
D03*
X1147318Y742442D02*
D03*
X1247648Y878840D02*
D03*
X1083778Y804347D02*
D03*
X1054246Y811506D02*
D03*
X1012262Y846748D02*
D03*
X1012533Y821362D02*
D03*
X995934Y840740D02*
D03*
X1201420Y957072D02*
D03*
X1030667Y891907D02*
D03*
X1135671Y803961D02*
D03*
X1177795Y887453D02*
D03*
X1136650Y742950D02*
D03*
X1179115Y867996D02*
D03*
X1011909Y860413D02*
D03*
X1233170Y807720D02*
D03*
X1243330Y821690D02*
D03*
X994811Y859748D02*
D03*
X1158218Y914515D02*
D03*
X1169943Y914635D02*
D03*
X1185856Y914994D02*
D03*
X1177870Y893898D02*
D03*
X1059040Y840837D02*
D03*
X1039740Y883022D02*
D03*
X1012270Y901791D02*
D03*
X1019310Y901577D02*
D03*
X1011345Y883345D02*
D03*
D43*
X1103780Y879957D02*
G03*
X1103734Y880006I-1261J-1140D01*
G01*
X1097570Y886170D02*
G03*
X1088898Y889762I-8672J-8672D01*
G01*
X1061338Y795509D02*
G03*
X1058926Y789686I5823J-5823D01*
G01*
X1103630Y828817D02*
G03*
X1097354Y843968I-21427J0D01*
G01*
D02*
G03*
X1079394Y851407I-17960J-17960D01*
G01*
X1094650Y789354D02*
G03*
X1089899Y777884I11470J-11470D01*
G01*
X1100477Y795181D02*
G03*
X1103630Y802794I-7613J7613D01*
G01*
X1094745Y854705D02*
G03*
X1094740Y854710I-14109J-14099D01*
G01*
X1094890Y772386D02*
G03*
X1097323Y777362I-4938J5498D01*
G01*
X1094919Y854528D02*
G03*
X1094745Y854705I-14283J-13922D01*
G01*
X1094740Y854710D02*
G03*
X1080986Y860407I-13754J-13754D01*
G01*
X1096010Y858520D02*
G03*
X1080590Y864907I-15420J-15420D01*
G01*
X1127717Y843026D02*
G03*
X1127718Y842959I1700J0D01*
G01*
X1127946Y837154D02*
G03*
X1127936Y837451I-35238J-1093D01*
G01*
X1127717Y843026D02*
G03*
X1120697Y861254I-27174J0D01*
G01*
X1128982Y803754D02*
G03*
X1130149Y800181I6689J207D01*
G01*
X1129506Y769010D02*
G03*
X1131044Y771017I-5009J5433D01*
G01*
X1113905Y777820D02*
G03*
X1113896Y777730I15346J-1563D01*
G01*
X1131316Y771392D02*
G03*
X1131044Y771017I1229J-1174D01*
G01*
X1117099Y775126D02*
G03*
X1117085Y774939I7359J-680D01*
G01*
X1129506Y769010D02*
G03*
X1129213Y768649I1159J-1243D01*
G01*
X1131570Y771652D02*
G03*
X1131316Y771392I11293J-11293D01*
G01*
X1129213Y768649D02*
G03*
X1127234Y763647I13650J-8290D01*
G01*
X1131570Y771652D02*
G03*
X1133856Y777171I-5519J5519D01*
G01*
X1121998Y767769D02*
G03*
X1121892Y767178I1594J-591D01*
G01*
X1131437Y798299D02*
G03*
X1132840Y797560I1403J961D01*
G01*
X1105996Y865043D02*
G03*
X1105993Y865047I-1207J-1197D01*
G01*
X1131962Y761409D02*
G03*
X1131892Y760929I1631J-480D01*
G01*
X1133972Y767830D02*
G03*
X1133689Y767273I1348J-1036D01*
G01*
X1134867Y768853D02*
G03*
X1133972Y767830I7246J-7235D01*
G01*
X1133856Y778002D02*
G03*
X1131521Y783639I-7972J0D01*
G01*
X1134867Y768853D02*
G03*
X1139190Y779283I-10419J10430D01*
G01*
X1116076Y758447D02*
G03*
X1116892Y756476I2787J0D01*
G01*
X1017150Y810207D02*
G03*
X1027438Y805942I10288J10274D01*
G01*
X1048272Y802289D02*
G03*
X1029898Y805942I-18364J-44336D01*
G01*
X1052735Y799305D02*
G03*
X1048272Y802289I-9719J-9706D01*
G01*
X1012533Y821362D02*
G03*
X1017150Y810207I15785J-0D01*
G01*
X1052735Y799305D02*
G03*
X1059426Y796537I6690J6704D01*
G01*
X1005761Y847525D02*
G03*
X1005560Y847537I-202J-1688D01*
G01*
X1062167Y830895D02*
G03*
X1067308Y825754I5141J0D01*
G01*
X1139190Y790035D02*
G03*
X1136742Y795944I-8357J0D01*
G01*
D02*
G03*
X1132840Y797560I-3902J-3902D01*
G01*
X1076932Y816130D02*
G03*
X1067308Y825754I-9624J0D01*
G01*
X1097642Y861968D02*
G03*
X1079682Y869407I-17960J-17960D01*
G01*
X1098222Y866468D02*
G03*
X1080262Y873907I-17960J-17960D01*
G01*
X1100072Y870968D02*
G03*
X1082112Y878407I-17960J-17960D01*
G01*
X1101922Y875468D02*
G03*
X1083962Y882907I-17960J-17960D01*
G01*
X1103729Y880011D02*
X1103734Y880006D01*
X1097570Y886170D02*
X1103729Y880011D01*
X1061338Y795509D02*
X1062366Y796537D01*
X1029898Y805942D02*
Y805942D01*
X1062366Y796537D02*
X1065307D01*
X1059426D02*
X1062366D01*
X1103630Y802794D02*
Y828817D01*
X1066917Y851407D02*
X1079394D01*
X1094650Y789354D02*
X1100477Y795181D01*
X1096892Y756476D02*
Y763681D01*
X1087628Y767588D02*
X1092651Y770374D01*
X1094890Y772386D01*
X1097642Y861968D02*
X1101271Y858339D01*
X1106976Y757392D02*
X1107536Y763553D01*
X1127718Y842959D02*
X1127936Y837451D01*
X1127946Y837154D02*
X1128982Y803754D01*
X1103780Y879957D02*
X1120697Y861254D01*
X1098222Y866468D02*
X1103811Y860880D01*
X1116076Y758447D02*
X1116076Y759786D01*
X1126892Y760359D02*
X1127234Y763626D01*
X1113541Y774030D02*
X1113881Y777572D01*
X1116076Y759786D02*
X1117084Y774939D01*
X1113881Y777572D02*
X1113896Y777730D01*
X1111892Y756476D02*
X1112542Y763620D01*
X1127234Y763626D02*
Y763647D01*
X1131316Y771392D02*
X1131316D01*
X1112542Y763620D02*
X1113541Y774030D01*
X1121998Y767769D02*
X1124497Y774443D01*
X1121892Y756476D02*
Y767178D01*
X1130149Y800181D02*
X1131437Y798299D01*
X1100072Y870968D02*
X1105991Y865049D01*
X1105993Y865047D01*
X1101922Y875468D02*
X1106269Y871121D01*
X1131962Y761409D02*
X1133689Y767273D01*
X1131892Y756476D02*
Y760929D01*
X1139190Y779283D02*
Y790035D01*
X1130808Y784352D02*
X1131521Y783639D01*
X1133856Y777171D02*
Y778002D01*
X1106269Y871121D02*
X1106271Y871119D01*
X1057535Y821569D02*
Y833025D01*
X1057402Y821436D02*
X1057535Y821569D01*
X1055184Y806236D02*
Y810568D01*
X1059882Y801537D02*
X1065307D01*
X1055184Y806236D02*
X1059882Y801537D01*
X1027447Y805942D02*
X1029898D01*
X1027438Y805942D02*
X1027447Y805942D01*
X1054246Y811506D02*
X1055184Y810568D01*
X1008167Y825728D02*
X1012533Y821362D01*
X1005761Y847525D02*
X1012262Y846748D01*
X1004047Y847537D02*
X1005559D01*
X1003417Y846907D02*
X1004047Y847537D01*
X1005559D02*
X1005560Y847537D01*
X1057535Y833025D02*
X1057667Y833157D01*
X1008167Y825728D02*
Y833157D01*
X1126892Y756476D02*
Y760359D01*
X1076932Y813163D02*
Y816130D01*
X1062167Y830895D02*
Y833157D01*
X1180782Y1002599D02*
Y1012397D01*
X1178735Y990754D02*
X1180782Y992801D01*
X1169235Y1008849D02*
X1172782Y1012397D01*
X1169235Y990754D02*
Y1008849D01*
X1066917Y860407D02*
X1080986D01*
X1066917Y864907D02*
X1080590D01*
X1096010Y858520D02*
X1097460Y857069D01*
X1066917Y869407D02*
X1079682D01*
X1066917Y873907D02*
X1080262D01*
X1066917Y878407D02*
X1082112D01*
X1066917Y882907D02*
X1083962D01*
D44*
X1086730Y890660D02*
G03*
X1088898Y889762I2168J2168D01*
G01*
X1074166Y907796D02*
G03*
X1077399Y899991I11038J0D01*
G01*
X1074166Y907796D02*
G03*
X1070610Y911352I-3556J0D01*
G01*
X1065084D02*
G03*
X1063244Y910590I0J-2602D01*
G01*
D02*
G03*
X1062167Y907990I2600J-2600D01*
G01*
X1077399Y899991D02*
X1086730Y890660D01*
X1065084Y911352D02*
X1070610D01*
X1062167Y905657D02*
Y907990D01*
D45*
X1188720Y778510D02*
G03*
X1164168Y753958I0J-24552D01*
G01*
X1186233Y776023D02*
X1188720Y778510D01*
X1171364Y889784D02*
X1173694Y887453D01*
X1177795D01*
X1171364Y889784D02*
Y890514D01*
X1145540D02*
X1171364D01*
X1145540D02*
Y890514D01*
X1168400Y814431D02*
X1175474Y807356D01*
X1168400Y814431D02*
Y819150D01*
X1175474Y803838D02*
Y807356D01*
D46*
X1228394Y767080D02*
G03*
X1223539Y765069I0J-6866D01*
G01*
X1242618Y761188D02*
G03*
X1250516Y757917I7898J7898D01*
G01*
X1207516D02*
G03*
X1222659Y764189I0J21416D01*
G01*
X1242618Y761188D02*
G03*
X1228394Y767080I-14224J-14224D01*
G01*
X1247648Y878840D02*
G03*
X1250442Y885585I-6745J6745D01*
G01*
X1180782Y1002599D02*
G03*
X1178735Y1000552I0J-2047D01*
G01*
X1168793Y915785D02*
G03*
X1169943Y914635I1150J0D01*
G01*
X1100836Y978154D02*
G03*
X1097026Y974344I0J-3810D01*
G01*
X1126223Y966483D02*
G03*
X1126222Y966484I-3035J-3035D01*
G01*
D02*
G03*
X1123188Y967740I-3034J-3036D01*
G01*
X1126223Y966483D02*
X1136650Y956056D01*
X1126222Y966484D02*
X1126223Y966483D01*
X1222659Y764189D02*
X1223539Y765069D01*
X1250442Y885585D02*
Y888503D01*
X1178735Y990754D02*
Y1000552D01*
X1168793Y915785D02*
Y936516D01*
X1097026Y965602D02*
Y974344D01*
X1100836Y978154D02*
X1112774D01*
X1123188Y967740D01*
X1097021Y965602D02*
X1097026D01*
X1087521Y989602D02*
Y1005485D01*
X1093280Y1011244D01*
X1188235Y966754D02*
Y990754D01*
X1087521Y965602D02*
Y989602D01*
X1150620Y819150D02*
X1168400D01*
D47*
X1225791Y777240D02*
G03*
X1208431Y770049I0J-24551D01*
G01*
X1075758Y768717D02*
G03*
X1081932Y774891I0J6175D01*
G01*
X1250188Y769874D02*
G03*
X1232405Y777240I-17783J-17783D01*
G01*
X1081932Y774891D02*
Y789912D01*
X1225791Y777240D02*
X1232405D01*
D48*
X1114552Y840232D02*
G03*
X1111140Y848471I-11651J0D01*
G01*
X1111250Y838454D02*
G03*
X1107838Y846693I-11651J0D01*
G01*
X1103912Y793270D02*
G03*
X1097323Y777362I15908J-15908D01*
G01*
X1107440Y837692D02*
G03*
X1104387Y845063I-10425J0D01*
G01*
X1105400Y789171D02*
G03*
X1101090Y778764I10407J-10407D01*
G01*
X1110234Y788670D02*
G03*
X1104646Y775179I13491J-13491D01*
G01*
X1110234Y788670D02*
G03*
X1114552Y799095I-10425J10425D01*
G01*
X1105154Y794512D02*
G03*
X1107440Y800031I-5519J5519D01*
G01*
X1109399Y777652D02*
G03*
X1109218Y776870I1597J-782D01*
G01*
X1107186Y790956D02*
G03*
X1111250Y800767I-9811J9811D01*
G01*
X1116013Y791163D02*
G03*
X1117380Y795001I-16203J7932D01*
G01*
X1117826Y841079D02*
G03*
X1114111Y850122I-14925J-847D01*
G01*
X1096892Y756476D02*
G03*
X1097280Y757412I-936J936D01*
G01*
Y766826D02*
G03*
X1101090Y776024I-9198J9198D01*
G01*
X1103948Y766404D02*
G03*
X1102983Y764476I1445J-1928D01*
G01*
X1103948Y766404D02*
G03*
X1104646Y767807I-1080J1413D01*
G01*
X1118062Y797929D02*
G03*
X1118108Y798333I-1732J404D01*
G01*
X1102878Y757512D02*
G03*
X1102983Y758106I-1672J604D01*
G01*
X1121120Y841248D02*
G03*
X1118401Y849860I-18219J-1016D01*
G01*
X1119518Y790298D02*
G03*
X1121406Y798333I-16153J8035D01*
G01*
X1114938Y781089D02*
G03*
X1114877Y780956I1587J-803D01*
G01*
D02*
G03*
X1114821Y780799I1648J-669D01*
G01*
X1121406Y836061D02*
G03*
X1121398Y836349I-5076J0D01*
G01*
X1110735Y853950D02*
G03*
X1110660Y854030I-1334J-1176D01*
G01*
X1118108Y836061D02*
G03*
X1118105Y836162I-1778J0D01*
G01*
X1113950Y857024D02*
G03*
X1113711Y857329I-1510J-938D01*
G01*
X1124458Y843026D02*
G03*
X1124462Y842838I4959J0D01*
G01*
X1124704Y836061D02*
G03*
X1124679Y837313I-31996J0D01*
G01*
X1124458Y843026D02*
G03*
X1117453Y859937I-23915J0D01*
G01*
X1124679Y837313D02*
G03*
X1124679Y837322I-31971J-1252D01*
G01*
X1107512Y757173D02*
G03*
X1107634Y757332I-6234J4918D01*
G01*
D02*
G03*
X1107983Y758381I-1429J1058D01*
G01*
X1108699Y766190D02*
G03*
X1107983Y764476I1693J-1714D01*
G01*
X1108699Y766190D02*
G03*
X1109218Y767435I-1259J1255D01*
G01*
X1117219Y776937D02*
G03*
X1117084Y776257I1643J-680D01*
G01*
X1120650Y784862D02*
G03*
X1120255Y784272I1250J-1264D01*
G01*
X1113937Y777818D02*
G03*
X1113897Y777654I1706J-503D01*
G01*
X1120650Y784862D02*
G03*
X1124458Y794058I-9200J9196D01*
G01*
X1124650Y796815D02*
G03*
X1124704Y798333I-21285J1517D01*
G01*
X1124463Y794185D02*
G03*
X1124458Y794058I1774J-126D01*
G01*
X1111250Y800767D02*
Y838454D01*
X1107440Y800031D02*
Y837692D01*
X1102878Y757512D02*
X1102878D01*
X1097460Y857069D02*
X1107838Y846693D01*
X1114552Y799095D02*
Y840232D01*
X1094745Y854705D02*
X1104387Y845063D01*
X1097280Y757412D02*
Y766826D01*
X1101271Y858339D02*
X1111140Y848471D01*
X1094740Y854710D02*
X1094745Y854705D01*
X1103912Y793270D02*
X1105154Y794512D01*
X1101090Y776024D02*
Y778764D01*
X1105400Y789171D02*
X1107186Y790956D01*
X1109399Y777652D02*
X1116013Y791163D01*
X1110735Y853950D02*
X1114111Y850122D01*
X1117380Y795001D02*
X1118062Y797929D01*
X1104646Y767807D02*
Y767807D01*
Y775179D01*
X1102503Y757512D02*
X1102878D01*
X1102983Y758106D02*
Y764476D01*
Y758106D02*
Y758106D01*
X1101892Y756476D02*
X1102503Y757512D01*
X1121120Y841248D02*
X1121398Y836349D01*
X1114938Y781089D02*
X1119518Y790298D01*
X1113950Y857024D02*
X1118401Y849860D01*
X1113711Y857329D02*
X1113711Y857329D01*
X1117826Y841079D02*
X1118105Y836162D01*
X1107983Y763684D02*
Y764476D01*
Y763554D02*
Y763684D01*
Y763553D02*
Y763554D01*
Y758381D02*
Y763553D01*
X1103811Y860880D02*
X1110659Y854031D01*
X1110660Y854030D01*
X1124462Y842838D02*
X1124679Y837322D01*
X1106269Y871121D02*
X1117453Y859937D01*
X1124704Y798333D02*
Y836061D01*
X1118108Y798333D02*
Y836061D01*
X1121406Y798333D02*
Y836061D01*
X1107503Y757173D02*
X1107512D01*
X1107983Y758381D02*
Y758381D01*
X1109218Y767436D02*
Y776870D01*
Y767435D02*
Y767436D01*
X1106892Y756476D02*
X1107503Y757173D01*
X1113942Y777835D02*
X1114821Y780799D01*
X1117219Y776937D02*
X1120255Y784272D01*
X1113937Y777818D02*
X1113942Y777835D01*
X1113881Y777572D02*
X1113897Y777654D01*
X1117084Y774939D02*
Y775126D01*
Y776257D01*
X1124463Y794185D02*
X1124650Y796815D01*
X1105991Y865049D02*
X1113705Y857335D01*
X1113711Y857329D01*
D49*
X1083557Y796537D02*
G03*
X1083805Y796290I247J0D01*
G01*
X1136650Y742950D02*
G03*
X1136892Y743192I0J242D01*
G01*
X1096200Y943416D02*
G03*
X1097021Y945397I-1981J1981D01*
G01*
X1128484Y1003805D02*
G03*
X1110524Y1011244I-17960J-17960D01*
G01*
X1075198Y840994D02*
X1081932Y834260D01*
Y813162D02*
Y834260D01*
Y813162D02*
X1091967D01*
X1093724Y811405D01*
X1083805Y796290D02*
X1091967D01*
X1093724Y798047D01*
Y811405D01*
X1136892Y743192D02*
Y756476D01*
X1158282Y942262D02*
Y958046D01*
X1151890Y964438D02*
X1158282Y958046D01*
X1128484Y1003805D02*
X1133659Y998631D01*
X1167235Y968754D02*
Y975041D01*
X1097021Y945397D02*
Y965602D01*
X1101280Y1011244D02*
X1110524D01*
X1108521Y984602D02*
X1122328D01*
X1142492Y964438D01*
X1151890D01*
X1157408Y983637D02*
X1158639D01*
X1167235Y975041D01*
Y968754D02*
X1169235Y966754D01*
X1106521Y986602D02*
X1108521Y984602D01*
X1106521Y986602D02*
Y989602D01*
X1149324Y983604D02*
X1157375D01*
X1149290Y983570D02*
X1149324Y983604D01*
X1157375D02*
X1157408Y983637D01*
X1245870Y906780D02*
X1246396Y907306D01*
D50*
X1170415Y799483D02*
G03*
X1175474Y803838I-1852J7268D01*
G01*
X1170415Y799483D02*
G03*
X1154684Y779318I5059J-20165D01*
G01*
X1154430Y754380D02*
G03*
X1154684Y754634I0J254D01*
G01*
Y779318D01*
D51*
X1088042Y935257D02*
G03*
X1096200Y943416I0J8158D01*
G01*
X1242432Y903342D02*
Y906780D01*
X1169532Y868520D02*
X1169794Y868258D01*
X1178853D01*
X1179115Y867996D01*
X1065667Y935257D02*
X1088042D01*
D52*
X1117660Y880407D02*
G03*
X1116515Y879261I0J-1145D01*
G01*
X1118536Y880407D02*
G03*
X1118870Y881616I-2021J1210D01*
G01*
X1116515Y879261D02*
G03*
X1118536Y880407I0J2355D01*
G01*
X1117660D02*
X1118536D01*
X1134505D01*
X1118870Y881616D02*
Y925830D01*
D53*
X1237202Y813850D02*
G03*
X1244641Y831811I-17960J17960D01*
G01*
D54*
X1008269Y853997D02*
D03*
D55*
X1208133Y791847D02*
X1251133D01*
X1251133Y791847D01*
D56*
X1224271Y899223D02*
X1238313D01*
X1242432Y903342D01*
D57*
X1032510Y786130D02*
D03*
X1250950Y937514D02*
D03*
D58*
X1175474Y803838D02*
D03*
X1188720Y778510D02*
D03*
D59*
X1230884Y751840D02*
D03*
X1025654Y818942D02*
D03*
X1043366Y819229D02*
D03*
D60*
X1089899Y777884D02*
D03*
X1087628Y767588D02*
D03*
X1124497Y774443D02*
D03*
X1130808Y784352D02*
D03*
X1057402Y821436D02*
D03*
X1075758Y768717D02*
D03*
X1058207Y871254D02*
D03*
X1158282Y942262D02*
D03*
X1168654Y972058D02*
D03*
X1188235Y978754D02*
D03*
X1180782Y1002599D02*
D03*
X1136650Y956056D02*
D03*
X1123188Y967740D02*
D03*
X1087281Y1006292D02*
D03*
X1133659Y998631D02*
D03*
X1118870Y925830D02*
D03*
X1058098Y860714D02*
D03*
X1134505Y880407D02*
D03*
X1116515Y879261D02*
D03*
D61*
X1001184Y824655D02*
D03*
D62*
X1245870Y906780D02*
D03*
M02*
