G04*
G04 #@! TF.GenerationSoftware,Altium Limited,Altium Designer,23.1.1 (15)*
G04*
G04 Layer_Color=16711935*
%FSLAX44Y44*%
%MOMM*%
G71*
G04*
G04 #@! TF.SameCoordinates,B54EA911-69F6-478F-8CB3-DEBD2400B795*
G04*
G04*
G04 #@! TF.FilePolarity,Negative*
G04*
G01*
G75*
%ADD33R,0.5200X0.5200*%
%ADD40C,0.9652*%
%ADD41C,2.2032*%
%ADD42C,0.6604*%
%ADD59C,1.5000*%
%ADD60C,0.8000*%
%ADD61C,0.6096*%
%ADD62C,1.0000*%
G04:AMPARAMS|DCode=65|XSize=0.1925mm|YSize=0.8937mm|CornerRadius=0.0962mm|HoleSize=0mm|Usage=FLASHONLY|Rotation=180.000|XOffset=0mm|YOffset=0mm|HoleType=Round|Shape=RoundedRectangle|*
%AMROUNDEDRECTD65*
21,1,0.1925,0.7012,0,0,180.0*
21,1,0.0000,0.8937,0,0,180.0*
1,1,0.1925,0.0000,0.3506*
1,1,0.1925,0.0000,0.3506*
1,1,0.1925,0.0000,-0.3506*
1,1,0.1925,0.0000,-0.3506*
%
%ADD65ROUNDEDRECTD65*%
G04:AMPARAMS|DCode=66|XSize=0.8937mm|YSize=0.1925mm|CornerRadius=0.0962mm|HoleSize=0mm|Usage=FLASHONLY|Rotation=180.000|XOffset=0mm|YOffset=0mm|HoleType=Round|Shape=RoundedRectangle|*
%AMROUNDEDRECTD66*
21,1,0.8937,0.0000,0,0,180.0*
21,1,0.7012,0.1925,0,0,180.0*
1,1,0.1925,-0.3506,0.0000*
1,1,0.1925,0.3506,0.0000*
1,1,0.1925,0.3506,0.0000*
1,1,0.1925,-0.3506,0.0000*
%
%ADD66ROUNDEDRECTD66*%
%ADD67R,0.8937X0.1925*%
%ADD68R,2.7000X2.7000*%
%ADD75R,1.1581X1.0121*%
%ADD76P,1.6971X4X165.0*%
%ADD77R,1.9000X0.4000*%
%ADD79R,0.5000X0.4000*%
%ADD80R,1.2032X0.9532*%
G04:AMPARAMS|DCode=81|XSize=1.7032mm|YSize=1.2032mm|CornerRadius=0mm|HoleSize=0mm|Usage=FLASHONLY|Rotation=55.000|XOffset=0mm|YOffset=0mm|HoleType=Round|Shape=Rectangle|*
%AMROTATEDRECTD81*
4,1,4,0.0043,-1.0427,-0.9813,-0.3525,-0.0043,1.0427,0.9813,0.3525,0.0043,-1.0427,0.0*
%
%ADD81ROTATEDRECTD81*%

%ADD82R,1.8032X2.6032*%
G36*
X1121519Y855697D02*
X1102519D01*
Y866697D01*
X1121519D01*
Y855697D01*
D02*
G37*
G36*
X1163519Y847697D02*
X1144519D01*
Y861697D01*
X1163519D01*
Y847697D01*
D02*
G37*
G36*
X1121519Y842697D02*
X1102519D01*
Y853697D01*
X1121519D01*
Y842697D01*
D02*
G37*
G36*
X1077936Y804500D02*
X1077336D01*
Y795700D01*
X1077936D01*
Y786700D01*
X1073236D01*
Y795700D01*
X1071436D01*
Y786700D01*
X1066736D01*
Y795700D01*
X1064936D01*
Y786700D01*
X1060236D01*
Y795700D01*
X1060836D01*
Y804500D01*
X1060236D01*
Y813500D01*
X1064936D01*
Y804500D01*
X1066736D01*
Y813500D01*
X1071436D01*
Y804500D01*
X1073236D01*
Y813500D01*
X1077936D01*
Y804500D01*
D02*
G37*
D33*
X1164401Y950252D02*
D03*
X1172402D02*
D03*
X1190816Y978916D02*
D03*
X1198816D02*
D03*
X1013270Y892810D02*
D03*
X1021270D02*
D03*
X1164400Y960882D02*
D03*
X1172400D02*
D03*
D40*
X1030986Y905002D02*
D03*
X1032510Y786130D02*
D03*
X1250950Y937514D02*
D03*
D41*
X1175474Y803838D02*
D03*
X1188720Y778510D02*
D03*
D42*
X1073658Y831596D02*
D03*
X1075198Y840994D02*
D03*
X1251133Y791847D02*
D03*
X1058926Y789686D02*
D03*
X1210310Y792480D02*
D03*
X1250188Y769874D02*
D03*
X1244751Y737513D02*
D03*
X1060264Y780112D02*
D03*
X1073222Y778706D02*
D03*
X1147318Y742442D02*
D03*
X1247648Y878840D02*
D03*
X1083778Y804347D02*
D03*
X1054246Y811506D02*
D03*
X1012262Y846748D02*
D03*
X1012533Y821362D02*
D03*
X995934Y840740D02*
D03*
X1201420Y957072D02*
D03*
X1030667Y891907D02*
D03*
X1177795Y887453D02*
D03*
X1136650Y742950D02*
D03*
X1179115Y867996D02*
D03*
X1011909Y860413D02*
D03*
X1233170Y807720D02*
D03*
X1243330Y821690D02*
D03*
X1158218Y914515D02*
D03*
X1169943Y914635D02*
D03*
X1185856Y914994D02*
D03*
X1177870Y893898D02*
D03*
X1059040Y840837D02*
D03*
X1039740Y883022D02*
D03*
X1011345Y883345D02*
D03*
D59*
X1230884Y751840D02*
D03*
X1025654Y818942D02*
D03*
X1043366Y819229D02*
D03*
D60*
X1089899Y777884D02*
D03*
X1087628Y767588D02*
D03*
X1057402Y821436D02*
D03*
X1075758Y768717D02*
D03*
X1058207Y871254D02*
D03*
X1168654Y972058D02*
D03*
X1188235Y978754D02*
D03*
X1180782Y1002599D02*
D03*
X1136650Y956056D02*
D03*
X1123188Y967740D02*
D03*
X1087281Y1006292D02*
D03*
X1133659Y998631D02*
D03*
X1118870Y925830D02*
D03*
X1058098Y860714D02*
D03*
X1134505Y880407D02*
D03*
X1116515Y879261D02*
D03*
D61*
X1001184Y824655D02*
D03*
D62*
X1245870Y906780D02*
D03*
D65*
X1142486Y982899D02*
D03*
X1138486D02*
D03*
X1134486D02*
D03*
X1130486D02*
D03*
X1126486D02*
D03*
X1122486D02*
D03*
X1118486D02*
D03*
Y943129D02*
D03*
X1122486D02*
D03*
X1126486D02*
D03*
X1130486D02*
D03*
X1134486D02*
D03*
X1138486D02*
D03*
X1142486D02*
D03*
D66*
X1110601Y975014D02*
D03*
Y971014D02*
D03*
Y967014D02*
D03*
Y963015D02*
D03*
Y959015D02*
D03*
Y955014D02*
D03*
Y951014D02*
D03*
X1150371D02*
D03*
Y955014D02*
D03*
Y959015D02*
D03*
Y963015D02*
D03*
Y967014D02*
D03*
Y971014D02*
D03*
D67*
Y975014D02*
D03*
D68*
X1130486Y963015D02*
D03*
D75*
X1033922Y872236D02*
D03*
X1017382D02*
D03*
D76*
X1185908Y914748D02*
D03*
X1196408Y896561D02*
D03*
D77*
X1157556Y897097D02*
D03*
X1157556Y883097D02*
D03*
D79*
X995393Y868100D02*
D03*
Y876099D02*
D03*
D80*
X1116293Y876613D02*
D03*
Y898613D02*
D03*
X1136410Y901872D02*
D03*
Y879872D02*
D03*
D81*
X1089815Y914226D02*
D03*
X1075475Y893747D02*
D03*
D82*
X1107160Y803952D02*
D03*
X1135660D02*
D03*
M02*
