G04*
G04 #@! TF.GenerationSoftware,Altium Limited,Altium Designer,23.1.1 (15)*
G04*
G04 Layer_Physical_Order=2*
G04 Layer_Color=36540*
%FSLAX44Y44*%
%MOMM*%
G71*
G04*
G04 #@! TF.SameCoordinates,B54EA911-69F6-478F-8CB3-DEBD2400B795*
G04*
G04*
G04 #@! TF.FilePolarity,Positive*
G04*
G01*
G75*
%ADD10C,0.2000*%
%ADD42C,0.6604*%
%ADD47C,0.2032*%
%ADD57C,0.7620*%
%ADD58C,2.0000*%
%ADD59C,1.5000*%
%ADD60C,0.8000*%
%ADD61C,0.6096*%
%ADD62C,1.0000*%
G36*
X1185139Y1013590D02*
X1187121Y1013195D01*
X1189056Y1012608D01*
X1190923Y1011835D01*
X1192706Y1010882D01*
X1194387Y1009759D01*
X1195949Y1008476D01*
X1196664Y1007762D01*
X1196664Y1007762D01*
X1197390Y1007036D01*
X1198530Y1005330D01*
X1199315Y1003434D01*
X1199716Y1001421D01*
Y985059D01*
X1199748Y984812D01*
X1199728Y984564D01*
X1199841Y982269D01*
X1199974Y981537D01*
X1200022Y980796D01*
X1200918Y976294D01*
X1201236Y975357D01*
X1201492Y974402D01*
X1203248Y970161D01*
X1203743Y969305D01*
X1204180Y968417D01*
X1206731Y964601D01*
X1207221Y964042D01*
X1207644Y963431D01*
X1209187Y961729D01*
X1209565Y961407D01*
X1209886Y961029D01*
X1211274Y959771D01*
X1211885Y959348D01*
X1212444Y958858D01*
X1215553Y956780D01*
X1216441Y956343D01*
X1217297Y955848D01*
X1220753Y954417D01*
X1221708Y954161D01*
X1222645Y953843D01*
X1226313Y953113D01*
X1227055Y953065D01*
X1227786Y952932D01*
X1229656Y952840D01*
X1229904Y952860D01*
X1230151Y952828D01*
X1243580D01*
X1244408Y950828D01*
X1236910Y943330D01*
Y931698D01*
X1245134Y923474D01*
X1256766D01*
X1259082Y925790D01*
X1260930Y925025D01*
Y760329D01*
Y758286D01*
X1260396Y754235D01*
X1259339Y750289D01*
X1257775Y746514D01*
X1255732Y742975D01*
X1253245Y739734D01*
X1252441Y738930D01*
X1250593Y739695D01*
Y739933D01*
X1247171Y743355D01*
X1242331D01*
X1238909Y739933D01*
Y735094D01*
X1240968Y733034D01*
X1240578Y731073D01*
X1239801Y730751D01*
X1235855Y729694D01*
X1231804Y729160D01*
X1059360D01*
Y741379D01*
X1059328Y741626D01*
X1059348Y741874D01*
X1059235Y744169D01*
X1059102Y744901D01*
X1059054Y745642D01*
X1058158Y750144D01*
X1057840Y751081D01*
X1057584Y752036D01*
X1055828Y756277D01*
X1055333Y757133D01*
X1054895Y758020D01*
X1052345Y761837D01*
X1051855Y762396D01*
X1051432Y763007D01*
X1049889Y764709D01*
X1049511Y765031D01*
X1049190Y765409D01*
X1048338Y766181D01*
X1047727Y766604D01*
X1047168Y767094D01*
X1045260Y768369D01*
X1044373Y768806D01*
X1043516Y769301D01*
X1041396Y770179D01*
X1040441Y770435D01*
X1039736Y770674D01*
X1039389Y771369D01*
X1039107Y772871D01*
X1046550Y780314D01*
Y791946D01*
X1038326Y800170D01*
X1026694D01*
X1020654Y794129D01*
X1018740Y794710D01*
X1018624Y795294D01*
X1018464Y795764D01*
X1018383Y796254D01*
X1017510Y799133D01*
X1017305Y799585D01*
X1017176Y800065D01*
X1016025Y802845D01*
X1015776Y803275D01*
X1015601Y803740D01*
X1014183Y806393D01*
X1013894Y806797D01*
X1013674Y807242D01*
X1012003Y809744D01*
X1011675Y810117D01*
X1011413Y810539D01*
X1009504Y812865D01*
X1009232Y813120D01*
X1009012Y813421D01*
X1007975Y814511D01*
X1007878Y814589D01*
X1007802Y814688D01*
X1003477Y819013D01*
X1003499Y819068D01*
X1004844Y820412D01*
X1006692Y819647D01*
Y818942D01*
X1010114Y815520D01*
X1014953D01*
X1015614Y815246D01*
Y814783D01*
X1021496Y808902D01*
X1029813D01*
X1034654Y813743D01*
X1039207Y809189D01*
X1047525D01*
X1049243Y808247D01*
X1051826Y805664D01*
X1056665D01*
X1060088Y809086D01*
Y813926D01*
X1060484Y814760D01*
X1060961Y815015D01*
X1062961Y813857D01*
Y796197D01*
X1061346Y795528D01*
X1056506D01*
X1053084Y792106D01*
Y787266D01*
X1056120Y784230D01*
X1054422Y782532D01*
Y777692D01*
X1057844Y774270D01*
X1062684D01*
X1065380Y776967D01*
X1067380Y776286D01*
X1067455Y776212D01*
X1070729Y772937D01*
X1069218Y771425D01*
Y766008D01*
X1073049Y762177D01*
X1078466D01*
X1081128Y764838D01*
X1084919Y761048D01*
X1090337D01*
X1094168Y764879D01*
Y770297D01*
X1092864Y771601D01*
X1096439Y775175D01*
Y780593D01*
X1092607Y784424D01*
X1087189D01*
X1083359Y780593D01*
Y775175D01*
X1084662Y773871D01*
X1082257Y771466D01*
X1078467Y775257D01*
X1078340Y775562D01*
X1079064Y776286D01*
Y777436D01*
X1073222D01*
Y778706D01*
X1071952D01*
Y784548D01*
X1071950D01*
X1070574Y786453D01*
X1070659Y786658D01*
Y819194D01*
X1071472D01*
X1068998Y825166D01*
X1070694Y826299D01*
X1071238Y825754D01*
X1072388D01*
Y831596D01*
X1073658D01*
Y832866D01*
X1079500D01*
Y834016D01*
X1077991Y835525D01*
X1081040Y838574D01*
Y843414D01*
X1077618Y846836D01*
X1072778D01*
X1069356Y843414D01*
Y838574D01*
X1070865Y837065D01*
X1067816Y834016D01*
Y831383D01*
X1065816Y830047D01*
X1059681Y832588D01*
Y832588D01*
X1059681D01*
X1059371Y832995D01*
X1060362Y834995D01*
X1061460D01*
X1064882Y838417D01*
Y839567D01*
X1053198D01*
Y838417D01*
X1055191Y836424D01*
X1054058Y834729D01*
X1049779Y836501D01*
Y834429D01*
X1044809D01*
Y836666D01*
X1031152Y842323D01*
X1029904Y841076D01*
X1028531Y842115D01*
X1028442Y844165D01*
X1029307Y845030D01*
X1025998Y853020D01*
X1023760D01*
X1020289Y861400D01*
X1017751Y862451D01*
Y862833D01*
X1014329Y866255D01*
X1009489D01*
X1006067Y862833D01*
Y857993D01*
X1009489Y854571D01*
X1009796D01*
X1009823Y852571D01*
X1006420Y849168D01*
X1004419Y848341D01*
X1000167Y852593D01*
X1001847Y854273D01*
X1001847Y854273D01*
X1002702Y855128D01*
X1002228Y856273D01*
X1002216D01*
X1000653Y858092D01*
Y862168D01*
X997231Y865590D01*
X994590D01*
Y907841D01*
X1007230D01*
X1008058Y905841D01*
X1006428Y904211D01*
Y903061D01*
X1012270D01*
Y901791D01*
X1013540D01*
Y895949D01*
X1014690D01*
X1015683Y896942D01*
X1016890Y895735D01*
X1018040D01*
Y901577D01*
X1019310D01*
Y902847D01*
X1025152D01*
Y903997D01*
X1023308Y905841D01*
X1024137Y907841D01*
X1070610D01*
X1072554Y908646D01*
X1073359Y910590D01*
Y944307D01*
X1073686Y944558D01*
X1074742Y945614D01*
X1075344Y946399D01*
X1075997Y947142D01*
X1076826Y948384D01*
X1077264Y949271D01*
X1077759Y950128D01*
X1078330Y951508D01*
X1078586Y952464D01*
X1078904Y953400D01*
X1079196Y954865D01*
X1079244Y955607D01*
X1079377Y956338D01*
X1079414Y957085D01*
X1079394Y957333D01*
X1079426Y957580D01*
Y1002070D01*
X1081426Y1002898D01*
X1084572Y999753D01*
X1089990D01*
X1093821Y1003584D01*
Y1009001D01*
X1091035Y1011788D01*
X1091863Y1013788D01*
X1183127D01*
X1185139Y1013590D01*
D02*
G37*
G36*
X1018416Y842288D02*
X1020803Y836525D01*
X1020803D01*
X1022753Y836337D01*
X1023792Y834964D01*
X1022647Y833818D01*
X1029494Y830982D01*
X1029096Y828982D01*
X1021496D01*
X1017336Y824822D01*
X1014953Y827204D01*
X1010114D01*
X1009023Y826113D01*
X1007327Y827246D01*
X1010642Y835248D01*
X1010656Y835282D01*
X1010656D01*
X1010339Y837122D01*
X1010339D01*
X1010329Y837147D01*
X1009551Y839026D01*
X1010937Y840906D01*
X1014681D01*
X1016454Y842679D01*
X1018416Y842288D01*
D02*
G37*
%LPC*%
G36*
X1183491Y1009139D02*
X1182052D01*
Y1003869D01*
X1187322D01*
Y1005308D01*
X1183491Y1009139D01*
D02*
G37*
G36*
X1179512D02*
X1178073D01*
X1174242Y1005308D01*
Y1003869D01*
X1179512D01*
Y1009139D01*
D02*
G37*
G36*
X1136368Y1005171D02*
X1134929D01*
Y999901D01*
X1140199D01*
Y1001339D01*
X1136368Y1005171D01*
D02*
G37*
G36*
X1132389D02*
X1130950D01*
X1127119Y1001339D01*
Y999901D01*
X1132389D01*
Y1005171D01*
D02*
G37*
G36*
X1187322Y1001329D02*
X1182052D01*
Y996059D01*
X1183491D01*
X1187322Y999890D01*
Y1001329D01*
D02*
G37*
G36*
X1179512D02*
X1174242D01*
Y999890D01*
X1178073Y996059D01*
X1179512D01*
Y1001329D01*
D02*
G37*
G36*
X1140199Y997361D02*
X1134929D01*
Y992091D01*
X1136368D01*
X1140199Y995922D01*
Y997361D01*
D02*
G37*
G36*
X1132389D02*
X1127119D01*
Y995922D01*
X1130950Y992091D01*
X1132389D01*
Y997361D01*
D02*
G37*
G36*
X1190944Y985294D02*
X1185526D01*
X1181695Y981463D01*
Y976045D01*
X1185526Y972214D01*
X1190944D01*
X1194775Y976045D01*
Y981463D01*
X1190944Y985294D01*
D02*
G37*
G36*
X1125897Y974280D02*
X1124458D01*
Y969010D01*
X1129728D01*
Y970449D01*
X1125897Y974280D01*
D02*
G37*
G36*
X1121918D02*
X1120479D01*
X1116648Y970449D01*
Y969010D01*
X1121918D01*
Y974280D01*
D02*
G37*
G36*
X1171363Y978598D02*
X1165945D01*
X1162114Y974767D01*
Y969349D01*
X1165945Y965518D01*
X1171363D01*
X1175194Y969349D01*
Y974767D01*
X1171363Y978598D01*
D02*
G37*
G36*
X1129728Y966470D02*
X1124458D01*
Y961200D01*
X1125897D01*
X1129728Y965031D01*
Y966470D01*
D02*
G37*
G36*
X1121918D02*
X1116648D01*
Y965031D01*
X1120479Y961200D01*
X1121918D01*
Y966470D01*
D02*
G37*
G36*
X1203840Y962914D02*
X1202690D01*
Y958342D01*
X1207262D01*
Y959492D01*
X1203840Y962914D01*
D02*
G37*
G36*
X1200150D02*
X1199000D01*
X1195578Y959492D01*
Y958342D01*
X1200150D01*
Y962914D01*
D02*
G37*
G36*
X1139359Y962596D02*
X1137920D01*
Y957326D01*
X1143190D01*
Y958765D01*
X1139359Y962596D01*
D02*
G37*
G36*
X1135380D02*
X1133941D01*
X1130110Y958765D01*
Y957326D01*
X1135380D01*
Y962596D01*
D02*
G37*
G36*
X1207262Y955802D02*
X1202690D01*
Y951230D01*
X1203840D01*
X1207262Y954652D01*
Y955802D01*
D02*
G37*
G36*
X1200150D02*
X1195578D01*
Y954652D01*
X1199000Y951230D01*
X1200150D01*
Y955802D01*
D02*
G37*
G36*
X1143190Y954786D02*
X1137920D01*
Y949516D01*
X1139359D01*
X1143190Y953347D01*
Y954786D01*
D02*
G37*
G36*
X1135380D02*
X1130110D01*
Y953347D01*
X1133941Y949516D01*
X1135380D01*
Y954786D01*
D02*
G37*
G36*
X1160991Y948802D02*
X1155573D01*
X1151742Y944971D01*
Y939554D01*
X1155573Y935723D01*
X1160991D01*
X1164822Y939554D01*
Y944971D01*
X1160991Y948802D01*
D02*
G37*
G36*
X1121579Y932370D02*
X1116161D01*
X1112330Y928539D01*
Y923121D01*
X1116161Y919290D01*
X1121579D01*
X1125410Y923121D01*
Y928539D01*
X1121579Y932370D01*
D02*
G37*
G36*
X1172363Y920477D02*
X1167524D01*
X1165435Y918389D01*
X1164101Y917055D01*
X1162640Y918355D01*
X1160638Y920357D01*
X1155798D01*
X1152376Y916935D01*
Y912095D01*
X1155798Y908673D01*
X1160638D01*
X1162727Y910762D01*
X1164060Y912095D01*
X1165521Y910795D01*
X1167524Y908793D01*
X1172363D01*
X1175786Y912215D01*
Y917055D01*
X1172363Y920477D01*
D02*
G37*
G36*
X1188276Y920836D02*
X1183437D01*
X1180014Y917414D01*
Y912574D01*
X1183437Y909152D01*
X1188276D01*
X1191698Y912574D01*
Y917414D01*
X1188276Y920836D01*
D02*
G37*
G36*
X1248993Y914320D02*
X1247140D01*
Y908050D01*
X1253410D01*
Y909903D01*
X1248993Y914320D01*
D02*
G37*
G36*
X1244600D02*
X1242747D01*
X1238330Y909903D01*
Y908050D01*
X1244600D01*
Y914320D01*
D02*
G37*
G36*
X1253410Y905510D02*
X1247140D01*
Y899240D01*
X1248993D01*
X1253410Y903657D01*
Y905510D01*
D02*
G37*
G36*
X1244600D02*
X1238330D01*
Y903657D01*
X1242747Y899240D01*
X1244600D01*
Y905510D01*
D02*
G37*
G36*
X1011000Y900521D02*
X1006428D01*
Y899371D01*
X1009850Y895949D01*
X1011000D01*
Y900521D01*
D02*
G37*
G36*
X1025152Y900307D02*
X1020580D01*
Y895735D01*
X1021730D01*
X1025152Y899157D01*
Y900307D01*
D02*
G37*
G36*
X1180290Y899740D02*
X1179140D01*
Y895168D01*
X1183712D01*
Y896318D01*
X1180290Y899740D01*
D02*
G37*
G36*
X1176600D02*
X1175450D01*
X1172028Y896318D01*
Y895168D01*
X1176600D01*
Y899740D01*
D02*
G37*
G36*
X1183712Y892628D02*
X1172028D01*
Y891478D01*
X1172793Y890713D01*
X1171953Y889873D01*
Y888723D01*
X1183637D01*
Y889873D01*
X1182872Y890639D01*
X1183712Y891478D01*
Y892628D01*
D02*
G37*
G36*
X1042160Y888864D02*
X1041010D01*
Y884292D01*
X1045582D01*
Y885442D01*
X1042160Y888864D01*
D02*
G37*
G36*
X1033087Y897749D02*
X1028247D01*
X1024825Y894327D01*
Y889488D01*
X1028247Y886065D01*
X1032156D01*
X1033284Y885662D01*
X1033898Y884401D01*
Y884292D01*
X1038470D01*
Y888864D01*
X1038251D01*
X1037123Y889268D01*
X1036509Y890528D01*
Y894327D01*
X1033087Y897749D01*
D02*
G37*
G36*
X1183637Y886183D02*
X1179065D01*
Y881611D01*
X1180215D01*
X1183637Y885034D01*
Y886183D01*
D02*
G37*
G36*
X1176525D02*
X1171953D01*
Y885034D01*
X1175375Y881611D01*
X1176525D01*
Y886183D01*
D02*
G37*
G36*
X1013765Y889187D02*
X1008925D01*
X1005503Y885765D01*
Y880925D01*
X1008925Y877503D01*
X1013765D01*
X1017187Y880925D01*
Y885765D01*
X1013765Y889187D01*
D02*
G37*
G36*
X1045582Y881752D02*
X1041010D01*
Y877180D01*
X1042160D01*
X1045582Y880602D01*
Y881752D01*
D02*
G37*
G36*
X1038470D02*
X1033898D01*
Y880602D01*
X1037320Y877180D01*
X1038470D01*
Y881752D01*
D02*
G37*
G36*
X1137214Y886947D02*
X1131796D01*
X1127965Y883115D01*
Y877698D01*
X1131796Y873867D01*
X1137214D01*
X1141045Y877698D01*
Y883115D01*
X1137214Y886947D01*
D02*
G37*
G36*
X1250068Y884682D02*
X1245228D01*
X1241806Y881260D01*
Y876420D01*
X1245228Y872998D01*
X1250068D01*
X1253490Y876420D01*
Y881260D01*
X1250068Y884682D01*
D02*
G37*
G36*
X1119224Y885801D02*
X1113806D01*
X1109975Y881970D01*
Y876552D01*
X1113806Y872721D01*
X1119224D01*
X1123055Y876552D01*
Y881970D01*
X1119224Y885801D01*
D02*
G37*
G36*
X1181535Y873838D02*
X1176695D01*
X1173273Y870416D01*
Y865576D01*
X1176695Y862154D01*
X1181535D01*
X1184957Y865576D01*
Y870416D01*
X1181535Y873838D01*
D02*
G37*
G36*
X1060916Y877794D02*
X1055498D01*
X1051667Y873963D01*
Y868545D01*
X1054174Y866038D01*
X1051558Y863423D01*
Y858005D01*
X1055389Y854174D01*
X1060807D01*
X1064638Y858005D01*
Y863423D01*
X1062132Y865929D01*
X1064747Y868545D01*
Y873963D01*
X1060916Y877794D01*
D02*
G37*
G36*
X1061460Y846679D02*
X1060310D01*
Y842107D01*
X1064882D01*
Y843257D01*
X1061460Y846679D01*
D02*
G37*
G36*
X1057770D02*
X1056620D01*
X1053198Y843257D01*
Y842107D01*
X1057770D01*
Y846679D01*
D02*
G37*
G36*
X1079500Y830326D02*
X1074928D01*
Y825754D01*
X1076078D01*
X1079500Y829176D01*
Y830326D01*
D02*
G37*
G36*
X1245750Y827532D02*
X1240910D01*
X1237488Y824110D01*
Y819270D01*
X1240910Y815848D01*
X1245750D01*
X1249172Y819270D01*
Y824110D01*
X1245750Y827532D01*
D02*
G37*
G36*
X1086198Y810189D02*
X1085048D01*
Y805617D01*
X1089620D01*
Y806767D01*
X1086198Y810189D01*
D02*
G37*
G36*
X1082508D02*
X1081358D01*
X1077936Y806767D01*
Y805617D01*
X1082508D01*
Y810189D01*
D02*
G37*
G36*
X1180669Y816378D02*
X1176744D01*
Y805108D01*
X1188014D01*
Y809033D01*
X1180669Y816378D01*
D02*
G37*
G36*
X1174204D02*
X1170280D01*
X1162934Y809033D01*
Y805108D01*
X1174204D01*
Y816378D01*
D02*
G37*
G36*
X1235590Y813562D02*
X1230750D01*
X1227328Y810140D01*
Y805300D01*
X1230750Y801878D01*
X1235590D01*
X1239012Y805300D01*
Y810140D01*
X1235590Y813562D01*
D02*
G37*
G36*
X1089620Y803077D02*
X1085048D01*
Y798505D01*
X1086198D01*
X1089620Y801928D01*
Y803077D01*
D02*
G37*
G36*
X1082508D02*
X1077936D01*
Y801928D01*
X1081358Y798505D01*
X1082508D01*
Y803077D01*
D02*
G37*
G36*
X1138091Y809803D02*
X1133251D01*
X1129829Y806381D01*
Y801542D01*
X1133251Y798120D01*
X1138091D01*
X1141513Y801542D01*
Y806381D01*
X1138091Y809803D01*
D02*
G37*
G36*
X1212730Y798322D02*
X1211580D01*
Y793750D01*
X1216152D01*
Y794900D01*
X1212730Y798322D01*
D02*
G37*
G36*
X1209040D02*
X1207890D01*
X1204468Y794900D01*
Y793750D01*
X1209040D01*
Y798322D01*
D02*
G37*
G36*
X1253553Y797689D02*
X1252403D01*
Y793117D01*
X1256975D01*
Y794267D01*
X1253553Y797689D01*
D02*
G37*
G36*
X1249863D02*
X1248713D01*
X1245291Y794267D01*
Y793117D01*
X1249863D01*
Y797689D01*
D02*
G37*
G36*
X1188014Y802568D02*
X1176744D01*
Y791298D01*
X1180669D01*
X1188014Y798644D01*
Y802568D01*
D02*
G37*
G36*
X1174204D02*
X1162934D01*
Y798644D01*
X1170280Y791298D01*
X1174204D01*
Y802568D01*
D02*
G37*
G36*
X1216152Y791210D02*
X1211580D01*
Y786638D01*
X1212730D01*
X1216152Y790060D01*
Y791210D01*
D02*
G37*
G36*
X1209040D02*
X1204468D01*
Y790060D01*
X1207890Y786638D01*
X1209040D01*
Y791210D01*
D02*
G37*
G36*
X1256975Y790577D02*
X1252403D01*
Y786005D01*
X1253553D01*
X1256975Y789427D01*
Y790577D01*
D02*
G37*
G36*
X1249863D02*
X1245291D01*
Y789427D01*
X1248713Y786005D01*
X1249863D01*
Y790577D01*
D02*
G37*
G36*
X1075642Y784548D02*
X1074492D01*
Y779976D01*
X1079064D01*
Y781126D01*
X1075642Y784548D01*
D02*
G37*
G36*
X1133517Y790892D02*
X1128099D01*
X1124268Y787061D01*
Y781643D01*
X1123995Y780983D01*
X1121788D01*
X1117957Y777152D01*
Y771734D01*
X1121788Y767903D01*
X1127206D01*
X1131037Y771734D01*
Y777152D01*
X1131310Y777812D01*
X1133517D01*
X1137348Y781643D01*
Y787061D01*
X1133517Y790892D01*
D02*
G37*
G36*
X1193914Y791050D02*
X1183526D01*
X1176180Y783704D01*
Y773316D01*
X1183526Y765970D01*
X1193914D01*
X1201260Y773316D01*
Y783704D01*
X1193914Y791050D01*
D02*
G37*
G36*
X1252608Y775716D02*
X1247768D01*
X1244346Y772294D01*
Y767454D01*
X1247768Y764032D01*
X1252608D01*
X1256030Y767454D01*
Y772294D01*
X1252608Y775716D01*
D02*
G37*
G36*
X1235043Y761880D02*
X1226725D01*
X1220844Y755999D01*
Y747681D01*
X1226725Y741800D01*
X1235043D01*
X1240924Y747681D01*
Y755999D01*
X1235043Y761880D01*
D02*
G37*
G36*
X1139070Y748792D02*
X1134230D01*
X1130808Y745370D01*
Y740530D01*
X1134230Y737108D01*
X1139070D01*
X1141730Y739768D01*
X1144898Y736600D01*
X1149738D01*
X1153160Y740022D01*
Y744862D01*
X1149738Y748284D01*
X1144898D01*
X1142238Y745624D01*
X1139070Y748792D01*
D02*
G37*
%LPD*%
D10*
X1005586Y837122D02*
G03*
X1002309Y845033I-11187J0D01*
G01*
X994811Y856273D02*
G03*
X997458Y849884I9036J0D01*
G01*
X1001184Y824655D02*
G03*
X1005586Y835282I-10626J10626D01*
G01*
X997458Y849884D02*
X1002309Y845033D01*
X1005586Y835282D02*
Y837122D01*
X994811Y856273D02*
Y859748D01*
D42*
X1073658Y831596D02*
D03*
X1075198Y840994D02*
D03*
X1251133Y791847D02*
D03*
X1058926Y789686D02*
D03*
X1210310Y792480D02*
D03*
X1250188Y769874D02*
D03*
X1244751Y737513D02*
D03*
X1060264Y780112D02*
D03*
X1073222Y778706D02*
D03*
X1147318Y742442D02*
D03*
X1247648Y878840D02*
D03*
X1083778Y804347D02*
D03*
X1054246Y811506D02*
D03*
X1012262Y846748D02*
D03*
X1012533Y821362D02*
D03*
X995934Y840740D02*
D03*
X1201420Y957072D02*
D03*
X1030667Y891907D02*
D03*
X1135671Y803961D02*
D03*
X1177795Y887453D02*
D03*
X1136650Y742950D02*
D03*
X1179115Y867996D02*
D03*
X1011909Y860413D02*
D03*
X1233170Y807720D02*
D03*
X1243330Y821690D02*
D03*
X994811Y859748D02*
D03*
X1158218Y914515D02*
D03*
X1169943Y914635D02*
D03*
X1185856Y914994D02*
D03*
X1177870Y893898D02*
D03*
X1059040Y840837D02*
D03*
X1039740Y883022D02*
D03*
X1012270Y901791D02*
D03*
X1019310Y901577D02*
D03*
X1011345Y883345D02*
D03*
D47*
X1066810Y819194D02*
G03*
X1058919Y828860I-9866J0D01*
G01*
X1058919Y828860D02*
G03*
X1049779Y830580I-9140J-23429D01*
G01*
X1026849Y838019D02*
G03*
X1044809Y830580I17960J17960D01*
G01*
X1019302Y853020D02*
G03*
X1011909Y860413I-7393J0D01*
G01*
X1019302Y853020D02*
G03*
X1024573Y840295I17996J0D01*
G01*
X1060264Y780112D02*
X1066810Y786658D01*
Y819194D01*
X1044809Y830580D02*
X1049779D01*
X1024573Y840295D02*
X1026849Y838019D01*
D57*
X1032510Y786130D02*
D03*
X1250950Y937514D02*
D03*
D58*
X1175474Y803838D02*
D03*
X1188720Y778510D02*
D03*
D59*
X1230884Y751840D02*
D03*
X1025654Y818942D02*
D03*
X1043366Y819229D02*
D03*
D60*
X1089899Y777884D02*
D03*
X1087628Y767588D02*
D03*
X1124497Y774443D02*
D03*
X1130808Y784352D02*
D03*
X1057402Y821436D02*
D03*
X1075758Y768717D02*
D03*
X1058207Y871254D02*
D03*
X1158282Y942262D02*
D03*
X1168654Y972058D02*
D03*
X1188235Y978754D02*
D03*
X1180782Y1002599D02*
D03*
X1136650Y956056D02*
D03*
X1123188Y967740D02*
D03*
X1087281Y1006292D02*
D03*
X1133659Y998631D02*
D03*
X1118870Y925830D02*
D03*
X1058098Y860714D02*
D03*
X1134505Y880407D02*
D03*
X1116515Y879261D02*
D03*
D61*
X1001184Y824655D02*
D03*
D62*
X1245870Y906780D02*
D03*
M02*
