M48
;Layer_Color=9474304
;FILE_FORMAT=4:4
METRIC,LZ
;TYPE=PLATED
T1F00S00C0.4000
T2F00S00C1.0000
%
T01
X0087376Y0079121
X0101805Y00780503
X00787561Y00736642
X0075311Y007493
X0077978Y0079502
Y0080645
X007874Y0090678
X0075184Y0090043
X0070612Y0084201
X0087503Y008509
X0101805Y00857209
Y00819542
T02
X0089281Y0064008
X009652Y0063119
X0102108Y007366
X0060452Y0072009
X0066802Y0061087
X00755328Y00815619
X00729989Y01015157
X0060198Y0090805
X00893147Y01000325
X0101219Y0090678
M30
