G04*
G04 #@! TF.GenerationSoftware,Altium Limited,Altium Designer,23.1.1 (15)*
G04*
G04 Layer_Color=8388736*
%FSLAX44Y44*%
%MOMM*%
G71*
G04*
G04 #@! TF.SameCoordinates,B2BF10F3-798A-46CE-9BF2-DF2D7B13E792*
G04*
G04*
G04 #@! TF.FilePolarity,Negative*
G04*
G01*
G75*
%ADD14P,0.7354X4X270.0*%
%ADD15R,0.5200X0.5200*%
%ADD16P,0.7354X4X360.0*%
%ADD17R,0.5200X0.5200*%
%ADD19R,1.8032X2.6032*%
%ADD20C,3.0000*%
G04:AMPARAMS|DCode=21|XSize=5.2032mm|YSize=1.2032mm|CornerRadius=0.3516mm|HoleSize=0mm|Usage=FLASHONLY|Rotation=270.000|XOffset=0mm|YOffset=0mm|HoleType=Round|Shape=RoundedRectangle|*
%AMROUNDEDRECTD21*
21,1,5.2032,0.5000,0,0,270.0*
21,1,4.5000,1.2032,0,0,270.0*
1,1,0.7032,-0.2500,-2.2500*
1,1,0.7032,-0.2500,2.2500*
1,1,0.7032,0.2500,2.2500*
1,1,0.7032,0.2500,-2.2500*
%
%ADD21ROUNDEDRECTD21*%
%ADD22C,2.0000*%
%ADD23C,0.8000*%
D14*
X864572Y723422D02*
D03*
X870229Y729079D02*
D03*
X641072Y937877D02*
D03*
X635415Y932220D02*
D03*
X937795Y673636D02*
D03*
X943452Y679293D02*
D03*
D15*
X844930Y1002030D02*
D03*
X836930D02*
D03*
X838010Y638810D02*
D03*
X846010D02*
D03*
D16*
X929928Y966182D02*
D03*
X924272Y971838D02*
D03*
X629632Y712758D02*
D03*
X635288Y707102D02*
D03*
D17*
X587911Y784859D02*
D03*
Y792859D02*
D03*
D19*
X809060Y819110D02*
D03*
X780560D02*
D03*
X809060Y854613D02*
D03*
X780560D02*
D03*
X809060Y783608D02*
D03*
X780560D02*
D03*
D20*
X823448Y614647D02*
X823595Y549095D01*
X787983Y548466D02*
Y736219D01*
X787561Y736642D02*
X787983Y736219D01*
X516534Y842965D02*
X706117Y843391D01*
X706385Y843392D01*
X852150Y881670D02*
X991309Y998438D01*
X821264Y1085201D02*
X821690Y899160D01*
X595944Y646765D02*
X725763Y776584D01*
X517163Y807354D02*
X714858Y807797D01*
X623124Y1028589D02*
X751576Y900136D01*
X786356Y1096691D02*
X786783Y906840D01*
X597724Y1001919D02*
X726176Y873466D01*
X876505Y854042D02*
X1015664Y970811D01*
X823169Y738947D02*
X823448Y614647D01*
X874322Y789874D02*
X1023129Y685679D01*
X853939Y759199D02*
X1002746Y655003D01*
X624090Y620477D02*
X752542Y748929D01*
D21*
X915250Y605953D02*
D03*
X696250D02*
D03*
D22*
X965200Y631190D02*
D03*
X1021080Y736600D02*
D03*
X1012190Y906780D02*
D03*
X893147Y1000325D02*
D03*
X729989Y1015157D02*
D03*
X601980Y908050D02*
D03*
X604520Y720090D02*
D03*
X668020Y610870D02*
D03*
X892810Y640080D02*
D03*
X755328Y815619D02*
D03*
D23*
X779780Y806450D02*
D03*
Y795020D02*
D03*
X787561Y736642D02*
D03*
X706120Y842010D02*
D03*
X753110Y749300D02*
D03*
X751840Y900430D02*
D03*
X787400Y906780D02*
D03*
X873760Y791210D02*
D03*
X875030Y850900D02*
D03*
X1018050Y780503D02*
D03*
Y857209D02*
D03*
Y819542D02*
D03*
M02*
