G04*
G04 #@! TF.GenerationSoftware,Altium Limited,Altium Designer,23.1.1 (15)*
G04*
G04 Layer_Color=65535*
%FSLAX44Y44*%
%MOMM*%
G71*
G04*
G04 #@! TF.SameCoordinates,B2BF10F3-798A-46CE-9BF2-DF2D7B13E792*
G04*
G04*
G04 #@! TF.FilePolarity,Positive*
G04*
G01*
G75*
%ADD10C,1.0000*%
%ADD11C,0.2500*%
%ADD12C,0.2000*%
%ADD13C,0.2540*%
G36*
X822638Y1057955D02*
Y1055370D01*
X822628Y1055585D01*
X822608Y1055789D01*
X822579Y1055984D01*
X822530Y1056160D01*
X822482Y1056326D01*
X822423Y1056482D01*
X822365Y1056628D01*
X822306Y1056755D01*
X822238Y1056872D01*
X822179Y1056970D01*
X822121Y1057057D01*
X822072Y1057126D01*
X822023Y1057184D01*
X821994Y1057223D01*
X821974Y1057243D01*
X821965Y1057252D01*
X821838Y1057379D01*
X821701Y1057486D01*
X821555Y1057574D01*
X821409Y1057662D01*
X821253Y1057730D01*
X821106Y1057779D01*
X820960Y1057828D01*
X820824Y1057867D01*
X820687Y1057896D01*
X820560Y1057916D01*
X820453Y1057935D01*
X820355Y1057945D01*
X820277Y1057955D01*
X820170D01*
X819975Y1057945D01*
X819799Y1057925D01*
X819624Y1057896D01*
X819458Y1057867D01*
X819302Y1057818D01*
X819165Y1057769D01*
X819029Y1057711D01*
X818912Y1057662D01*
X818805Y1057604D01*
X818707Y1057545D01*
X818629Y1057496D01*
X818561Y1057457D01*
X818502Y1057418D01*
X818463Y1057389D01*
X818444Y1057370D01*
X818434Y1057360D01*
X818317Y1057243D01*
X818210Y1057126D01*
X818112Y1056999D01*
X818034Y1056872D01*
X817966Y1056745D01*
X817907Y1056618D01*
X817868Y1056501D01*
X817829Y1056384D01*
X817800Y1056277D01*
X817780Y1056180D01*
X817761Y1056082D01*
X817751Y1056014D01*
X817741Y1055946D01*
Y1055858D01*
X817751Y1055702D01*
X817761Y1055555D01*
X817780Y1055419D01*
X817810Y1055302D01*
X817829Y1055204D01*
X817849Y1055136D01*
X817859Y1055087D01*
X817868Y1055068D01*
X817927Y1054941D01*
X817985Y1054814D01*
X818054Y1054716D01*
X818112Y1054619D01*
X818161Y1054551D01*
X818210Y1054492D01*
X818239Y1054453D01*
X818249Y1054443D01*
X818336Y1054356D01*
X818434Y1054278D01*
X818531Y1054209D01*
X818619Y1054151D01*
X818688Y1054102D01*
X818756Y1054073D01*
X818795Y1054053D01*
X818805Y1054044D01*
X818931Y1053995D01*
X819048Y1053966D01*
X819165Y1053936D01*
X819263Y1053926D01*
X819361Y1053917D01*
X819429Y1053907D01*
X819653D01*
X819799Y1053926D01*
X819936Y1053936D01*
X820053Y1053956D01*
X820151Y1053975D01*
X820229Y1053985D01*
X820268Y1054005D01*
X820287D01*
X820424Y1054053D01*
X820551Y1054121D01*
X820677Y1054190D01*
X820785Y1054268D01*
X820882Y1054336D01*
X820950Y1054395D01*
X820999Y1054434D01*
X821019Y1054443D01*
X820989Y1054307D01*
X820970Y1054170D01*
X820931Y1054044D01*
X820902Y1053926D01*
X820872Y1053839D01*
X820853Y1053761D01*
X820843Y1053722D01*
X820833Y1053702D01*
X820785Y1053566D01*
X820726Y1053448D01*
X820667Y1053332D01*
X820619Y1053234D01*
X820560Y1053146D01*
X820521Y1053088D01*
X820492Y1053039D01*
X820482Y1053029D01*
X820394Y1052912D01*
X820307Y1052815D01*
X820209Y1052717D01*
X820121Y1052639D01*
X820043Y1052571D01*
X819975Y1052522D01*
X819936Y1052493D01*
X819917Y1052483D01*
X819780Y1052395D01*
X819634Y1052327D01*
X819487Y1052259D01*
X819351Y1052200D01*
X819234Y1052151D01*
X819136Y1052122D01*
X819097Y1052112D01*
X819068Y1052103D01*
X819058Y1052093D01*
X819048D01*
X818600Y1052015D01*
X818697Y1051586D01*
X819029Y1051644D01*
X819341Y1051712D01*
X819643Y1051790D01*
X819917Y1051878D01*
X820170Y1051985D01*
X820414Y1052083D01*
X820629Y1052190D01*
X820824Y1052298D01*
X820989Y1052395D01*
X821145Y1052493D01*
X821272Y1052590D01*
X821379Y1052668D01*
X821467Y1052727D01*
X821526Y1052785D01*
X821565Y1052815D01*
X821575Y1052824D01*
X821760Y1053019D01*
X821926Y1053214D01*
X822072Y1053429D01*
X822189Y1053634D01*
X822296Y1053848D01*
X822374Y1054063D01*
X822452Y1054268D01*
X822501Y1054463D01*
X822550Y1054648D01*
X822579Y1054824D01*
X822608Y1054980D01*
X822618Y1055107D01*
X822628Y1055224D01*
X822638Y1055302D01*
Y1051586D01*
Y1051293D01*
X806154D01*
Y1051615D01*
X806037Y1051625D01*
X805920Y1051644D01*
X805871Y1051654D01*
X805832D01*
X805803Y1051664D01*
X805793D01*
X805647Y1051693D01*
X805598Y1051712D01*
X805549Y1051722D01*
X805510Y1051732D01*
X805481Y1051742D01*
X805471Y1051751D01*
X805462D01*
X805384Y1051800D01*
X805325Y1051849D01*
X805286Y1051898D01*
X805276Y1051917D01*
X805247Y1052005D01*
X805228Y1052093D01*
X805218Y1052122D01*
Y1052151D01*
Y1052171D01*
Y1052181D01*
Y1053371D01*
X805247D01*
X805384Y1053292D01*
X805520Y1053234D01*
X805579Y1053205D01*
X805627Y1053185D01*
X805657Y1053175D01*
X805667D01*
X805774Y1053146D01*
X805881Y1053127D01*
X805998Y1053107D01*
X806105Y1053097D01*
X806193D01*
X806271Y1053088D01*
X806339D01*
X806505Y1053097D01*
X806671Y1053117D01*
X806827Y1053146D01*
X806973Y1053185D01*
X807110Y1053234D01*
X807227Y1053292D01*
X807344Y1053351D01*
X807451Y1053410D01*
X807549Y1053468D01*
X807627Y1053527D01*
X807705Y1053585D01*
X807764Y1053634D01*
X807812Y1053673D01*
X807841Y1053702D01*
X807861Y1053722D01*
X807871Y1053731D01*
X807978Y1053858D01*
X808076Y1053985D01*
X808154Y1054112D01*
X808222Y1054248D01*
X808290Y1054375D01*
X808339Y1054502D01*
X808407Y1054746D01*
X808437Y1054863D01*
X808456Y1054960D01*
X808466Y1055048D01*
X808475Y1055126D01*
X808485Y1055194D01*
Y1055282D01*
X808475Y1055468D01*
X808466Y1055653D01*
X808437Y1055819D01*
X808407Y1055975D01*
X808368Y1056121D01*
X808319Y1056258D01*
X808271Y1056384D01*
X808232Y1056501D01*
X808183Y1056599D01*
X808134Y1056687D01*
X808085Y1056765D01*
X808046Y1056823D01*
X808017Y1056872D01*
X807988Y1056911D01*
X807978Y1056931D01*
X807968Y1056940D01*
X807871Y1057048D01*
X807764Y1057145D01*
X807646Y1057233D01*
X807529Y1057311D01*
X807412Y1057370D01*
X807295Y1057418D01*
X807071Y1057496D01*
X806876Y1057545D01*
X806788Y1057555D01*
X806710Y1057565D01*
X806652Y1057574D01*
X806564D01*
X806437Y1057565D01*
X806310Y1057545D01*
X806193Y1057525D01*
X806086Y1057496D01*
X805998Y1057457D01*
X805930Y1057438D01*
X805891Y1057418D01*
X805871Y1057409D01*
X805744Y1057340D01*
X805627Y1057272D01*
X805520Y1057194D01*
X805432Y1057126D01*
X805354Y1057057D01*
X805296Y1057009D01*
X805257Y1056970D01*
X805247Y1056960D01*
X805218Y1056970D01*
Y1057448D01*
X805150Y1057506D01*
X803062Y1057399D01*
Y1057087D01*
X803160Y1057067D01*
X803248Y1057048D01*
X803316Y1057038D01*
X803326Y1057028D01*
X803335D01*
X803433Y1056999D01*
X803501Y1056970D01*
X803550Y1056950D01*
X803560Y1056940D01*
X803638Y1056882D01*
X803687Y1056823D01*
X803716Y1056775D01*
X803726Y1056765D01*
Y1056755D01*
X803764Y1056667D01*
X803784Y1056589D01*
X803803Y1056531D01*
Y1056511D01*
Y1056501D01*
Y1052122D01*
X803794Y1052025D01*
X803774Y1051937D01*
X803755Y1051888D01*
X803745Y1051878D01*
Y1051869D01*
X803696Y1051790D01*
X803638Y1051742D01*
X803579Y1051712D01*
X803569Y1051703D01*
X803560D01*
X803491Y1051683D01*
X803413Y1051664D01*
X803345Y1051654D01*
X803316D01*
X803209Y1051634D01*
X803130Y1051625D01*
X803072Y1051615D01*
X803053D01*
Y1051293D01*
X780102D01*
Y1053029D01*
Y1056180D01*
X780112Y1055897D01*
X780141Y1055643D01*
X780180Y1055409D01*
X780229Y1055204D01*
X780249Y1055116D01*
X780268Y1055038D01*
X780288Y1054980D01*
X780307Y1054921D01*
X780327Y1054873D01*
X780336Y1054843D01*
X780346Y1054824D01*
Y1054814D01*
X780453Y1054600D01*
X780561Y1054414D01*
X780678Y1054248D01*
X780785Y1054102D01*
X780883Y1053985D01*
X780970Y1053897D01*
X781019Y1053848D01*
X781039Y1053839D01*
Y1053829D01*
X781204Y1053692D01*
X781380Y1053566D01*
X781556Y1053458D01*
X781712Y1053380D01*
X781848Y1053312D01*
X781955Y1053263D01*
X781994Y1053244D01*
X782024Y1053234D01*
X782043Y1053224D01*
X782053D01*
X782268Y1053156D01*
X782492Y1053107D01*
X782697Y1053078D01*
X782892Y1053058D01*
X783048Y1053039D01*
X783116D01*
X783175Y1053029D01*
X783292D01*
X783555Y1053039D01*
X783828Y1053068D01*
X784091Y1053097D01*
X784326Y1053146D01*
X784433Y1053166D01*
X784530Y1053185D01*
X784618Y1053205D01*
X784687Y1053214D01*
X784755Y1053234D01*
X784794Y1053244D01*
X784823Y1053253D01*
X784833D01*
X785125Y1053341D01*
X785389Y1053429D01*
X785496Y1053468D01*
X785603Y1053507D01*
X785701Y1053546D01*
X785779Y1053585D01*
X785857Y1053614D01*
X785925Y1053644D01*
X785974Y1053673D01*
X786023Y1053692D01*
X786052Y1053712D01*
X786081Y1053731D01*
X786101Y1053741D01*
X786091Y1053868D01*
Y1053966D01*
Y1054005D01*
Y1054034D01*
Y1054044D01*
Y1054053D01*
Y1054170D01*
Y1054278D01*
Y1054326D01*
Y1054365D01*
Y1054395D01*
Y1054404D01*
Y1055116D01*
X786101Y1055214D01*
X786120Y1055302D01*
X786130Y1055360D01*
X786140Y1055370D01*
Y1055380D01*
X786169Y1055428D01*
X786198Y1055468D01*
X786276Y1055526D01*
X786345Y1055555D01*
X786364Y1055565D01*
X786374D01*
X786481Y1055604D01*
X786559Y1055624D01*
X786608Y1055633D01*
X786627D01*
X786715Y1055653D01*
X786793Y1055663D01*
X786852Y1055672D01*
X786871D01*
Y1056004D01*
X783701D01*
Y1055672D01*
X783809Y1055653D01*
X783906Y1055633D01*
X783955Y1055624D01*
X783994D01*
X784014Y1055614D01*
X784023D01*
X784160Y1055585D01*
X784257Y1055555D01*
X784296Y1055536D01*
X784326Y1055526D01*
X784335Y1055516D01*
X784345D01*
X784404Y1055487D01*
X784452Y1055458D01*
X784521Y1055399D01*
X784560Y1055350D01*
X784569Y1055341D01*
Y1055331D01*
X784608Y1055243D01*
X784618Y1055165D01*
X784628Y1055107D01*
Y1055087D01*
Y1055077D01*
Y1053839D01*
X784560Y1053790D01*
X784491Y1053731D01*
X784335Y1053653D01*
X784267Y1053624D01*
X784218Y1053595D01*
X784179Y1053585D01*
X784169Y1053575D01*
X784053Y1053536D01*
X783945Y1053517D01*
X783828Y1053497D01*
X783721Y1053478D01*
X783633D01*
X783565Y1053468D01*
X783496D01*
X783350Y1053478D01*
X783214Y1053497D01*
X783087Y1053536D01*
X782970Y1053585D01*
X782755Y1053702D01*
X782580Y1053848D01*
X782443Y1053985D01*
X782385Y1054044D01*
X782336Y1054102D01*
X782307Y1054151D01*
X782277Y1054190D01*
X782268Y1054209D01*
X782258Y1054219D01*
X782180Y1054365D01*
X782112Y1054531D01*
X782004Y1054873D01*
X781926Y1055214D01*
X781877Y1055555D01*
X781858Y1055711D01*
X781838Y1055858D01*
X781829Y1055984D01*
Y1056092D01*
X781819Y1056189D01*
Y1056258D01*
Y1056297D01*
Y1056316D01*
X781829Y1056550D01*
X781838Y1056765D01*
X781858Y1056970D01*
X781887Y1057165D01*
X781916Y1057340D01*
X781955Y1057506D01*
X781994Y1057652D01*
X782043Y1057789D01*
X782082Y1057906D01*
X782121Y1058013D01*
X782160Y1058101D01*
X782189Y1058169D01*
X782219Y1058228D01*
X782238Y1058277D01*
X782258Y1058296D01*
Y1058306D01*
X782346Y1058433D01*
X782443Y1058540D01*
X782541Y1058637D01*
X782648Y1058725D01*
X782755Y1058793D01*
X782862Y1058852D01*
X782960Y1058901D01*
X783067Y1058940D01*
X783253Y1058989D01*
X783331Y1059008D01*
X783399Y1059018D01*
X783457Y1059028D01*
X783536D01*
X783662Y1059018D01*
X783779Y1059008D01*
X784004Y1058950D01*
X784199Y1058872D01*
X784365Y1058784D01*
X784501Y1058696D01*
X784599Y1058618D01*
X784628Y1058589D01*
X784657Y1058559D01*
X784667Y1058550D01*
X784677Y1058540D01*
X784764Y1058442D01*
X784843Y1058335D01*
X784999Y1058101D01*
X785125Y1057857D01*
X785242Y1057613D01*
X785291Y1057506D01*
X785340Y1057399D01*
X785379Y1057301D01*
X785408Y1057223D01*
X785437Y1057155D01*
X785447Y1057106D01*
X785467Y1057067D01*
Y1057057D01*
X785847D01*
X785808Y1059281D01*
X785437D01*
X785164Y1059037D01*
X785047Y1059096D01*
X784930Y1059145D01*
X784813Y1059184D01*
X784696Y1059232D01*
X784589Y1059262D01*
X784511Y1059291D01*
X784452Y1059301D01*
X784443Y1059311D01*
X784433D01*
X784267Y1059359D01*
X784101Y1059389D01*
X783935Y1059418D01*
X783789Y1059427D01*
X783662Y1059437D01*
X783565Y1059447D01*
X822638D01*
Y1057955D01*
D02*
G37*
G36*
X783194Y1059437D02*
X782941Y1059408D01*
X782707Y1059369D01*
X782492Y1059330D01*
X782404Y1059301D01*
X782326Y1059281D01*
X782248Y1059262D01*
X782189Y1059242D01*
X782150Y1059223D01*
X782112Y1059213D01*
X782092Y1059203D01*
X782082D01*
X781858Y1059106D01*
X781653Y1058998D01*
X781468Y1058891D01*
X781321Y1058784D01*
X781195Y1058686D01*
X781097Y1058608D01*
X781039Y1058559D01*
X781029Y1058550D01*
X781019Y1058540D01*
X780863Y1058374D01*
X780726Y1058189D01*
X780610Y1058013D01*
X780512Y1057857D01*
X780434Y1057711D01*
X780385Y1057594D01*
X780366Y1057555D01*
X780346Y1057525D01*
X780336Y1057506D01*
Y1057496D01*
X780258Y1057262D01*
X780200Y1057038D01*
X780161Y1056814D01*
X780132Y1056609D01*
X780112Y1056433D01*
Y1056365D01*
X780102Y1056297D01*
Y1059447D01*
X783477D01*
X783194Y1059437D01*
D02*
G37*
G36*
X820248Y1057555D02*
X820316Y1057545D01*
X820443Y1057477D01*
X820551Y1057389D01*
X820648Y1057291D01*
X820716Y1057194D01*
X820775Y1057106D01*
X820804Y1057038D01*
X820814Y1057028D01*
Y1057018D01*
X820863Y1056911D01*
X820902Y1056794D01*
X820960Y1056540D01*
X821009Y1056277D01*
X821038Y1056023D01*
X821048Y1055906D01*
X821058Y1055799D01*
Y1055692D01*
X821067Y1055604D01*
Y1055536D01*
Y1055487D01*
Y1055448D01*
Y1055438D01*
Y1055380D01*
Y1055331D01*
X821058Y1055292D01*
Y1055273D01*
Y1055214D01*
Y1055165D01*
Y1055136D01*
Y1055126D01*
Y1055068D01*
Y1055029D01*
X821048Y1054999D01*
Y1054990D01*
Y1054931D01*
Y1054921D01*
Y1054912D01*
X820980Y1054824D01*
X820911Y1054746D01*
X820843Y1054678D01*
X820785Y1054629D01*
X820736Y1054600D01*
X820697Y1054570D01*
X820667Y1054560D01*
X820658Y1054551D01*
X820502Y1054492D01*
X820355Y1054463D01*
X820287D01*
X820238Y1054453D01*
X820199D01*
X820063Y1054473D01*
X819936Y1054512D01*
X819829Y1054580D01*
X819741Y1054658D01*
X819663Y1054726D01*
X819614Y1054794D01*
X819575Y1054834D01*
X819565Y1054853D01*
X819487Y1055019D01*
X819429Y1055194D01*
X819390Y1055380D01*
X819361Y1055555D01*
X819341Y1055711D01*
Y1055780D01*
X819331Y1055828D01*
Y1055877D01*
Y1055916D01*
Y1055936D01*
Y1055946D01*
X819341Y1056219D01*
X819370Y1056462D01*
X819409Y1056667D01*
X819448Y1056843D01*
X819487Y1056970D01*
X819526Y1057067D01*
X819556Y1057126D01*
X819565Y1057145D01*
X819614Y1057223D01*
X819663Y1057282D01*
X819760Y1057389D01*
X819868Y1057467D01*
X819965Y1057516D01*
X820043Y1057545D01*
X820121Y1057555D01*
X820160Y1057565D01*
X820180D01*
X820248Y1057555D01*
D02*
G37*
G36*
X806047Y1056911D02*
X806135Y1056901D01*
X806222Y1056872D01*
X806291Y1056852D01*
X806339Y1056823D01*
X806378Y1056794D01*
X806408Y1056784D01*
X806417Y1056775D01*
X806544Y1056657D01*
X806642Y1056540D01*
X806671Y1056492D01*
X806700Y1056453D01*
X806720Y1056423D01*
Y1056414D01*
X806798Y1056228D01*
X806827Y1056141D01*
X806856Y1056062D01*
X806876Y1055994D01*
X806886Y1055936D01*
X806895Y1055897D01*
Y1055887D01*
X806925Y1055672D01*
X806934Y1055565D01*
Y1055468D01*
X806944Y1055389D01*
Y1055331D01*
Y1055292D01*
Y1055273D01*
Y1055107D01*
X806934Y1054960D01*
X806925Y1054824D01*
X806905Y1054687D01*
X806886Y1054570D01*
X806856Y1054453D01*
X806837Y1054356D01*
X806817Y1054268D01*
X806788Y1054190D01*
X806769Y1054121D01*
X806739Y1054063D01*
X806720Y1054014D01*
X806710Y1053975D01*
X806691Y1053946D01*
X806681Y1053936D01*
Y1053926D01*
X806632Y1053848D01*
X806583Y1053780D01*
X806466Y1053663D01*
X806359Y1053585D01*
X806252Y1053536D01*
X806154Y1053497D01*
X806076Y1053488D01*
X806027Y1053478D01*
X806008D01*
X805891Y1053488D01*
X805793Y1053507D01*
X805754D01*
X805725Y1053517D01*
X805715Y1053527D01*
X805705D01*
X805608Y1053575D01*
X805530Y1053634D01*
X805481Y1053683D01*
X805471Y1053702D01*
X805462D01*
X805403Y1053770D01*
X805354Y1053839D01*
X805315Y1053897D01*
X805306Y1053907D01*
Y1053917D01*
X805267Y1054014D01*
X805237Y1054082D01*
X805218Y1054121D01*
Y1054141D01*
Y1056570D01*
X805315Y1056677D01*
X805403Y1056755D01*
X805442Y1056784D01*
X805471Y1056804D01*
X805491Y1056823D01*
X805501D01*
X805647Y1056882D01*
X805793Y1056911D01*
X805852Y1056921D01*
X805949D01*
X806047Y1056911D01*
D02*
G37*
G36*
X812194Y1088156D02*
X809024D01*
Y1087824D01*
X809131Y1087805D01*
X809229Y1087785D01*
X809277Y1087775D01*
X809316D01*
X809336Y1087766D01*
X809346D01*
X809482Y1087737D01*
X809580Y1087707D01*
X809619Y1087688D01*
X809648Y1087678D01*
X809658Y1087668D01*
X809668D01*
X809726Y1087639D01*
X809775Y1087610D01*
X809843Y1087551D01*
X809882Y1087502D01*
X809892Y1087493D01*
Y1087483D01*
X809931Y1087395D01*
X809941Y1087317D01*
X809950Y1087259D01*
Y1087239D01*
Y1087229D01*
Y1085991D01*
X809882Y1085942D01*
X809814Y1085883D01*
X809658Y1085805D01*
X809589Y1085776D01*
X809541Y1085747D01*
X809502Y1085737D01*
X809492Y1085727D01*
X809375Y1085688D01*
X809268Y1085669D01*
X809150Y1085649D01*
X809043Y1085630D01*
X808956D01*
X808887Y1085620D01*
X808819D01*
X808673Y1085630D01*
X808536Y1085649D01*
X808409Y1085688D01*
X808292Y1085737D01*
X808078Y1085854D01*
X807902Y1086000D01*
X807766Y1086137D01*
X807707Y1086195D01*
X807658Y1086254D01*
X807629Y1086303D01*
X807600Y1086342D01*
X807590Y1086361D01*
X807580Y1086371D01*
X807502Y1086517D01*
X807434Y1086683D01*
X807327Y1087025D01*
X807249Y1087366D01*
X807200Y1087707D01*
X807180Y1087863D01*
X807161Y1088010D01*
X807151Y1088136D01*
Y1088244D01*
X807141Y1088341D01*
Y1088410D01*
Y1088448D01*
Y1088468D01*
X807151Y1088702D01*
X807161Y1088917D01*
X807180Y1089121D01*
X807210Y1089317D01*
X807239Y1089492D01*
X807278Y1089658D01*
X807317Y1089804D01*
X807366Y1089941D01*
X807405Y1090058D01*
X807444Y1090165D01*
X807483Y1090253D01*
X807512Y1090321D01*
X807541Y1090380D01*
X807561Y1090428D01*
X807580Y1090448D01*
Y1090458D01*
X807668Y1090585D01*
X807766Y1090692D01*
X807863Y1090789D01*
X807970Y1090877D01*
X808078Y1090945D01*
X808185Y1091004D01*
X808282Y1091053D01*
X808390Y1091092D01*
X808575Y1091141D01*
X808653Y1091160D01*
X808721Y1091170D01*
X808780Y1091180D01*
X808858D01*
X808985Y1091170D01*
X809102Y1091160D01*
X809326Y1091102D01*
X809521Y1091023D01*
X809687Y1090936D01*
X809824Y1090848D01*
X809921Y1090770D01*
X809950Y1090741D01*
X809980Y1090711D01*
X809989Y1090702D01*
X809999Y1090692D01*
X810087Y1090594D01*
X810165Y1090487D01*
X810321Y1090253D01*
X810448Y1090009D01*
X810565Y1089765D01*
X810614Y1089658D01*
X810662Y1089551D01*
X810701Y1089453D01*
X810731Y1089375D01*
X810760Y1089307D01*
X810770Y1089258D01*
X810789Y1089219D01*
Y1089209D01*
X811170D01*
X811131Y1091433D01*
X810760D01*
X810487Y1091189D01*
X810370Y1091248D01*
X810253Y1091297D01*
X810136Y1091336D01*
X810019Y1091384D01*
X809911Y1091414D01*
X809833Y1091443D01*
X809775Y1091453D01*
X809765Y1091462D01*
X809755D01*
X809589Y1091511D01*
X809424Y1091540D01*
X809258Y1091570D01*
X809111Y1091579D01*
X808985Y1091589D01*
X808887Y1091599D01*
X812194D01*
Y1088156D01*
D02*
G37*
G36*
X796100Y1091033D02*
X796208Y1091014D01*
X796315Y1090994D01*
X796481Y1090936D01*
X796617Y1090877D01*
X796715Y1090809D01*
X796793Y1090760D01*
X796832Y1090721D01*
X796842Y1090702D01*
X796939Y1090565D01*
X797007Y1090399D01*
X797056Y1090233D01*
X797085Y1090068D01*
X797115Y1089921D01*
Y1089853D01*
X797124Y1089804D01*
Y1089755D01*
Y1089716D01*
Y1089697D01*
Y1089687D01*
X797105Y1089453D01*
X797066Y1089248D01*
X797007Y1089073D01*
X796939Y1088936D01*
X796871Y1088829D01*
X796812Y1088751D01*
X796773Y1088712D01*
X796754Y1088692D01*
X796598Y1088585D01*
X796432Y1088507D01*
X796256Y1088448D01*
X796081Y1088410D01*
X795925Y1088390D01*
X795856Y1088380D01*
X795798D01*
X795749Y1088371D01*
X795505D01*
Y1091043D01*
X795983D01*
X796100Y1091033D01*
D02*
G37*
G36*
X793174Y1091082D02*
X793272Y1091062D01*
X793311Y1091053D01*
X793350D01*
X793369Y1091043D01*
X793379D01*
X793515Y1091014D01*
X793613Y1090984D01*
X793652Y1090975D01*
X793681Y1090965D01*
X793691Y1090955D01*
X793701D01*
X793759Y1090926D01*
X793808Y1090897D01*
X793847Y1090867D01*
X793876Y1090838D01*
X793915Y1090789D01*
X793925Y1090780D01*
Y1090770D01*
X793964Y1090682D01*
X793974Y1090594D01*
X793984Y1090565D01*
Y1090536D01*
Y1090516D01*
Y1090507D01*
Y1086215D01*
X793974Y1086088D01*
X793954Y1086000D01*
X793935Y1085952D01*
X793925Y1085932D01*
X793896Y1085893D01*
X793867Y1085864D01*
X793789Y1085815D01*
X793730Y1085776D01*
X793711Y1085766D01*
X793701D01*
X793662Y1085757D01*
X793623Y1085747D01*
X793525Y1085727D01*
X793476Y1085717D01*
X793447D01*
X793418Y1085708D01*
X793408D01*
X793272Y1085698D01*
X793174Y1085688D01*
X793135Y1085678D01*
X793086D01*
Y1091102D01*
X793174Y1091082D01*
D02*
G37*
G36*
X812194Y1085181D02*
X808614D01*
X808877Y1085191D01*
X809150Y1085220D01*
X809414Y1085249D01*
X809648Y1085298D01*
X809755Y1085318D01*
X809853Y1085337D01*
X809941Y1085357D01*
X810009Y1085366D01*
X810077Y1085386D01*
X810116Y1085396D01*
X810145Y1085405D01*
X810155D01*
X810448Y1085493D01*
X810711Y1085581D01*
X810818Y1085620D01*
X810926Y1085659D01*
X811023Y1085698D01*
X811101Y1085737D01*
X811179Y1085766D01*
X811248Y1085796D01*
X811296Y1085825D01*
X811345Y1085844D01*
X811374Y1085864D01*
X811404Y1085883D01*
X811423Y1085893D01*
X811413Y1086020D01*
Y1086117D01*
Y1086156D01*
Y1086186D01*
Y1086195D01*
Y1086205D01*
Y1086322D01*
Y1086430D01*
Y1086478D01*
Y1086517D01*
Y1086547D01*
Y1086556D01*
Y1087268D01*
X811423Y1087366D01*
X811443Y1087454D01*
X811452Y1087512D01*
X811462Y1087522D01*
Y1087532D01*
X811491Y1087580D01*
X811521Y1087619D01*
X811599Y1087678D01*
X811667Y1087707D01*
X811686Y1087717D01*
X811696D01*
X811804Y1087756D01*
X811881Y1087775D01*
X811930Y1087785D01*
X811950D01*
X812038Y1087805D01*
X812116Y1087814D01*
X812174Y1087824D01*
X812194D01*
Y1085181D01*
D02*
G37*
G36*
X808516Y1091589D02*
X808263Y1091560D01*
X808029Y1091521D01*
X807814Y1091482D01*
X807727Y1091453D01*
X807648Y1091433D01*
X807570Y1091414D01*
X807512Y1091394D01*
X807473Y1091375D01*
X807434Y1091365D01*
X807414Y1091355D01*
X807405D01*
X807180Y1091258D01*
X806975Y1091150D01*
X806790Y1091043D01*
X806644Y1090936D01*
X806517Y1090838D01*
X806420Y1090760D01*
X806361Y1090711D01*
X806351Y1090702D01*
X806341Y1090692D01*
X806185Y1090526D01*
X806049Y1090341D01*
X805932Y1090165D01*
X805834Y1090009D01*
X805756Y1089863D01*
X805707Y1089746D01*
X805688Y1089707D01*
X805668Y1089678D01*
X805659Y1089658D01*
Y1089648D01*
X805581Y1089414D01*
X805522Y1089190D01*
X805483Y1088966D01*
X805454Y1088761D01*
X805434Y1088585D01*
Y1088517D01*
X805425Y1088448D01*
Y1088332D01*
X805434Y1088049D01*
X805464Y1087795D01*
X805503Y1087561D01*
X805551Y1087356D01*
X805571Y1087268D01*
X805591Y1087190D01*
X805610Y1087132D01*
X805630Y1087073D01*
X805649Y1087025D01*
X805659Y1086995D01*
X805668Y1086976D01*
Y1086966D01*
X805776Y1086751D01*
X805883Y1086566D01*
X806000Y1086400D01*
X806107Y1086254D01*
X806205Y1086137D01*
X806293Y1086049D01*
X806341Y1086000D01*
X806361Y1085991D01*
Y1085981D01*
X806527Y1085844D01*
X806702Y1085717D01*
X806878Y1085610D01*
X807034Y1085532D01*
X807170Y1085464D01*
X807278Y1085415D01*
X807317Y1085396D01*
X807346Y1085386D01*
X807366Y1085376D01*
X807375D01*
X807590Y1085308D01*
X807814Y1085259D01*
X808019Y1085230D01*
X808214Y1085210D01*
X808370Y1085191D01*
X808438D01*
X808497Y1085181D01*
X793086D01*
Y1085347D01*
X796403D01*
Y1085678D01*
X796295Y1085688D01*
X796178Y1085708D01*
X796130Y1085717D01*
X796100D01*
X796071Y1085727D01*
X796061D01*
X795993Y1085737D01*
X795934Y1085757D01*
X795886Y1085766D01*
X795856Y1085776D01*
X795808Y1085796D01*
X795788D01*
X795730Y1085825D01*
X795681Y1085854D01*
X795612Y1085913D01*
X795574Y1085961D01*
X795564Y1085981D01*
X795535Y1086069D01*
X795515Y1086166D01*
X795505Y1086195D01*
Y1086225D01*
Y1086244D01*
Y1086254D01*
Y1087971D01*
X796227D01*
X796432Y1087990D01*
X796627Y1088000D01*
X796793Y1088019D01*
X796929Y1088039D01*
X797027Y1088049D01*
X797066Y1088058D01*
X797095Y1088068D01*
X797115D01*
X797300Y1088117D01*
X797466Y1088166D01*
X797612Y1088224D01*
X797749Y1088283D01*
X797856Y1088341D01*
X797934Y1088380D01*
X797983Y1088410D01*
X798002Y1088419D01*
X798139Y1088517D01*
X798246Y1088614D01*
X798353Y1088712D01*
X798431Y1088809D01*
X798500Y1088897D01*
X798548Y1088966D01*
X798578Y1089005D01*
X798587Y1089024D01*
X798656Y1089170D01*
X798714Y1089317D01*
X798753Y1089473D01*
X798773Y1089609D01*
X798792Y1089726D01*
X798802Y1089824D01*
Y1089912D01*
X798792Y1090048D01*
X798773Y1090185D01*
X798743Y1090302D01*
X798714Y1090419D01*
X798617Y1090614D01*
X798509Y1090770D01*
X798402Y1090897D01*
X798305Y1090984D01*
X798275Y1091014D01*
X798246Y1091033D01*
X798226Y1091053D01*
X798217D01*
X798100Y1091121D01*
X797973Y1091180D01*
X797690Y1091277D01*
X797397Y1091345D01*
X797115Y1091384D01*
X796978Y1091404D01*
X796851Y1091414D01*
X796734Y1091423D01*
X796637D01*
X796559Y1091433D01*
X793086D01*
Y1091599D01*
X808799D01*
X808516Y1091589D01*
D02*
G37*
%LPC*%
G36*
X790597Y1057555D02*
X790529D01*
X790392Y1057545D01*
X790266Y1057525D01*
X790148Y1057486D01*
X790051Y1057457D01*
X789963Y1057418D01*
X789895Y1057379D01*
X789856Y1057360D01*
X789836Y1057350D01*
X789719Y1057272D01*
X789602Y1057184D01*
X789495Y1057096D01*
X789398Y1057009D01*
X789319Y1056931D01*
X789261Y1056872D01*
X789222Y1056833D01*
X789212Y1056814D01*
X789202D01*
Y1057438D01*
X789134Y1057506D01*
X787086Y1057399D01*
Y1057087D01*
X787183Y1057067D01*
X787261Y1057048D01*
X787320Y1057038D01*
X787330Y1057028D01*
X787339D01*
X787418Y1057009D01*
X787486Y1056979D01*
X787525Y1056960D01*
X787534Y1056950D01*
X787603Y1056882D01*
X787661Y1056823D01*
X787700Y1056765D01*
X787710Y1056755D01*
Y1056745D01*
X787759Y1056657D01*
X787778Y1056570D01*
X787788Y1056531D01*
Y1056501D01*
Y1056482D01*
Y1056472D01*
Y1053975D01*
X787778Y1053868D01*
X787759Y1053780D01*
X787739Y1053731D01*
X787730Y1053712D01*
X787681Y1053644D01*
X787622Y1053605D01*
X787564Y1053575D01*
X787554Y1053566D01*
X787544D01*
X787486Y1053546D01*
X787427Y1053527D01*
X787378Y1053517D01*
X787359D01*
X787281Y1053507D01*
X787144D01*
Y1053195D01*
X790022D01*
Y1053507D01*
X789983D01*
X789934Y1053517D01*
X789827Y1053527D01*
X789788D01*
X789749Y1053536D01*
X789710D01*
X789632Y1053556D01*
X789573Y1053566D01*
X789524Y1053575D01*
X789475Y1053595D01*
X789446Y1053605D01*
X789427D01*
X789407Y1053614D01*
X789329Y1053663D01*
X789280Y1053712D01*
X789251Y1053751D01*
X789241Y1053770D01*
X789222Y1053848D01*
X789212Y1053936D01*
X789202Y1053995D01*
Y1054014D01*
Y1054024D01*
Y1056384D01*
X789329Y1056531D01*
X789388Y1056589D01*
X789446Y1056638D01*
X789495Y1056677D01*
X789534Y1056706D01*
X789563Y1056716D01*
X789573Y1056726D01*
X789651Y1056765D01*
X789729Y1056804D01*
X789807Y1056823D01*
X789866Y1056843D01*
X789914Y1056852D01*
X789963Y1056862D01*
X789992D01*
X789983Y1056804D01*
X789963Y1056755D01*
X789953Y1056716D01*
Y1056696D01*
X789944Y1056628D01*
X789934Y1056560D01*
Y1056501D01*
Y1056482D01*
Y1056472D01*
X789944Y1056365D01*
X789963Y1056267D01*
X790002Y1056189D01*
X790041Y1056121D01*
X790080Y1056072D01*
X790119Y1056033D01*
X790139Y1056014D01*
X790148Y1056004D01*
X790236Y1055955D01*
X790324Y1055916D01*
X790412Y1055887D01*
X790490Y1055867D01*
X790568Y1055858D01*
X790626Y1055848D01*
X790675D01*
X790792Y1055858D01*
X790900Y1055887D01*
X790987Y1055926D01*
X791065Y1055975D01*
X791134Y1056014D01*
X791173Y1056053D01*
X791202Y1056082D01*
X791212Y1056092D01*
X791280Y1056189D01*
X791329Y1056287D01*
X791368Y1056384D01*
X791387Y1056472D01*
X791407Y1056550D01*
X791416Y1056609D01*
Y1056667D01*
X791407Y1056804D01*
X791377Y1056931D01*
X791338Y1057038D01*
X791299Y1057135D01*
X791251Y1057204D01*
X791212Y1057262D01*
X791182Y1057291D01*
X791173Y1057301D01*
X791075Y1057389D01*
X790968Y1057448D01*
X790861Y1057496D01*
X790763Y1057525D01*
X790665Y1057545D01*
X790597Y1057555D01*
D02*
G37*
G36*
X811753Y1056014D02*
X809148D01*
Y1055068D01*
X811753D01*
Y1056014D01*
D02*
G37*
G36*
X802126Y1057506D02*
X800048Y1057399D01*
Y1057087D01*
X800156Y1057077D01*
X800244Y1057067D01*
X800283D01*
X800312Y1057057D01*
X800331D01*
X800429Y1057038D01*
X800497Y1057018D01*
X800546Y1056999D01*
X800556Y1056989D01*
X800624Y1056931D01*
X800682Y1056862D01*
X800712Y1056814D01*
X800721Y1056804D01*
Y1056794D01*
X800760Y1056706D01*
X800770Y1056618D01*
X800780Y1056560D01*
Y1056540D01*
Y1056531D01*
Y1054209D01*
X800731Y1054141D01*
X800673Y1054082D01*
X800556Y1053966D01*
X800507Y1053926D01*
X800458Y1053897D01*
X800429Y1053878D01*
X800419Y1053868D01*
X800322Y1053819D01*
X800234Y1053780D01*
X800136Y1053751D01*
X800058Y1053731D01*
X799980Y1053722D01*
X799922Y1053712D01*
X799873D01*
X799765Y1053722D01*
X799668Y1053741D01*
X799590Y1053780D01*
X799522Y1053819D01*
X799473Y1053848D01*
X799434Y1053887D01*
X799414Y1053907D01*
X799405Y1053917D01*
X799346Y1054005D01*
X799307Y1054112D01*
X799278Y1054219D01*
X799258Y1054326D01*
X799249Y1054424D01*
X799239Y1054502D01*
Y1054551D01*
Y1054570D01*
Y1057438D01*
X799190Y1057506D01*
X797122Y1057399D01*
Y1057087D01*
X797210Y1057077D01*
X797288Y1057067D01*
X797347Y1057057D01*
X797356Y1057048D01*
X797366D01*
X797464Y1057018D01*
X797532Y1056989D01*
X797571Y1056960D01*
X797590Y1056950D01*
X797659Y1056892D01*
X797708Y1056833D01*
X797747Y1056784D01*
X797756Y1056775D01*
Y1056765D01*
X797795Y1056677D01*
X797815Y1056589D01*
X797825Y1056550D01*
Y1056521D01*
Y1056501D01*
Y1056492D01*
Y1054551D01*
X797844Y1054297D01*
X797883Y1054082D01*
X797932Y1053887D01*
X798000Y1053731D01*
X798059Y1053614D01*
X798117Y1053517D01*
X798156Y1053468D01*
X798166Y1053448D01*
X798303Y1053322D01*
X798468Y1053224D01*
X798634Y1053156D01*
X798790Y1053107D01*
X798936Y1053078D01*
X799053Y1053068D01*
X799102Y1053058D01*
X799288D01*
X799405Y1053068D01*
X799502Y1053078D01*
X799580Y1053088D01*
X799649Y1053097D01*
X799688Y1053107D01*
X799717Y1053117D01*
X799726D01*
X799873Y1053166D01*
X800009Y1053224D01*
X800068Y1053244D01*
X800107Y1053263D01*
X800136Y1053283D01*
X800146D01*
X800273Y1053361D01*
X800380Y1053429D01*
X800419Y1053458D01*
X800448Y1053488D01*
X800458Y1053497D01*
X800468Y1053507D01*
X800575Y1053605D01*
X800673Y1053683D01*
X800702Y1053722D01*
X800731Y1053751D01*
X800751Y1053761D01*
X800760Y1053770D01*
X800790D01*
Y1053214D01*
X800848Y1053156D01*
X802896Y1053283D01*
Y1053595D01*
X802799D01*
X802711Y1053605D01*
X802653Y1053614D01*
X802633D01*
X802545Y1053634D01*
X802487Y1053653D01*
X802438Y1053673D01*
X802428Y1053683D01*
X802350Y1053741D01*
X802301Y1053800D01*
X802262Y1053839D01*
X802253Y1053858D01*
X802223Y1053946D01*
X802204Y1054034D01*
X802194Y1054063D01*
Y1054092D01*
Y1054112D01*
Y1054121D01*
Y1057438D01*
X802126Y1057506D01*
D02*
G37*
G36*
X794352Y1057574D02*
X794255D01*
X794040Y1057565D01*
X793845Y1057545D01*
X793670Y1057525D01*
X793513Y1057496D01*
X793387Y1057457D01*
X793289Y1057438D01*
X793260Y1057428D01*
X793231Y1057418D01*
X793221Y1057409D01*
X793211D01*
X793045Y1057340D01*
X792889Y1057262D01*
X792753Y1057184D01*
X792645Y1057116D01*
X792548Y1057048D01*
X792480Y1056989D01*
X792441Y1056950D01*
X792421Y1056940D01*
X792304Y1056823D01*
X792206Y1056696D01*
X792119Y1056579D01*
X792050Y1056472D01*
X791992Y1056375D01*
X791953Y1056297D01*
X791933Y1056248D01*
X791924Y1056228D01*
X791875Y1056072D01*
X791836Y1055916D01*
X791807Y1055760D01*
X791787Y1055624D01*
X791777Y1055497D01*
X791768Y1055399D01*
Y1055312D01*
X791777Y1055116D01*
X791797Y1054941D01*
X791826Y1054785D01*
X791865Y1054639D01*
X791894Y1054521D01*
X791924Y1054443D01*
X791943Y1054385D01*
X791953Y1054375D01*
Y1054365D01*
X792031Y1054219D01*
X792109Y1054073D01*
X792197Y1053956D01*
X792284Y1053848D01*
X792353Y1053770D01*
X792411Y1053702D01*
X792460Y1053663D01*
X792470Y1053653D01*
X792606Y1053546D01*
X792733Y1053458D01*
X792870Y1053380D01*
X792987Y1053312D01*
X793094Y1053263D01*
X793172Y1053234D01*
X793231Y1053214D01*
X793250Y1053205D01*
X793416Y1053156D01*
X793582Y1053117D01*
X793748Y1053097D01*
X793894Y1053078D01*
X794030Y1053068D01*
X794128Y1053058D01*
X794216D01*
X794440Y1053068D01*
X794635Y1053088D01*
X794820Y1053107D01*
X794977Y1053146D01*
X795113Y1053175D01*
X795211Y1053195D01*
X795240Y1053205D01*
X795269Y1053214D01*
X795279Y1053224D01*
X795289D01*
X795454Y1053292D01*
X795611Y1053380D01*
X795747Y1053458D01*
X795874Y1053536D01*
X795962Y1053614D01*
X796040Y1053673D01*
X796079Y1053712D01*
X796098Y1053722D01*
X796215Y1053839D01*
X796313Y1053956D01*
X796391Y1054073D01*
X796459Y1054190D01*
X796518Y1054287D01*
X796557Y1054365D01*
X796576Y1054414D01*
X796586Y1054434D01*
X796644Y1054600D01*
X796683Y1054755D01*
X796713Y1054912D01*
X796732Y1055048D01*
X796742Y1055165D01*
X796752Y1055263D01*
Y1055341D01*
X796742Y1055516D01*
X796722Y1055682D01*
X796693Y1055828D01*
X796664Y1055965D01*
X796635Y1056072D01*
X796605Y1056160D01*
X796586Y1056209D01*
X796576Y1056228D01*
X796508Y1056384D01*
X796430Y1056521D01*
X796352Y1056638D01*
X796274Y1056745D01*
X796206Y1056823D01*
X796147Y1056892D01*
X796108Y1056931D01*
X796098Y1056940D01*
X795971Y1057048D01*
X795835Y1057145D01*
X795698Y1057223D01*
X795581Y1057291D01*
X795474Y1057340D01*
X795386Y1057379D01*
X795328Y1057399D01*
X795318Y1057409D01*
X795308D01*
X795133Y1057467D01*
X794947Y1057506D01*
X794772Y1057535D01*
X794606Y1057555D01*
X794469Y1057565D01*
X794352Y1057574D01*
D02*
G37*
G36*
X816815Y1057818D02*
X813196D01*
X812777Y1054658D01*
X813099Y1054551D01*
X813177Y1054639D01*
X813264Y1054726D01*
X813352Y1054794D01*
X813421Y1054853D01*
X813489Y1054902D01*
X813538Y1054941D01*
X813577Y1054960D01*
X813586Y1054970D01*
X813694Y1055029D01*
X813811Y1055068D01*
X813918Y1055097D01*
X814025Y1055116D01*
X814123Y1055126D01*
X814191Y1055136D01*
X814259D01*
X814445Y1055116D01*
X814601Y1055077D01*
X814747Y1055009D01*
X814864Y1054941D01*
X814962Y1054873D01*
X815030Y1054804D01*
X815079Y1054765D01*
X815088Y1054746D01*
X815196Y1054590D01*
X815284Y1054424D01*
X815342Y1054258D01*
X815381Y1054102D01*
X815401Y1053966D01*
X815420Y1053848D01*
Y1053809D01*
Y1053780D01*
Y1053761D01*
Y1053751D01*
Y1053595D01*
X815401Y1053458D01*
X815391Y1053332D01*
X815371Y1053224D01*
X815352Y1053136D01*
X815332Y1053068D01*
X815322Y1053029D01*
X815313Y1053010D01*
X815274Y1052893D01*
X815225Y1052785D01*
X815176Y1052688D01*
X815127Y1052600D01*
X815088Y1052532D01*
X815049Y1052483D01*
X815030Y1052454D01*
X815020Y1052444D01*
X814952Y1052366D01*
X814884Y1052307D01*
X814825Y1052249D01*
X814757Y1052200D01*
X814708Y1052171D01*
X814659Y1052142D01*
X814630Y1052132D01*
X814620Y1052122D01*
X814532Y1052083D01*
X814445Y1052054D01*
X814367Y1052034D01*
X814298Y1052025D01*
X814230Y1052015D01*
X814181Y1052005D01*
X814055D01*
X813967Y1052015D01*
X813908Y1052025D01*
X813879D01*
X813782Y1052044D01*
X813713Y1052064D01*
X813664Y1052073D01*
X813645Y1052083D01*
X813664Y1052142D01*
X813684Y1052200D01*
X813723Y1052327D01*
X813742Y1052385D01*
X813752Y1052434D01*
X813762Y1052463D01*
Y1052473D01*
X813811Y1052658D01*
X813820Y1052737D01*
X813830Y1052805D01*
X813840Y1052863D01*
Y1052902D01*
Y1052932D01*
Y1052941D01*
X813830Y1053049D01*
X813801Y1053146D01*
X813772Y1053224D01*
X813733Y1053302D01*
X813684Y1053351D01*
X813655Y1053400D01*
X813625Y1053419D01*
X813616Y1053429D01*
X813528Y1053488D01*
X813440Y1053536D01*
X813352Y1053566D01*
X813264Y1053595D01*
X813186Y1053605D01*
X813128Y1053614D01*
X813069D01*
X812952Y1053605D01*
X812845Y1053585D01*
X812757Y1053546D01*
X812679Y1053507D01*
X812621Y1053468D01*
X812582Y1053429D01*
X812552Y1053410D01*
X812543Y1053400D01*
X812484Y1053322D01*
X812436Y1053234D01*
X812406Y1053146D01*
X812377Y1053068D01*
X812367Y1053000D01*
X812357Y1052941D01*
Y1052893D01*
X812367Y1052795D01*
X812387Y1052707D01*
X812416Y1052619D01*
X812445Y1052532D01*
X812543Y1052385D01*
X812650Y1052249D01*
X812757Y1052142D01*
X812855Y1052064D01*
X812884Y1052034D01*
X812913Y1052015D01*
X812933Y1051995D01*
X812943D01*
X813177Y1051869D01*
X813421Y1051771D01*
X813664Y1051712D01*
X813898Y1051664D01*
X813996Y1051644D01*
X814094Y1051634D01*
X814181Y1051625D01*
X814259D01*
X814318Y1051615D01*
X814406D01*
X814611Y1051625D01*
X814815Y1051644D01*
X815001Y1051673D01*
X815176Y1051712D01*
X815342Y1051751D01*
X815498Y1051810D01*
X815644Y1051859D01*
X815771Y1051917D01*
X815888Y1051976D01*
X815986Y1052025D01*
X816074Y1052083D01*
X816142Y1052122D01*
X816200Y1052161D01*
X816249Y1052190D01*
X816269Y1052210D01*
X816278Y1052220D01*
X816405Y1052337D01*
X816522Y1052454D01*
X816620Y1052580D01*
X816698Y1052707D01*
X816776Y1052834D01*
X816834Y1052971D01*
X816883Y1053088D01*
X816922Y1053205D01*
X816951Y1053322D01*
X816971Y1053419D01*
X816990Y1053517D01*
X817000Y1053595D01*
X817010Y1053663D01*
Y1053751D01*
X817000Y1053946D01*
X816971Y1054121D01*
X816942Y1054268D01*
X816903Y1054404D01*
X816854Y1054502D01*
X816825Y1054580D01*
X816795Y1054629D01*
X816786Y1054648D01*
X816698Y1054785D01*
X816610Y1054892D01*
X816522Y1054999D01*
X816434Y1055077D01*
X816366Y1055146D01*
X816308Y1055194D01*
X816259Y1055224D01*
X816249Y1055233D01*
X816122Y1055312D01*
X815986Y1055380D01*
X815869Y1055428D01*
X815761Y1055477D01*
X815664Y1055507D01*
X815596Y1055526D01*
X815547Y1055546D01*
X815527D01*
X815254Y1055594D01*
X815127Y1055614D01*
X815010Y1055624D01*
X814913Y1055633D01*
X814776D01*
X814601Y1055624D01*
X814435Y1055614D01*
X814289Y1055594D01*
X814162Y1055565D01*
X814055Y1055536D01*
X813986Y1055516D01*
X813938Y1055507D01*
X813918Y1055497D01*
X813791Y1055448D01*
X813674Y1055399D01*
X813567Y1055350D01*
X813489Y1055312D01*
X813421Y1055273D01*
X813362Y1055243D01*
X813333Y1055233D01*
X813323Y1055224D01*
X813508Y1056638D01*
X816815D01*
Y1057818D01*
D02*
G37*
%LPD*%
G36*
X794352Y1057213D02*
X794450Y1057204D01*
X794528Y1057174D01*
X794586Y1057145D01*
X794645Y1057116D01*
X794684Y1057096D01*
X794703Y1057077D01*
X794713Y1057067D01*
X794781Y1057009D01*
X794840Y1056931D01*
X794928Y1056794D01*
X794967Y1056736D01*
X794986Y1056687D01*
X795006Y1056648D01*
Y1056638D01*
X795035Y1056550D01*
X795064Y1056443D01*
X795084Y1056345D01*
X795103Y1056248D01*
X795113Y1056160D01*
X795123Y1056092D01*
X795133Y1056043D01*
Y1056023D01*
X795152Y1055887D01*
X795162Y1055760D01*
X795172Y1055643D01*
Y1055546D01*
X795181Y1055468D01*
Y1055399D01*
Y1055360D01*
Y1055350D01*
Y1055185D01*
X795172Y1055029D01*
X795162Y1054892D01*
Y1054775D01*
X795152Y1054687D01*
X795142Y1054609D01*
X795133Y1054570D01*
Y1054551D01*
X795113Y1054424D01*
X795094Y1054317D01*
X795064Y1054219D01*
X795045Y1054131D01*
X795025Y1054063D01*
X795015Y1054005D01*
X794996Y1053975D01*
Y1053966D01*
X794957Y1053868D01*
X794908Y1053790D01*
X794859Y1053712D01*
X794811Y1053653D01*
X794772Y1053605D01*
X794733Y1053575D01*
X794713Y1053556D01*
X794703Y1053546D01*
X794635Y1053497D01*
X794557Y1053468D01*
X794411Y1053429D01*
X794352Y1053419D01*
X794304Y1053410D01*
X794255D01*
X794157Y1053419D01*
X794060Y1053429D01*
X793982Y1053458D01*
X793913Y1053488D01*
X793865Y1053507D01*
X793816Y1053536D01*
X793796Y1053546D01*
X793787Y1053556D01*
X793728Y1053614D01*
X793670Y1053692D01*
X793582Y1053829D01*
X793552Y1053887D01*
X793533Y1053936D01*
X793513Y1053966D01*
Y1053975D01*
X793445Y1054200D01*
X793416Y1054307D01*
X793396Y1054404D01*
X793387Y1054482D01*
X793377Y1054541D01*
X793367Y1054580D01*
Y1054590D01*
X793357Y1054716D01*
X793348Y1054843D01*
Y1054970D01*
X793338Y1055097D01*
Y1055194D01*
Y1055282D01*
Y1055341D01*
Y1055350D01*
Y1055360D01*
Y1055497D01*
X793348Y1055624D01*
Y1055731D01*
X793357Y1055838D01*
Y1055926D01*
X793367Y1055984D01*
Y1056033D01*
Y1056043D01*
X793387Y1056160D01*
X793406Y1056277D01*
X793426Y1056375D01*
X793445Y1056453D01*
X793465Y1056521D01*
X793484Y1056579D01*
X793494Y1056609D01*
Y1056618D01*
X793533Y1056716D01*
X793582Y1056794D01*
X793621Y1056872D01*
X793670Y1056931D01*
X793708Y1056979D01*
X793738Y1057018D01*
X793757Y1057038D01*
X793767Y1057048D01*
X793845Y1057106D01*
X793923Y1057145D01*
X794001Y1057184D01*
X794079Y1057204D01*
X794147Y1057213D01*
X794206Y1057223D01*
X794255D01*
X794352Y1057213D01*
D02*
G37*
%LPC*%
G36*
X802723Y1091433D02*
X799251D01*
Y1091102D01*
X799338Y1091082D01*
X799436Y1091062D01*
X799475Y1091053D01*
X799514D01*
X799533Y1091043D01*
X799543D01*
X799680Y1091014D01*
X799777Y1090984D01*
X799816Y1090975D01*
X799846Y1090965D01*
X799855Y1090955D01*
X799865D01*
X799924Y1090926D01*
X799972Y1090897D01*
X800011Y1090867D01*
X800041Y1090838D01*
X800080Y1090789D01*
X800089Y1090780D01*
Y1090770D01*
X800128Y1090682D01*
X800138Y1090594D01*
X800148Y1090565D01*
Y1090536D01*
Y1090516D01*
Y1090507D01*
Y1086215D01*
X800138Y1086088D01*
X800119Y1086000D01*
X800099Y1085952D01*
X800089Y1085932D01*
X800060Y1085893D01*
X800031Y1085864D01*
X799953Y1085815D01*
X799894Y1085776D01*
X799875Y1085766D01*
X799865D01*
X799826Y1085757D01*
X799787Y1085747D01*
X799689Y1085727D01*
X799641Y1085717D01*
X799612D01*
X799582Y1085708D01*
X799573D01*
X799436Y1085698D01*
X799338Y1085688D01*
X799299Y1085678D01*
X799251D01*
Y1085347D01*
X802567D01*
Y1085678D01*
X802460Y1085688D01*
X802343Y1085708D01*
X802294Y1085717D01*
X802264D01*
X802235Y1085727D01*
X802225D01*
X802157Y1085737D01*
X802099Y1085757D01*
X802050Y1085766D01*
X802021Y1085776D01*
X801972Y1085796D01*
X801952D01*
X801894Y1085825D01*
X801845Y1085854D01*
X801777Y1085913D01*
X801738Y1085961D01*
X801728Y1085981D01*
X801699Y1086069D01*
X801679Y1086166D01*
X801669Y1086195D01*
Y1086225D01*
Y1086244D01*
Y1086254D01*
Y1087971D01*
X802391D01*
X802596Y1087990D01*
X802791Y1088000D01*
X802957Y1088019D01*
X803093Y1088039D01*
X803191Y1088049D01*
X803230Y1088058D01*
X803259Y1088068D01*
X803279D01*
X803464Y1088117D01*
X803630Y1088166D01*
X803776Y1088224D01*
X803913Y1088283D01*
X804020Y1088341D01*
X804098Y1088380D01*
X804147Y1088410D01*
X804166Y1088419D01*
X804303Y1088517D01*
X804410Y1088614D01*
X804518Y1088712D01*
X804596Y1088809D01*
X804664Y1088897D01*
X804713Y1088966D01*
X804742Y1089005D01*
X804752Y1089024D01*
X804820Y1089170D01*
X804878Y1089317D01*
X804918Y1089473D01*
X804937Y1089609D01*
X804957Y1089726D01*
X804966Y1089824D01*
Y1089912D01*
X804957Y1090048D01*
X804937Y1090185D01*
X804908Y1090302D01*
X804878Y1090419D01*
X804781Y1090614D01*
X804674Y1090770D01*
X804566Y1090897D01*
X804469Y1090984D01*
X804439Y1091014D01*
X804410Y1091033D01*
X804391Y1091053D01*
X804381D01*
X804264Y1091121D01*
X804137Y1091180D01*
X803854Y1091277D01*
X803562Y1091345D01*
X803279Y1091384D01*
X803142Y1091404D01*
X803016Y1091414D01*
X802898Y1091423D01*
X802801D01*
X802723Y1091433D01*
D02*
G37*
%LPD*%
G36*
X802264Y1091033D02*
X802372Y1091014D01*
X802479Y1090994D01*
X802645Y1090936D01*
X802781Y1090877D01*
X802879Y1090809D01*
X802957Y1090760D01*
X802996Y1090721D01*
X803006Y1090702D01*
X803103Y1090565D01*
X803172Y1090399D01*
X803220Y1090233D01*
X803250Y1090068D01*
X803279Y1089921D01*
Y1089853D01*
X803289Y1089804D01*
Y1089755D01*
Y1089716D01*
Y1089697D01*
Y1089687D01*
X803269Y1089453D01*
X803230Y1089248D01*
X803172Y1089073D01*
X803103Y1088936D01*
X803035Y1088829D01*
X802977Y1088751D01*
X802937Y1088712D01*
X802918Y1088692D01*
X802762Y1088585D01*
X802596Y1088507D01*
X802421Y1088448D01*
X802245Y1088410D01*
X802089Y1088390D01*
X802021Y1088380D01*
X801962D01*
X801913Y1088371D01*
X801669D01*
Y1091043D01*
X802147D01*
X802264Y1091033D01*
D02*
G37*
D10*
X854724Y819150D02*
G03*
X854724Y819150I-59703J0D01*
G01*
D11*
X823060Y819110D02*
G03*
X823060Y819110I-1250J0D01*
G01*
Y854613D02*
G03*
X823060Y854613I-1250J0D01*
G01*
Y783608D02*
G03*
X823060Y783608I-1250J0D01*
G01*
D12*
X859375Y727206D02*
X866446Y734277D01*
X868355Y718225D02*
X875426Y725296D01*
X835930Y995680D02*
X845930D01*
X835930Y1008380D02*
X845930D01*
X837010Y645160D02*
X847010D01*
X837010Y632460D02*
X847010D01*
X919074Y968055D02*
X926145Y960984D01*
X928055Y977036D02*
X935126Y969965D01*
X639198Y927023D02*
X646269Y934094D01*
X630218Y936003D02*
X637289Y943074D01*
X581561Y783859D02*
Y793859D01*
X594261Y783859D02*
Y793859D01*
X633415Y717956D02*
X640486Y710885D01*
X624434Y708975D02*
X631505Y701904D01*
X932598Y677419D02*
X939669Y684490D01*
X941579Y668439D02*
X948650Y675510D01*
X777810Y804110D02*
X811810D01*
X777810Y834110D02*
X811810D01*
X777810Y839613D02*
X811810D01*
X777810Y869613D02*
X811810D01*
X777810Y768608D02*
X811810D01*
X777810Y798608D02*
X811810D01*
D13*
X894210Y712967D02*
X896566D01*
X898922Y715323D01*
Y717680D01*
X894210Y722392D01*
X891853D01*
X889497Y720036D01*
Y717680D01*
X885963Y716501D02*
X883606Y714145D01*
X884785Y715323D01*
X891853Y708255D01*
Y710611D01*
X885963Y704720D02*
Y702364D01*
X883606Y700008D01*
X881250Y700008D01*
X876538Y704720D01*
X876538Y707076D01*
X878894Y709433D01*
X881250D01*
X885963Y704720D01*
X837449Y985042D02*
X835782Y986708D01*
X832450D01*
X830784Y985042D01*
Y978378D01*
X832450Y976712D01*
X835782D01*
X837449Y978378D01*
X840781Y976712D02*
X844113D01*
X842447D01*
Y986708D01*
X840781Y985042D01*
X855776Y976712D02*
X849111D01*
X855776Y983376D01*
Y985042D01*
X854110Y986708D01*
X850778D01*
X849111Y985042D01*
X910093Y962790D02*
Y965146D01*
X907737Y967502D01*
X905380D01*
X900668Y962790D01*
Y960433D01*
X903024Y958077D01*
X905380D01*
X906558Y954543D02*
X908915Y952187D01*
X907737Y953365D01*
X914805Y960433D01*
X912449D01*
X915984Y945118D02*
X923052Y952187D01*
X915984D01*
X920696Y947474D01*
X648840Y915173D02*
X646484D01*
X644128Y912816D01*
Y910460D01*
X648840Y905748D01*
X651197D01*
X653553Y908104D01*
Y910460D01*
X657087Y911638D02*
X659444Y913995D01*
X658265Y912816D01*
X651197Y919885D01*
Y917529D01*
X657087Y923420D02*
Y925776D01*
X659444Y928132D01*
X661800Y928132D01*
X662978Y926954D01*
Y924598D01*
X661800Y923420D01*
X662978Y924598D01*
X665334Y924598D01*
X666512Y923420D01*
X666512Y921064D01*
X664156Y918707D01*
X661800D01*
X850381Y663418D02*
X852048Y661752D01*
X855380D01*
X857046Y663418D01*
Y670082D01*
X855380Y671748D01*
X852048D01*
X850381Y670082D01*
X847049Y671748D02*
X843717D01*
X845383D01*
Y661752D01*
X847049Y663418D01*
X832054Y661752D02*
X838718D01*
Y666750D01*
X835386Y665084D01*
X833720D01*
X832054Y666750D01*
Y670082D01*
X833720Y671748D01*
X837052D01*
X838718Y670082D01*
X604998Y788315D02*
X603332Y786648D01*
Y783316D01*
X604998Y781650D01*
X611662D01*
X613328Y783316D01*
Y786648D01*
X611662Y788315D01*
X613328Y791647D02*
Y794979D01*
Y793313D01*
X603332D01*
X604998Y791647D01*
X613328Y799978D02*
Y803310D01*
Y801644D01*
X603332D01*
X604998Y799978D01*
X650332Y724176D02*
Y721819D01*
X652688Y719463D01*
X655044D01*
X659757Y724176D01*
Y726532D01*
X657401Y728888D01*
X655044D01*
X652688Y731244D02*
Y733601D01*
X650332Y735957D01*
X647976D01*
X643263Y731244D01*
X643263Y728888D01*
X645619Y726532D01*
X647976D01*
X649154Y727710D01*
X649154Y730066D01*
X645619Y733601D01*
X971274Y703672D02*
X973631D01*
X975987Y706028D01*
Y708384D01*
X971274Y713097D01*
X968918D01*
X966562Y710741D01*
Y708384D01*
X968918Y701316D02*
Y698959D01*
X966562Y696603D01*
X964206Y696603D01*
X963027Y697781D01*
Y700137D01*
X960671Y700137D01*
X959493Y701316D01*
Y703672D01*
X961849Y706028D01*
X964206D01*
X965384Y704850D01*
Y702494D01*
X967740Y702494D01*
X968918Y701316D01*
X965384Y702494D02*
X963027Y700137D01*
X816186Y817232D02*
Y827229D01*
X811188D01*
X809521Y825562D01*
Y818898D01*
X811188Y817232D01*
X816186D01*
X806189Y827229D02*
X802857D01*
X804523D01*
Y817232D01*
X806189Y818898D01*
X797859Y827229D02*
X794526D01*
X796192D01*
Y817232D01*
X797859Y818898D01*
X817496Y781729D02*
Y791726D01*
X812497D01*
X810831Y790060D01*
Y783395D01*
X812497Y781729D01*
X817496D01*
X807499Y790060D02*
X805833Y791726D01*
X802500D01*
X800834Y790060D01*
Y783395D01*
X802500Y781729D01*
X805833D01*
X807499Y783395D01*
Y785061D01*
X805833Y786728D01*
X800834D01*
X817496Y746227D02*
Y756224D01*
X812497D01*
X810831Y754557D01*
Y747893D01*
X812497Y746227D01*
X817496D01*
X807499Y747893D02*
X805833Y746227D01*
X802500D01*
X800834Y747893D01*
Y749559D01*
X802500Y751225D01*
X800834Y752891D01*
Y754557D01*
X802500Y756224D01*
X805833D01*
X807499Y754557D01*
Y752891D01*
X805833Y751225D01*
X807499Y749559D01*
Y747893D01*
X805833Y751225D02*
X802500D01*
M02*
