G04*
G04 #@! TF.GenerationSoftware,Altium Limited,Altium Designer,23.1.1 (15)*
G04*
G04 Layer_Physical_Order=2*
G04 Layer_Color=16711680*
%FSLAX44Y44*%
%MOMM*%
G71*
G04*
G04 #@! TF.SameCoordinates,B2BF10F3-798A-46CE-9BF2-DF2D7B13E792*
G04*
G04*
G04 #@! TF.FilePolarity,Positive*
G04*
G01*
G75*
%ADD10C,1.0000*%
%ADD12C,0.2000*%
%ADD15R,0.5200X0.5200*%
%ADD17R,0.5200X0.5200*%
%ADD22C,2.0000*%
%ADD23C,0.8000*%
G04:AMPARAMS|DCode=25|XSize=5mm|YSize=1mm|CornerRadius=0.25mm|HoleSize=0mm|Usage=FLASHONLY|Rotation=270.000|XOffset=0mm|YOffset=0mm|HoleType=Round|Shape=RoundedRectangle|*
%AMROUNDEDRECTD25*
21,1,5.0000,0.5000,0,0,270.0*
21,1,4.5000,1.0000,0,0,270.0*
1,1,0.5000,-0.2500,-2.2500*
1,1,0.5000,-0.2500,2.2500*
1,1,0.5000,0.2500,2.2500*
1,1,0.5000,0.2500,-2.2500*
%
%ADD25ROUNDEDRECTD25*%
%ADD26R,1.1000X1.1000*%
%ADD27R,0.5000X0.5500*%
%ADD28R,1.1000X1.1000*%
%ADD29R,1.4000X6.0000*%
%ADD30R,0.8578X0.8121*%
G04:AMPARAMS|DCode=31|XSize=1.21mm|YSize=0.59mm|CornerRadius=0.1475mm|HoleSize=0mm|Usage=FLASHONLY|Rotation=90.000|XOffset=0mm|YOffset=0mm|HoleType=Round|Shape=RoundedRectangle|*
%AMROUNDEDRECTD31*
21,1,1.2100,0.2950,0,0,90.0*
21,1,0.9150,0.5900,0,0,90.0*
1,1,0.2950,0.1475,0.4575*
1,1,0.2950,0.1475,-0.4575*
1,1,0.2950,-0.1475,-0.4575*
1,1,0.2950,-0.1475,0.4575*
%
%ADD31ROUNDEDRECTD31*%
%ADD32R,1.5000X1.6000*%
%ADD33R,1.2000X1.2000*%
G04:AMPARAMS|DCode=34|XSize=0.1925mm|YSize=0.8937mm|CornerRadius=0.0962mm|HoleSize=0mm|Usage=FLASHONLY|Rotation=90.000|XOffset=0mm|YOffset=0mm|HoleType=Round|Shape=RoundedRectangle|*
%AMROUNDEDRECTD34*
21,1,0.1925,0.7012,0,0,90.0*
21,1,0.0000,0.8937,0,0,90.0*
1,1,0.1925,0.3506,0.0000*
1,1,0.1925,0.3506,0.0000*
1,1,0.1925,-0.3506,0.0000*
1,1,0.1925,-0.3506,0.0000*
%
%ADD34ROUNDEDRECTD34*%
G04:AMPARAMS|DCode=35|XSize=0.8937mm|YSize=0.1925mm|CornerRadius=0.0962mm|HoleSize=0mm|Usage=FLASHONLY|Rotation=90.000|XOffset=0mm|YOffset=0mm|HoleType=Round|Shape=RoundedRectangle|*
%AMROUNDEDRECTD35*
21,1,0.8937,0.0000,0,0,90.0*
21,1,0.7012,0.1925,0,0,90.0*
1,1,0.1925,0.0000,0.3506*
1,1,0.1925,0.0000,-0.3506*
1,1,0.1925,0.0000,-0.3506*
1,1,0.1925,0.0000,0.3506*
%
%ADD35ROUNDEDRECTD35*%
%ADD36R,0.1925X0.8937*%
%ADD37R,2.5000X2.5000*%
%ADD38C,0.5000*%
G36*
X834318Y1120157D02*
X887658Y1107457D01*
X946078Y1082057D01*
X995608Y1046497D01*
X1029898Y1008397D01*
X1057838Y966487D01*
X1080698Y910607D01*
X1092128Y859807D01*
X1093398Y811547D01*
X1087048Y768367D01*
X1075618Y726457D01*
X1057838Y684547D01*
X1032438Y647717D01*
X1007038Y617237D01*
X976558Y590567D01*
X938458Y565167D01*
X890198Y543577D01*
X840668Y532147D01*
X802568Y529607D01*
X754308Y532147D01*
X702238Y546117D01*
X652708Y566437D01*
X605718Y596917D01*
X567618Y635017D01*
X543488Y671847D01*
X525708Y708677D01*
X507928Y762017D01*
X501578Y809007D01*
X504118Y858537D01*
X514278Y913147D01*
X530788Y955057D01*
X558728Y1000777D01*
X594288Y1041417D01*
X640008Y1076977D01*
X700968Y1106187D01*
X753038Y1118887D01*
X792387Y1122093D01*
X834318Y1120157D01*
D02*
G37*
%LPC*%
G36*
X735184Y1027697D02*
X731259D01*
Y1016427D01*
X742530D01*
Y1020351D01*
X735184Y1027697D01*
D02*
G37*
G36*
X728719D02*
X724795D01*
X717449Y1020351D01*
Y1016427D01*
X728719D01*
Y1027697D01*
D02*
G37*
G36*
X742530Y1013887D02*
X731259D01*
Y1002617D01*
X735184D01*
X742530Y1009963D01*
Y1013887D01*
D02*
G37*
G36*
X728719D02*
X717449D01*
Y1009963D01*
X724795Y1002617D01*
X728719D01*
Y1013887D01*
D02*
G37*
G36*
X898342Y1012865D02*
X894417D01*
Y1001595D01*
X905687D01*
Y1005519D01*
X898342Y1012865D01*
D02*
G37*
G36*
X891877D02*
X887953D01*
X880607Y1005519D01*
Y1001595D01*
X891877D01*
Y1012865D01*
D02*
G37*
G36*
X905687Y999055D02*
X894417D01*
Y987785D01*
X898342D01*
X905687Y995130D01*
Y999055D01*
D02*
G37*
G36*
X891877D02*
X880607D01*
Y995130D01*
X887953Y987785D01*
X891877D01*
Y999055D01*
D02*
G37*
G36*
X607174Y920590D02*
X603250D01*
Y909320D01*
X614520D01*
Y913244D01*
X607174Y920590D01*
D02*
G37*
G36*
X600710D02*
X596786D01*
X589440Y913244D01*
Y909320D01*
X600710D01*
Y920590D01*
D02*
G37*
G36*
X1017384Y919320D02*
X1013460D01*
Y908050D01*
X1024730D01*
Y911974D01*
X1017384Y919320D01*
D02*
G37*
G36*
X1010920D02*
X1006996D01*
X999650Y911974D01*
Y908050D01*
X1010920D01*
Y919320D01*
D02*
G37*
G36*
X614520Y906780D02*
X603250D01*
Y895510D01*
X607174D01*
X614520Y902856D01*
Y906780D01*
D02*
G37*
G36*
X600710D02*
X589440D01*
Y902856D01*
X596786Y895510D01*
X600710D01*
Y906780D01*
D02*
G37*
G36*
X1024730Y905510D02*
X1013460D01*
Y894240D01*
X1017384D01*
X1024730Y901586D01*
Y905510D01*
D02*
G37*
G36*
X1010920D02*
X999650D01*
Y901586D01*
X1006996Y894240D01*
X1010920D01*
Y905510D01*
D02*
G37*
G36*
X790109Y913320D02*
X784691D01*
X780860Y909489D01*
Y904071D01*
X783568Y901363D01*
X783568Y887186D01*
X781259Y886230D01*
X776666Y884327D01*
X774330Y883359D01*
X758380Y899309D01*
X758380Y903139D01*
X754549Y906970D01*
X749131D01*
X745300Y903139D01*
Y897721D01*
X749131Y893890D01*
X752961Y893890D01*
X768724Y878127D01*
X772900Y873952D01*
X782139Y864713D01*
X791771Y855080D01*
X787944Y845842D01*
X781662D01*
X715330D01*
X711537D01*
X708829Y848550D01*
X703411D01*
X699580Y844719D01*
Y839301D01*
X703411Y835470D01*
X708829D01*
X711537Y838178D01*
X715191D01*
X784878D01*
X793346D01*
X801053Y838178D01*
X802692Y836539D01*
X810704Y828527D01*
X806877Y819288D01*
X801515D01*
X791608D01*
X781700Y819288D01*
X768194Y819288D01*
X767868Y820813D01*
X767294Y821387D01*
X760523Y828159D01*
X750134D01*
X742788Y820813D01*
X741544Y819982D01*
X735330Y822556D01*
X727533Y819326D01*
X724304Y811530D01*
X715489Y806680D01*
X708660Y806680D01*
X700620Y806680D01*
X691492D01*
X690620Y806680D01*
X690620Y806680D01*
X682577Y804060D01*
X682577Y804060D01*
X674617D01*
Y793480D01*
Y792540D01*
X679658D01*
Y791270D01*
X680928D01*
Y785980D01*
X684697D01*
Y785980D01*
X684697Y785980D01*
X692691Y784124D01*
X696117Y773611D01*
X693875Y769068D01*
X689938Y766046D01*
X688665Y762973D01*
X688665Y762973D01*
Y753823D01*
X689645Y751457D01*
X689796Y751043D01*
X689873Y745656D01*
X689796Y740653D01*
X689766Y740570D01*
X682961Y733432D01*
X681490Y732427D01*
X679960Y731382D01*
X676090D01*
X666090Y735590D01*
X657641Y735590D01*
X650010D01*
Y729793D01*
X648930Y720240D01*
X645160D01*
Y714950D01*
X643890D01*
Y713680D01*
X638850D01*
Y709660D01*
Y702160D01*
X646809D01*
Y702160D01*
X650010Y699510D01*
X655712Y699510D01*
X666090D01*
Y709510D01*
X666090Y715590D01*
X669327Y721414D01*
X678397Y722221D01*
X684993Y716044D01*
X685899Y715130D01*
Y708409D01*
X690021D01*
X690659Y706867D01*
X694459Y703068D01*
X698316Y701470D01*
X707375D01*
Y700355D01*
X709765Y694584D01*
X736697Y667652D01*
X732916Y658523D01*
X728458Y658614D01*
X722560Y658614D01*
X709378D01*
Y638759D01*
X709130Y638483D01*
X699378Y633648D01*
X698750Y633909D01*
X697244D01*
X696250Y634321D01*
X694946Y633909D01*
X693750D01*
X689892Y632311D01*
X689892Y632311D01*
X689580Y631558D01*
X688565Y631138D01*
X687921Y629583D01*
X685948Y624819D01*
X680344Y622339D01*
X675382Y621242D01*
X673214Y623410D01*
X669290D01*
Y610870D01*
Y598330D01*
X673214D01*
X675382Y600498D01*
X685382Y596356D01*
Y588453D01*
X688565Y580769D01*
X689580Y580349D01*
X689892Y579596D01*
X689893Y579596D01*
X693368Y578156D01*
X693750Y577998D01*
X693750Y577998D01*
X694946D01*
X696250Y577586D01*
X697553Y577998D01*
X698749D01*
X698750Y577998D01*
X699131Y578156D01*
X702607Y579596D01*
X702607Y579596D01*
X702919Y580349D01*
X703934Y580769D01*
X704578Y582324D01*
X705708Y585053D01*
X707204Y588509D01*
X715102Y593534D01*
X717117D01*
X722561D01*
X732477Y593333D01*
X738375Y593333D01*
X751557D01*
X751557Y593333D01*
X757477D01*
Y593333D01*
X761557Y593333D01*
X772477D01*
X776557Y593333D01*
Y593333D01*
X782477D01*
Y593333D01*
X797477D01*
X801557Y593333D01*
Y593333D01*
X807477D01*
Y593333D01*
X822477D01*
X826557Y593333D01*
Y593333D01*
X832477D01*
Y593333D01*
X847477D01*
X851557Y593333D01*
Y593333D01*
X857477D01*
Y593333D01*
X870900D01*
X876557Y593333D01*
X886461Y593564D01*
X889075D01*
Y626104D01*
X891615D01*
Y593564D01*
X896429Y593564D01*
X902889Y589414D01*
X905453Y585871D01*
X907566Y580769D01*
X908581Y580349D01*
X908893Y579596D01*
X912750Y577998D01*
X914256D01*
X915250Y577586D01*
X916245Y577998D01*
X917750D01*
X921608Y579596D01*
X921920Y580349D01*
X922935Y580769D01*
X926118Y588453D01*
Y623453D01*
X922935Y631138D01*
X921920Y631558D01*
X921608Y632311D01*
X917750Y633909D01*
X916245D01*
X915250Y634321D01*
X915088Y634253D01*
X910831Y635921D01*
X905350Y641667D01*
Y645274D01*
X901144Y649480D01*
X902129Y659810D01*
X908114Y662918D01*
X941070D01*
X943779Y664041D01*
X983273Y703535D01*
X984396Y706244D01*
Y762109D01*
X989003Y770200D01*
X1004962D01*
X1009083Y770200D01*
X1013003Y771948D01*
X1014861Y771645D01*
X1023003Y766314D01*
Y762200D01*
X1040083D01*
Y779280D01*
X1040083D01*
X1040083Y792200D01*
X1040083Y799280D01*
X1040083Y807650D01*
X1040083Y817650D01*
X1040083Y820570D01*
X1040091Y830567D01*
X1040126Y838843D01*
X1040126Y845923D01*
X1040127Y855923D01*
Y858843D01*
X1040126D01*
X1040126Y865923D01*
Y875923D01*
X1023046D01*
Y872801D01*
X1022763Y871678D01*
X1011231Y866861D01*
X1009127Y867923D01*
X1005372Y867923D01*
X989047D01*
Y854396D01*
X989046Y851774D01*
X981560Y844287D01*
X979755Y842482D01*
X972624Y835351D01*
X964619Y827347D01*
X955106Y827419D01*
X953996Y830100D01*
X952296Y830804D01*
X951315Y831210D01*
X951315Y831210D01*
X944261Y831756D01*
X943715Y838810D01*
X943715Y838810D01*
X942605Y841491D01*
X939924Y842601D01*
X938779Y842127D01*
X935924Y842601D01*
X933924Y841773D01*
X931924Y842601D01*
X929924Y841773D01*
X927924Y842601D01*
X925924Y841773D01*
X923924Y842601D01*
X921924Y841773D01*
X919924Y842601D01*
X917069Y842127D01*
X915924Y842601D01*
X913243Y841491D01*
X912133Y838810D01*
X909952Y836629D01*
X897033D01*
X894719Y836630D01*
X889429Y841919D01*
X881570Y849779D01*
X881570Y853609D01*
X877739Y857440D01*
X872321D01*
X868490Y853609D01*
Y848191D01*
X872321Y844360D01*
X874132Y841251D01*
X868385Y831251D01*
X832556D01*
X792431Y871376D01*
X791232Y872575D01*
X791232Y881545D01*
Y886163D01*
Y901363D01*
X793940Y904071D01*
Y909489D01*
X790109Y913320D01*
D02*
G37*
G36*
X678388Y790000D02*
X674617D01*
Y785980D01*
X678388D01*
Y790000D01*
D02*
G37*
G36*
X1026274Y749140D02*
X1022350D01*
Y737870D01*
X1033620D01*
Y741794D01*
X1026274Y749140D01*
D02*
G37*
G36*
X1019810D02*
X1015886D01*
X1008540Y741794D01*
Y737870D01*
X1019810D01*
Y749140D01*
D02*
G37*
G36*
X1033620Y735330D02*
X1022350D01*
Y724060D01*
X1026274D01*
X1033620Y731406D01*
Y735330D01*
D02*
G37*
G36*
X1019810D02*
X1008540D01*
Y731406D01*
X1015886Y724060D01*
X1019810D01*
Y735330D01*
D02*
G37*
G36*
X609714Y732630D02*
X605790D01*
Y721360D01*
X617060D01*
Y725284D01*
X609714Y732630D01*
D02*
G37*
G36*
X603250D02*
X599326D01*
X591980Y725284D01*
Y721360D01*
X603250D01*
Y732630D01*
D02*
G37*
G36*
X642620Y720240D02*
X638850D01*
Y716220D01*
X642620D01*
Y720240D01*
D02*
G37*
G36*
X617060Y718820D02*
X605790D01*
Y707550D01*
X609714D01*
X617060Y714896D01*
Y718820D01*
D02*
G37*
G36*
X603250D02*
X591980D01*
Y714896D01*
X599326Y707550D01*
X603250D01*
Y718820D01*
D02*
G37*
G36*
X970394Y643730D02*
X966470D01*
Y632460D01*
X977740D01*
Y636384D01*
X970394Y643730D01*
D02*
G37*
G36*
X963930D02*
X960006D01*
X952660Y636384D01*
Y632460D01*
X963930D01*
Y643730D01*
D02*
G37*
G36*
X977740Y629920D02*
X966470D01*
Y618650D01*
X970394D01*
X977740Y625996D01*
Y629920D01*
D02*
G37*
G36*
X963930D02*
X952660D01*
Y625996D01*
X960006Y618650D01*
X963930D01*
Y629920D01*
D02*
G37*
G36*
X666750Y623410D02*
X662826D01*
X655480Y616064D01*
Y612140D01*
X666750D01*
Y623410D01*
D02*
G37*
G36*
Y609600D02*
X655480D01*
Y605676D01*
X662826Y598330D01*
X666750D01*
Y609600D01*
D02*
G37*
%LPD*%
G36*
X1014069Y848523D02*
X1021975Y843654D01*
X1022175Y843263D01*
X1019413Y832539D01*
X1011128Y828794D01*
X1009083Y829650D01*
X1004767Y829650D01*
X991902D01*
X988055Y836640D01*
X986881Y838771D01*
X994953Y846843D01*
X997004Y846843D01*
X1005025D01*
X1009127Y846843D01*
X1013046Y848625D01*
X1014069Y848523D01*
D02*
G37*
G36*
X1022544Y805671D02*
X1023003Y805036D01*
Y796114D01*
X1022720Y794969D01*
X1011232Y790176D01*
X1009083Y791280D01*
X1005435Y791280D01*
X996557D01*
X993935Y791280D01*
X984977Y800238D01*
X990787Y808570D01*
X1005630D01*
X1009083Y808570D01*
X1013003Y810698D01*
X1022544Y805671D01*
D02*
G37*
G36*
X773240Y794290D02*
Y792311D01*
X777071Y788480D01*
X776930Y778539D01*
X758606Y760215D01*
X749455Y760280D01*
X744697Y769713D01*
X748030Y776280D01*
X757689Y780281D01*
X761690Y789940D01*
X760390Y793079D01*
X760436Y796562D01*
X764007Y799579D01*
X773240Y794290D01*
D02*
G37*
G36*
X867220Y793919D02*
Y788501D01*
X871051Y784670D01*
X876469D01*
X880300Y788501D01*
X880300Y792331D01*
X882177Y794208D01*
X884491Y794209D01*
X897245D01*
X904214Y785116D01*
X904079Y783919D01*
X904079D01*
Y773639D01*
Y772049D01*
X909219D01*
Y769509D01*
X904079D01*
Y768516D01*
X898154Y763841D01*
X893557Y761960D01*
X892819Y761960D01*
X892819Y761960D01*
X889746Y760687D01*
X888473Y757614D01*
X888473Y757614D01*
X888473Y753760D01*
Y748464D01*
X889453Y746098D01*
X889604Y745684D01*
X889681Y740297D01*
X889604Y735294D01*
X889453Y734880D01*
X888473Y732514D01*
X888473Y731090D01*
X888473Y731090D01*
X888473Y723364D01*
X888839Y722482D01*
Y704266D01*
X887584Y702388D01*
X812371D01*
X806600Y699997D01*
X767017Y660415D01*
X730282Y697150D01*
X741101Y707969D01*
X743491Y713740D01*
Y735622D01*
X750401Y742760D01*
X755819D01*
X759650Y746591D01*
X759650Y750421D01*
X760388Y751159D01*
X807212Y797983D01*
X813273Y793206D01*
X814095Y792559D01*
X815012Y791571D01*
X812312Y787163D01*
X789416Y749769D01*
X785398Y743208D01*
X784852Y743182D01*
X781021Y739351D01*
Y733933D01*
X784852Y730102D01*
X790270D01*
X794101Y733933D01*
X794101Y739351D01*
X794100Y739352D01*
X792857Y740714D01*
X794888Y744031D01*
X820426Y785739D01*
X824017Y791603D01*
X828906Y799587D01*
X831090Y799587D01*
X859568D01*
X867220Y793919D01*
D02*
G37*
G36*
X966160Y764327D02*
Y720908D01*
X958655Y714822D01*
X950022Y718516D01*
Y722482D01*
X950387Y723364D01*
X950387Y732514D01*
X950387Y732514D01*
X950387Y732514D01*
X949376Y740336D01*
X950387Y748464D01*
X951350Y758065D01*
X952076Y759816D01*
Y762375D01*
X962076Y767383D01*
X966160Y764327D01*
D02*
G37*
D10*
X753110Y789940D02*
G03*
X753110Y789940I-5080J0D01*
G01*
X737977Y811530D02*
G03*
X737977Y811530I-2647J0D01*
G01*
X918041Y694227D02*
X923192Y699378D01*
X812371Y694227D02*
X918041D01*
X767017Y648873D02*
X812371Y694227D01*
X767017Y625873D02*
Y648873D01*
X715536Y700355D02*
X721945D01*
X735330Y713740D01*
Y777240D01*
X765017Y627873D02*
X767017Y625873D01*
X765017Y627873D02*
Y650873D01*
X715536Y700355D02*
Y732248D01*
Y700355D02*
X765017Y650873D01*
X713486Y733298D02*
X714486D01*
X715536Y732248D01*
X735330Y777240D02*
X748030Y789940D01*
D12*
X679960Y727550D02*
X694061Y713449D01*
X694517D01*
X658050Y727550D02*
X679960D01*
X643890Y707450D02*
X657950D01*
X658050Y707550D01*
X679658Y798770D02*
X698530D01*
X694794Y775884D02*
X704072D01*
X679658Y791020D02*
Y791270D01*
Y791020D02*
X694794Y775884D01*
X929624Y770664D02*
X930338D01*
X925037D02*
X929624D01*
X935067Y765221D01*
X929509Y770779D02*
X929624Y770664D01*
X924921Y770779D02*
X929509D01*
X832565Y681990D02*
X933450D01*
X805448Y654873D02*
X832565Y681990D01*
X933450D02*
X969992Y718532D01*
X792017Y625873D02*
Y648873D01*
X798017Y654873D01*
X805448D01*
X969992Y718532D02*
Y770811D01*
X934720Y676910D02*
X973516Y715706D01*
Y772271D01*
X852485Y676910D02*
X934720D01*
X823017Y654873D02*
X830448D01*
X817017Y648873D02*
X823017Y654873D01*
X830448D02*
X852485Y676910D01*
X817017Y625873D02*
Y648873D01*
X842017D02*
X864870Y671726D01*
X937156D02*
X977040Y711610D01*
X864870Y671726D02*
X937156D01*
X977040Y711610D02*
Y777619D01*
X842017Y625873D02*
Y648873D01*
X980564Y706244D02*
Y779101D01*
X941070Y666750D02*
X980564Y706244D01*
X881380Y666750D02*
X941070D01*
X872332Y631188D02*
Y657702D01*
X881380Y666750D01*
X867017Y625873D02*
X872332Y631188D01*
X984374Y735601D02*
Y781829D01*
X954784Y811419D02*
X984374Y781829D01*
X755328Y815619D02*
X755491Y815457D01*
X908001D02*
X908039Y815419D01*
X755491Y815457D02*
X908001D01*
X787400Y739140D02*
X787561Y738979D01*
Y736642D02*
Y738979D01*
X706120Y842010D02*
X802640D01*
X825231Y819419D02*
X908039D01*
X802640Y842010D02*
X825231Y819419D01*
X828851Y823419D02*
X908039D01*
X751840Y900430D02*
X828851Y823419D01*
X753110Y749300D02*
X811229Y807419D01*
X828409Y811419D02*
X908039D01*
X787400Y870988D02*
X830969Y827419D01*
X826759Y803419D02*
X908039D01*
X830969Y827419D02*
X908039D01*
X787400Y739140D02*
X826759Y803419D01*
X811229Y807419D02*
X908039D01*
X787400Y870988D02*
Y906780D01*
X873760Y791210D02*
X880590Y798040D01*
X875030Y850900D02*
X893132Y832798D01*
X915886Y798474D02*
X915924Y798436D01*
X880590Y798040D02*
X915886D01*
X915924Y798002D02*
Y798436D01*
X1031099Y866895D02*
X1031587D01*
X1017927Y858357D02*
X1022561D01*
X1016779Y857209D02*
X1017927Y858357D01*
X1031056Y790253D02*
X1031543D01*
X1017551Y780503D02*
X1018699Y781651D01*
X1031056Y828623D02*
X1031543D01*
X1018699Y781651D02*
X1022454D01*
X1031056Y790253D01*
X1022561Y858357D02*
X1031099Y866895D01*
X1019198Y820690D02*
X1022214D01*
X1018050Y819542D02*
X1019198Y820690D01*
X1022214D02*
X1022290Y820766D01*
X1023199D01*
X1031056Y828623D01*
X947809Y815419D02*
X964377D01*
X999043Y780753D01*
X947809Y823419D02*
X966110D01*
X975333Y832642D01*
X975333D01*
X999087Y856395D01*
Y856895D01*
X999043Y780253D02*
Y780753D01*
X998247Y819419D02*
X999043Y818623D01*
X971674Y819419D02*
X998247D01*
X947809D02*
X971674D01*
X950688Y795099D02*
X973516Y772271D01*
X952262Y788541D02*
X969992Y770811D01*
X952283Y807381D02*
X980564Y779101D01*
X951277Y803381D02*
X977040Y777619D01*
X945704Y795099D02*
X950688D01*
X939924Y795534D02*
X945269D01*
X945704Y795099D01*
X937916Y788541D02*
X952262D01*
X935962Y790496D02*
X937916Y788541D01*
X947847Y807381D02*
X952283D01*
X915886Y832764D02*
Y832798D01*
X893132D02*
X915886D01*
X915924Y832802D02*
Y835304D01*
X915886Y832764D02*
X915924Y832802D01*
Y795534D02*
Y798002D01*
X915886Y798040D02*
X915924Y798002D01*
X947809Y811419D02*
X954784D01*
X927924Y815419D02*
X931924Y811419D01*
X947809D01*
X927924Y795534D02*
Y815419D01*
X930338Y770664D02*
X931510Y771835D01*
X927924Y787479D02*
X931510Y783893D01*
Y771835D02*
Y783893D01*
X927924Y787479D02*
Y795534D01*
X923924Y785376D02*
X924921Y784379D01*
X935258Y784145D02*
X942224Y777179D01*
X935258Y784145D02*
Y785129D01*
X924921Y778779D02*
Y784379D01*
X923924Y785376D02*
Y795534D01*
X931924Y788463D02*
X935258Y785129D01*
X931924Y788463D02*
Y795534D01*
X935962Y790496D02*
Y795496D01*
X947809Y807419D02*
X947847Y807381D01*
X935924Y795534D02*
X935962Y795496D01*
X942224Y777179D02*
X944904D01*
X948244Y773839D01*
Y759816D02*
Y773839D01*
X944566Y756139D02*
X948244Y759816D01*
X944566Y753039D02*
Y756139D01*
X914951Y758987D02*
X915224Y759261D01*
X913294Y753039D02*
X914951Y754696D01*
X915224Y759261D02*
Y777319D01*
X914951Y754696D02*
Y758987D01*
X913764Y778779D02*
X915224Y777319D01*
X909219Y778779D02*
X913764D01*
X909219D02*
X919886Y789446D01*
Y795496D02*
X919924Y795534D01*
X919886Y789446D02*
Y795496D01*
D15*
X903414Y706037D02*
D03*
X911414D02*
D03*
X934654Y706199D02*
D03*
X926654D02*
D03*
D17*
X909219Y770779D02*
D03*
Y778779D02*
D03*
X924921Y770779D02*
D03*
Y778779D02*
D03*
X940624Y770779D02*
D03*
Y778779D02*
D03*
D22*
X965200Y631190D02*
D03*
X1021080Y736600D02*
D03*
X1012190Y906780D02*
D03*
X893147Y1000325D02*
D03*
X729989Y1015157D02*
D03*
X601980Y908050D02*
D03*
X604520Y720090D02*
D03*
X668020Y610870D02*
D03*
X892810Y640080D02*
D03*
X755328Y815619D02*
D03*
D23*
X779780Y806450D02*
D03*
Y795020D02*
D03*
X787561Y736642D02*
D03*
X706120Y842010D02*
D03*
X753110Y749300D02*
D03*
X751840Y900430D02*
D03*
X787400Y906780D02*
D03*
X873760Y791210D02*
D03*
X875030Y850900D02*
D03*
X1018050Y780503D02*
D03*
Y857209D02*
D03*
Y819542D02*
D03*
D25*
X915250Y605953D02*
D03*
X696250D02*
D03*
D26*
X658050Y727550D02*
D03*
Y707550D02*
D03*
D27*
X643890Y714950D02*
D03*
Y707450D02*
D03*
X679658Y791270D02*
D03*
Y798770D02*
D03*
D28*
X718660Y798640D02*
D03*
X698660D02*
D03*
D29*
X890345Y626104D02*
D03*
X867017Y625873D02*
D03*
X842017D02*
D03*
X817017D02*
D03*
X792017D02*
D03*
X767017D02*
D03*
X742017D02*
D03*
X718918Y626073D02*
D03*
D30*
X704158Y775970D02*
D03*
X715702D02*
D03*
X704272Y715010D02*
D03*
X692728D02*
D03*
D31*
X713486Y758398D02*
D03*
X694486D02*
D03*
Y733298D02*
D03*
X703986D02*
D03*
X713486D02*
D03*
X913294Y753039D02*
D03*
X894294D02*
D03*
Y727939D02*
D03*
X903794D02*
D03*
X913294D02*
D03*
X944566Y753039D02*
D03*
X925566D02*
D03*
Y727939D02*
D03*
X935067D02*
D03*
X944566D02*
D03*
D32*
X999043Y780740D02*
D03*
Y819110D02*
D03*
X999087Y857383D02*
D03*
D33*
X1031543Y770740D02*
D03*
Y790740D02*
D03*
Y809110D02*
D03*
Y829110D02*
D03*
X1031587Y847383D02*
D03*
Y867383D02*
D03*
D34*
X908039Y827419D02*
D03*
Y823419D02*
D03*
Y819419D02*
D03*
Y803419D02*
D03*
Y807419D02*
D03*
Y811419D02*
D03*
X947809Y803419D02*
D03*
Y807419D02*
D03*
Y811419D02*
D03*
Y815419D02*
D03*
Y819419D02*
D03*
Y823419D02*
D03*
Y827419D02*
D03*
X908039Y815419D02*
D03*
D35*
X915924Y835304D02*
D03*
Y795534D02*
D03*
X939924Y835304D02*
D03*
X935924D02*
D03*
X931924D02*
D03*
X927924D02*
D03*
X923924D02*
D03*
X919924D02*
D03*
Y795534D02*
D03*
X923924D02*
D03*
X927924D02*
D03*
X931924D02*
D03*
X935924D02*
D03*
D36*
X939924D02*
D03*
D37*
X927924Y815419D02*
D03*
D38*
X935067Y741680D02*
Y765221D01*
Y727939D02*
Y741680D01*
X903794Y742950D02*
Y765354D01*
Y727939D02*
Y742950D01*
X905064Y741680D02*
X935067D01*
X903794Y742950D02*
X905064Y741680D01*
X913294Y705026D02*
Y707916D01*
X907681Y699413D02*
X913294Y705026D01*
X712585Y715816D02*
Y729297D01*
X899147Y699413D02*
X907681D01*
X934654Y699575D02*
X938921D01*
X930387D02*
X934654D01*
X907681Y699413D02*
X934492D01*
X934654Y699575D01*
X934754Y706299D02*
Y727626D01*
X934654Y706199D02*
X934754Y706299D01*
Y727626D02*
X935067Y727939D01*
X894294Y704266D02*
X899147Y699413D01*
X894294Y704266D02*
Y727939D01*
X926654Y706199D02*
X926754Y706099D01*
Y703208D02*
Y706099D01*
Y703208D02*
X930387Y699575D01*
X938921D02*
X944566Y705221D01*
Y727939D01*
X925566Y707287D02*
X926654Y706199D01*
X925566Y707287D02*
Y727939D01*
X911414Y706037D02*
X913294Y707916D01*
Y727939D01*
X903414Y706037D02*
X903794Y706416D01*
Y727939D01*
X692925Y715010D02*
X692956D01*
X694517Y710725D02*
Y713449D01*
Y710725D02*
X698316Y706925D01*
X710227D01*
X692956Y715010D02*
X694517Y713449D01*
X710227Y706925D02*
X712585Y709283D01*
Y729297D02*
X713486Y730198D01*
Y733298D01*
X692925Y715010D02*
X694486Y716571D01*
X692728Y715010D02*
X692925D01*
X694486Y716571D02*
Y733298D01*
X713486Y761498D02*
X715702Y763714D01*
X713486Y758398D02*
Y761498D01*
X715702Y763714D02*
Y775970D01*
Y791902D02*
X735330Y811530D01*
X715702Y775970D02*
Y791902D01*
X704072Y775884D02*
X704158Y775970D01*
X703986Y733298D02*
X704072Y733384D01*
Y775884D01*
X704129Y715153D02*
Y733155D01*
X703986Y733298D02*
X704129Y733155D01*
Y715153D02*
X704272Y715010D01*
X935067Y765221D02*
X940624Y770779D01*
X903794Y765354D02*
X909219Y770779D01*
M02*
