G04*
G04 #@! TF.GenerationSoftware,Altium Limited,Altium Designer,23.1.1 (15)*
G04*
G04 Layer_Color=32896*
%FSLAX44Y44*%
%MOMM*%
G71*
G04*
G04 #@! TF.SameCoordinates,B2BF10F3-798A-46CE-9BF2-DF2D7B13E792*
G04*
G04*
G04 #@! TF.FilePolarity,Positive*
G04*
G01*
G75*
%ADD10C,1.0000*%
%ADD11C,0.2500*%
%ADD12C,0.2000*%
%ADD13C,0.2540*%
%ADD44C,0.2400*%
%ADD45C,0.1000*%
%ADD46C,0.1270*%
G36*
X783205Y569523D02*
X781898D01*
X781518Y570264D01*
X782445D01*
Y575590D01*
X783205D01*
Y569523D01*
D02*
G37*
G36*
X778377Y575726D02*
X778543Y575697D01*
X778689Y575668D01*
X778816Y575619D01*
X778914Y575580D01*
X778992Y575551D01*
X779031Y575521D01*
X779050Y575512D01*
X779177Y575414D01*
X779284Y575317D01*
X779372Y575209D01*
X779441Y575112D01*
X779489Y575034D01*
X779528Y574956D01*
X779548Y574917D01*
X779557Y574897D01*
X779587Y574819D01*
X779606Y574731D01*
X779645Y574536D01*
X779675Y574312D01*
X779694Y574097D01*
X779704Y573902D01*
X779714Y573815D01*
Y573736D01*
Y573678D01*
Y573629D01*
Y573600D01*
Y573590D01*
Y569523D01*
X778953D01*
Y573571D01*
Y573698D01*
Y573815D01*
X778943Y573922D01*
Y574019D01*
X778933Y574185D01*
X778914Y574312D01*
X778904Y574409D01*
X778885Y574478D01*
X778875Y574517D01*
Y574526D01*
X778846Y574604D01*
X778797Y574683D01*
X778758Y574751D01*
X778719Y574800D01*
X778670Y574839D01*
X778641Y574868D01*
X778621Y574887D01*
X778611Y574897D01*
X778543Y574936D01*
X778475Y574965D01*
X778338Y575004D01*
X778290Y575014D01*
X778251Y575024D01*
X778212D01*
X778085Y575014D01*
X777968Y574985D01*
X777919Y574965D01*
X777880Y574956D01*
X777860Y574946D01*
X777851D01*
X777734Y574887D01*
X777607Y574819D01*
X777470Y574741D01*
X777334Y574663D01*
X777217Y574585D01*
X777119Y574526D01*
X777080Y574497D01*
X777051Y574487D01*
X777041Y574468D01*
X777031D01*
X776661Y575043D01*
X776826Y575180D01*
X776983Y575297D01*
X777119Y575395D01*
X777236Y575473D01*
X777334Y575521D01*
X777412Y575560D01*
X777451Y575580D01*
X777470Y575590D01*
X777607Y575638D01*
X777734Y575677D01*
X777860Y575697D01*
X777968Y575717D01*
X778065Y575726D01*
X778143Y575736D01*
X778202D01*
X778377Y575726D01*
D02*
G37*
D10*
X724920Y674850D02*
G03*
X724920Y674850I-4702J0D01*
G01*
D11*
X658650Y696300D02*
G03*
X658650Y696300I-1250J0D01*
G01*
X688660Y799290D02*
G03*
X688660Y799290I-1250J0D01*
G01*
X950276Y792793D02*
G03*
X951394Y792102I0J-1250D01*
G01*
D12*
X720958Y732784D02*
G03*
X720958Y732784I-1000J0D01*
G01*
X915294Y716389D02*
G03*
X915294Y716389I-1000J0D01*
G01*
X946566D02*
G03*
X946566Y716389I-1000J0D01*
G01*
X668650Y708800D02*
Y726300D01*
X654150Y716800D02*
Y718300D01*
X699910Y788040D02*
X717410D01*
X707910Y802540D02*
X709410D01*
X699869Y784470D02*
X719991D01*
X699869Y767470D02*
X719991D01*
X688439Y706510D02*
X708561D01*
X688439Y723510D02*
X708561D01*
X902414Y699687D02*
X912414D01*
X902414Y712386D02*
X912414D01*
X915569Y769779D02*
Y779779D01*
X902869Y769779D02*
Y779779D01*
X931272Y769779D02*
Y779779D01*
X918571Y769779D02*
Y779779D01*
X946974Y769779D02*
Y779779D01*
X934274Y769779D02*
Y779779D01*
X925654Y712549D02*
X935654D01*
X925654Y699849D02*
X935654D01*
X943924Y795419D02*
X947924D01*
Y799419D01*
X907924Y795419D02*
X911924D01*
X907924D02*
Y799419D01*
X943924Y835419D02*
X947924D01*
Y831419D02*
Y835419D01*
X907924D02*
X911924D01*
X907924Y831419D02*
Y835419D01*
D13*
X645078Y692861D02*
X635082D01*
Y687862D01*
X636748Y686196D01*
X640080D01*
X641746Y687862D01*
Y692861D01*
Y689528D02*
X645078Y686196D01*
X635082Y676199D02*
Y682864D01*
X640080D01*
X638414Y679532D01*
Y677865D01*
X640080Y676199D01*
X643412D01*
X645078Y677865D01*
Y681198D01*
X643412Y682864D01*
X667938Y803351D02*
X657942D01*
Y798352D01*
X659608Y796686D01*
X662940D01*
X664606Y798352D01*
Y803351D01*
Y800018D02*
X667938Y796686D01*
Y788355D02*
X657942D01*
X662940Y793354D01*
Y786689D01*
X664128Y660604D02*
X654132D01*
Y665602D01*
X655798Y667269D01*
X662462D01*
X664128Y665602D01*
Y660604D01*
X654132Y670601D02*
Y673933D01*
Y672267D01*
X664128D01*
X662462Y670601D01*
Y678931D02*
X664128Y680598D01*
Y683930D01*
X662462Y685596D01*
X660796D01*
X659130Y683930D01*
Y682264D01*
Y683930D01*
X657464Y685596D01*
X655798D01*
X654132Y683930D01*
Y680598D01*
X655798Y678931D01*
X696164Y816692D02*
Y826688D01*
X701162D01*
X702829Y825022D01*
Y818358D01*
X701162Y816692D01*
X696164D01*
X706161Y826688D02*
X709493D01*
X707827D01*
Y816692D01*
X706161Y818358D01*
X721156Y826688D02*
X714491D01*
X721156Y820024D01*
Y818358D01*
X719490Y816692D01*
X716158D01*
X714491Y818358D01*
X830580Y571582D02*
X827248D01*
X828914D01*
Y579912D01*
X827248Y581578D01*
X825582D01*
X823915Y579912D01*
X833912Y581578D02*
X837244D01*
X835578D01*
Y571582D01*
X833912Y573248D01*
X739058Y739699D02*
X730728D01*
X729062Y741366D01*
Y744698D01*
X730728Y746364D01*
X739058D01*
X729062Y754695D02*
X739058D01*
X734060Y749696D01*
Y756361D01*
X695564Y688818D02*
X693898Y687152D01*
X690565D01*
X688899Y688818D01*
Y695482D01*
X690565Y697148D01*
X693898D01*
X695564Y695482D01*
X705561Y687152D02*
X702228Y688818D01*
X698896Y692150D01*
Y695482D01*
X700562Y697148D01*
X703895D01*
X705561Y695482D01*
Y693816D01*
X703895Y692150D01*
X698896D01*
X679846Y776762D02*
X681512Y778428D01*
X684845D01*
X686511Y776762D01*
Y770098D01*
X684845Y768432D01*
X681512D01*
X679846Y770098D01*
X676514Y778428D02*
X669849D01*
Y776762D01*
X676514Y770098D01*
Y768432D01*
X868762Y746201D02*
X877092D01*
X878758Y744535D01*
Y741202D01*
X877092Y739536D01*
X868762D01*
X870428Y736204D02*
X868762Y734538D01*
Y731205D01*
X870428Y729539D01*
X872094D01*
X873760Y731205D01*
Y732872D01*
Y731205D01*
X875426Y729539D01*
X877092D01*
X878758Y731205D01*
Y734538D01*
X877092Y736204D01*
X941781Y860978D02*
Y852648D01*
X940115Y850982D01*
X936782D01*
X935116Y852648D01*
Y860978D01*
X925119Y850982D02*
X931784D01*
X925119Y857646D01*
Y859312D01*
X926786Y860978D01*
X930118D01*
X931784Y859312D01*
X965857Y743696D02*
X957526D01*
X955860Y745362D01*
Y748694D01*
X957526Y750360D01*
X965857D01*
X955860Y753692D02*
Y757025D01*
Y755358D01*
X965857D01*
X964191Y753692D01*
X1046451Y812419D02*
X1056448D01*
Y817417D01*
X1054782Y819083D01*
X1051450D01*
X1049784Y817417D01*
Y812419D01*
Y815751D02*
X1046451Y819083D01*
X1054782Y822415D02*
X1056448Y824081D01*
Y827414D01*
X1054782Y829080D01*
X1053116D01*
X1051450Y827414D01*
Y825748D01*
Y827414D01*
X1049784Y829080D01*
X1048118D01*
X1046451Y827414D01*
Y824081D01*
X1048118Y822415D01*
X1045182Y774751D02*
X1055178D01*
Y779750D01*
X1053512Y781416D01*
X1050180D01*
X1048514Y779750D01*
Y774751D01*
Y778083D02*
X1045182Y781416D01*
Y791413D02*
Y784748D01*
X1051846Y791413D01*
X1053512D01*
X1055178Y789746D01*
Y786414D01*
X1053512Y784748D01*
X1045164Y853258D02*
X1055161D01*
Y858257D01*
X1053495Y859923D01*
X1050163D01*
X1048496Y858257D01*
Y853258D01*
Y856590D02*
X1045164Y859923D01*
Y863255D02*
Y866587D01*
Y864921D01*
X1055161D01*
X1053495Y863255D01*
X928988Y686357D02*
X927322Y684691D01*
X923989D01*
X922323Y686357D01*
Y693021D01*
X923989Y694687D01*
X927322D01*
X928988Y693021D01*
X938985Y684691D02*
X932320D01*
Y689689D01*
X935652Y688023D01*
X937318D01*
X938985Y689689D01*
Y693021D01*
X937318Y694687D01*
X933986D01*
X932320Y693021D01*
X906540Y692859D02*
X908206Y694525D01*
X911538D01*
X913205Y692859D01*
Y686194D01*
X911538Y684528D01*
X908206D01*
X906540Y686194D01*
X896543Y684528D02*
X903208D01*
X896543Y691193D01*
Y692859D01*
X898210Y694525D01*
X901542D01*
X903208Y692859D01*
X888126Y778032D02*
X889792Y779698D01*
X893124D01*
X894791Y778032D01*
Y771368D01*
X893124Y769702D01*
X889792D01*
X888126Y771368D01*
X879796Y769702D02*
Y779698D01*
X884794Y774700D01*
X878129D01*
X863600Y770098D02*
X861934Y768432D01*
X858602D01*
X856936Y770098D01*
Y776762D01*
X858602Y778428D01*
X861934D01*
X863600Y776762D01*
X866932Y778428D02*
X870265D01*
X868598D01*
Y768432D01*
X866932Y770098D01*
X963534Y771368D02*
X961868Y769702D01*
X958536D01*
X956869Y771368D01*
Y778032D01*
X958536Y779698D01*
X961868D01*
X963534Y778032D01*
X966866Y771368D02*
X968532Y769702D01*
X971864D01*
X973531Y771368D01*
Y773034D01*
X971864Y774700D01*
X970198D01*
X971864D01*
X973531Y776366D01*
Y778032D01*
X971864Y779698D01*
X968532D01*
X966866Y778032D01*
D44*
X1020997Y791965D02*
G03*
X1020997Y791965I-1200J0D01*
G01*
Y830335D02*
G03*
X1020997Y830335I-1200J0D01*
G01*
X1021041Y868607D02*
G03*
X1021041Y868607I-1200J0D01*
G01*
D45*
X680819Y560297D02*
Y669771D01*
X931771Y560297D02*
Y669771D01*
X680819Y560297D02*
X931771D01*
X680819Y669771D02*
X931771D01*
X680057Y559789D02*
Y669263D01*
X931009Y559789D02*
Y669263D01*
X680057Y559789D02*
X931009D01*
X680057Y669263D02*
X931009D01*
D46*
X689486Y742548D02*
Y749148D01*
X700636Y753848D02*
X707336D01*
X718486Y742548D02*
Y749148D01*
X995543Y762740D02*
Y768740D01*
Y762740D02*
X1022043D01*
X995543Y792740D02*
Y798740D01*
X1022043D01*
X995543Y801110D02*
Y807110D01*
Y801110D02*
X1022043D01*
X995543Y831110D02*
Y837110D01*
X1022043D01*
X995587Y839383D02*
Y845383D01*
Y839383D02*
X1022087D01*
X995587Y869383D02*
Y875383D01*
X1022087D01*
X889294Y737189D02*
Y743789D01*
X900444Y748489D02*
X907144D01*
X918294Y737189D02*
Y743789D01*
X920566Y737189D02*
Y743789D01*
X931717Y748489D02*
X938417D01*
X949566Y737189D02*
Y743789D01*
M02*
