G04*
G04 #@! TF.GenerationSoftware,Altium Limited,Altium Designer,23.1.1 (15)*
G04*
G04 Layer_Color=16711935*
%FSLAX44Y44*%
%MOMM*%
G71*
G04*
G04 #@! TF.SameCoordinates,B2BF10F3-798A-46CE-9BF2-DF2D7B13E792*
G04*
G04*
G04 #@! TF.FilePolarity,Negative*
G04*
G01*
G75*
%ADD10C,1.0000*%
%ADD15R,0.5200X0.5200*%
%ADD17R,0.5200X0.5200*%
G04:AMPARAMS|DCode=21|XSize=5.2032mm|YSize=1.2032mm|CornerRadius=0.3516mm|HoleSize=0mm|Usage=FLASHONLY|Rotation=270.000|XOffset=0mm|YOffset=0mm|HoleType=Round|Shape=RoundedRectangle|*
%AMROUNDEDRECTD21*
21,1,5.2032,0.5000,0,0,270.0*
21,1,4.5000,1.2032,0,0,270.0*
1,1,0.7032,-0.2500,-2.2500*
1,1,0.7032,-0.2500,2.2500*
1,1,0.7032,0.2500,2.2500*
1,1,0.7032,0.2500,-2.2500*
%
%ADD21ROUNDEDRECTD21*%
%ADD22C,2.0000*%
%ADD23C,0.8000*%
%ADD26R,1.1000X1.1000*%
%ADD28R,1.1000X1.1000*%
%ADD29R,1.4000X6.0000*%
%ADD30R,0.8578X0.8121*%
G04:AMPARAMS|DCode=31|XSize=1.21mm|YSize=0.59mm|CornerRadius=0.1475mm|HoleSize=0mm|Usage=FLASHONLY|Rotation=90.000|XOffset=0mm|YOffset=0mm|HoleType=Round|Shape=RoundedRectangle|*
%AMROUNDEDRECTD31*
21,1,1.2100,0.2950,0,0,90.0*
21,1,0.9150,0.5900,0,0,90.0*
1,1,0.2950,0.1475,0.4575*
1,1,0.2950,0.1475,-0.4575*
1,1,0.2950,-0.1475,-0.4575*
1,1,0.2950,-0.1475,0.4575*
%
%ADD31ROUNDEDRECTD31*%
G04:AMPARAMS|DCode=34|XSize=0.1925mm|YSize=0.8937mm|CornerRadius=0.0962mm|HoleSize=0mm|Usage=FLASHONLY|Rotation=90.000|XOffset=0mm|YOffset=0mm|HoleType=Round|Shape=RoundedRectangle|*
%AMROUNDEDRECTD34*
21,1,0.1925,0.7012,0,0,90.0*
21,1,0.0000,0.8937,0,0,90.0*
1,1,0.1925,0.3506,0.0000*
1,1,0.1925,0.3506,0.0000*
1,1,0.1925,-0.3506,0.0000*
1,1,0.1925,-0.3506,0.0000*
%
%ADD34ROUNDEDRECTD34*%
G04:AMPARAMS|DCode=35|XSize=0.8937mm|YSize=0.1925mm|CornerRadius=0.0962mm|HoleSize=0mm|Usage=FLASHONLY|Rotation=90.000|XOffset=0mm|YOffset=0mm|HoleType=Round|Shape=RoundedRectangle|*
%AMROUNDEDRECTD35*
21,1,0.8937,0.0000,0,0,90.0*
21,1,0.7012,0.1925,0,0,90.0*
1,1,0.1925,0.0000,0.3506*
1,1,0.1925,0.0000,-0.3506*
1,1,0.1925,0.0000,-0.3506*
1,1,0.1925,0.0000,0.3506*
%
%ADD35ROUNDEDRECTD35*%
%ADD36R,0.1925X0.8937*%
%ADD37R,2.5000X2.5000*%
%ADD39R,0.7032X0.7532*%
G04:AMPARAMS|DCode=40|XSize=1.4132mm|YSize=0.7932mm|CornerRadius=0.2491mm|HoleSize=0mm|Usage=FLASHONLY|Rotation=90.000|XOffset=0mm|YOffset=0mm|HoleType=Round|Shape=RoundedRectangle|*
%AMROUNDEDRECTD40*
21,1,1.4132,0.2950,0,0,90.0*
21,1,0.9150,0.7932,0,0,90.0*
1,1,0.4982,0.1475,0.4575*
1,1,0.4982,0.1475,-0.4575*
1,1,0.4982,-0.1475,-0.4575*
1,1,0.4982,-0.1475,0.4575*
%
%ADD40ROUNDEDRECTD40*%
%ADD41R,1.7032X1.8032*%
%ADD42R,1.4032X1.4032*%
D10*
X753110Y789940D02*
G03*
X753110Y789940I-5080J0D01*
G01*
X737977Y811530D02*
G03*
X737977Y811530I-2647J0D01*
G01*
D15*
X903414Y706037D02*
D03*
X911414D02*
D03*
X934654Y706199D02*
D03*
X926654D02*
D03*
D17*
X909219Y770779D02*
D03*
Y778779D02*
D03*
X924921Y770779D02*
D03*
Y778779D02*
D03*
X940624Y770779D02*
D03*
Y778779D02*
D03*
D21*
X915250Y605953D02*
D03*
X696250D02*
D03*
D22*
X965200Y631190D02*
D03*
X1021080Y736600D02*
D03*
X1012190Y906780D02*
D03*
X893147Y1000325D02*
D03*
X729989Y1015157D02*
D03*
X601980Y908050D02*
D03*
X604520Y720090D02*
D03*
X668020Y610870D02*
D03*
X892810Y640080D02*
D03*
X755328Y815619D02*
D03*
D23*
X779780Y806450D02*
D03*
Y795020D02*
D03*
X787561Y736642D02*
D03*
X706120Y842010D02*
D03*
X753110Y749300D02*
D03*
X751840Y900430D02*
D03*
X787400Y906780D02*
D03*
X873760Y791210D02*
D03*
X875030Y850900D02*
D03*
X1018050Y780503D02*
D03*
Y857209D02*
D03*
Y819542D02*
D03*
D26*
X658050Y727550D02*
D03*
Y707550D02*
D03*
D28*
X718660Y798640D02*
D03*
X698660D02*
D03*
D29*
X890345Y626104D02*
D03*
X867017Y625873D02*
D03*
X842017D02*
D03*
X817017D02*
D03*
X792017D02*
D03*
X767017D02*
D03*
X742017D02*
D03*
X718918Y626073D02*
D03*
D30*
X704158Y775970D02*
D03*
X715702D02*
D03*
X704272Y715010D02*
D03*
X692728D02*
D03*
D31*
X894294Y727939D02*
D03*
X903794D02*
D03*
X913294D02*
D03*
X925566D02*
D03*
X935067D02*
D03*
X944566D02*
D03*
D34*
X908039Y827419D02*
D03*
Y823419D02*
D03*
Y819419D02*
D03*
Y803419D02*
D03*
Y807419D02*
D03*
Y811419D02*
D03*
X947809Y803419D02*
D03*
Y807419D02*
D03*
Y811419D02*
D03*
Y815419D02*
D03*
Y819419D02*
D03*
Y823419D02*
D03*
Y827419D02*
D03*
X908039Y815419D02*
D03*
D35*
X915924Y835304D02*
D03*
Y795534D02*
D03*
X939924Y835304D02*
D03*
X935924D02*
D03*
X931924D02*
D03*
X927924D02*
D03*
X923924D02*
D03*
X919924D02*
D03*
Y795534D02*
D03*
X923924D02*
D03*
X927924D02*
D03*
X931924D02*
D03*
X935924D02*
D03*
D36*
X939924D02*
D03*
D37*
X927924Y815419D02*
D03*
D39*
X643890Y714950D02*
D03*
Y707450D02*
D03*
X679658Y791270D02*
D03*
Y798770D02*
D03*
D40*
X713486Y758398D02*
D03*
X694486D02*
D03*
Y733298D02*
D03*
X703986D02*
D03*
X713486D02*
D03*
X913294Y753039D02*
D03*
X894294D02*
D03*
X944566D02*
D03*
X925566D02*
D03*
D41*
X999043Y780740D02*
D03*
Y819110D02*
D03*
X999087Y857383D02*
D03*
D42*
X1031543Y770740D02*
D03*
Y790740D02*
D03*
Y809110D02*
D03*
Y829110D02*
D03*
X1031587Y847383D02*
D03*
Y867383D02*
D03*
M02*
